<svg width="23" height="19" viewBox="0 0 23 19" fill="none" xmlns="http://www.w3.org/2000/svg">
<path fill-rule="evenodd" clip-rule="evenodd" d="M2.45902 2.2025C2.06902 1.8125 2.06902 1.1825 2.45902 0.7925C2.84902 0.4025 3.48902 0.4025 3.87902 0.7925L20.189 17.1225C20.579 17.5125 20.579 18.1425 20.189 18.5325C19.799 18.9225 19.169 18.9225 18.779 18.5325L16.059 15.8125C14.719 16.3325 13.269 16.6325 11.749 16.6325C6.74902 16.6325 2.47902 13.5225 0.749023 9.1325C1.51902 7.1625 2.80902 5.4625 4.42902 4.1725L2.45902 2.2025ZM16.749 9.1325C16.749 6.3725 14.509 4.1325 11.749 4.1325C11.239 4.1325 10.749 4.2325 10.279 4.3725L8.10902 2.2025C9.25902 1.8325 10.479 1.6325 11.749 1.6325C16.749 1.6325 21.019 4.7425 22.749 9.1225C22.059 10.8825 20.959 12.4225 19.569 13.6525L16.509 10.5925C16.649 10.1325 16.749 9.6425 16.749 9.1325ZM11.749 14.1325C8.98902 14.1325 6.74902 11.8925 6.74902 9.1325C6.74902 8.3625 6.92902 7.6325 7.23902 6.9925L8.80902 8.5625C8.77902 8.7425 8.74902 8.9325 8.74902 9.1325C8.74902 10.7925 10.089 12.1325 11.749 12.1325C11.949 12.1325 12.129 12.1025 12.319 12.0625L13.889 13.6325C13.239 13.9525 12.519 14.1325 11.749 14.1325ZM14.719 8.8025C14.569 7.4025 13.469 6.3125 12.079 6.1625L14.719 8.8025Z" fill="#C4C4C4"/>
</svg>
