<svg width="23" height="16" viewBox="0 0 23 16" fill="none" xmlns="http://www.w3.org/2000/svg">
<path fill-rule="evenodd" clip-rule="evenodd" d="M11.749 0.162598C6.74902 0.162598 2.47902 3.2726 0.749023 7.6626C2.47902 12.0526 6.74902 15.1626 11.749 15.1626C16.749 15.1626 21.019 12.0526 22.749 7.6626C21.019 3.2726 16.749 0.162598 11.749 0.162598ZM11.749 12.6626C8.98902 12.6626 6.74902 10.4226 6.74902 7.6626C6.74902 4.9026 8.98902 2.6626 11.749 2.6626C14.509 2.6626 16.749 4.9026 16.749 7.6626C16.749 10.4226 14.509 12.6626 11.749 12.6626ZM8.74902 7.6626C8.74902 6.0026 10.089 4.6626 11.749 4.6626C13.409 4.6626 14.749 6.0026 14.749 7.6626C14.749 9.3226 13.409 10.6626 11.749 10.6626C10.089 10.6626 8.74902 9.3226 8.74902 7.6626Z" fill="#C4C4C4"/>
</svg>
