<svg width="64" height="64" viewBox="0 0 64 64" fill="none" xmlns="http://www.w3.org/2000/svg">
<circle cx="32" cy="32" r="31.5" stroke="#040404"/>
<path d="M32 10.208C37.2324 10.208 41.4561 14.4317 41.4561 19.6641C41.4561 24.8964 37.2324 29.1201 32 29.1201C26.7677 29.1201 22.5439 24.8964 22.5439 19.6641C22.5439 14.4317 26.7677 10.208 32 10.208Z" fill="#040404"/>
<path d="M32 53.7923C24.12 53.7923 17.154 49.7577 13.0879 43.6428C13.1825 37.3703 25.696 33.9346 32 33.9346C38.2725 33.9346 50.8176 37.3703 50.9121 43.6428C46.846 49.7577 39.88 53.7923 32 53.7923Z" fill="#040404"/>
<path d="M54.19 0.1725L47.19 3.2825C46.47 3.6025 46 4.3225 46 5.1125V9.8125C46 15.3625 49.84 20.5525 55 21.8125C60.16 20.5525 64 15.3625 64 9.8125V5.1125C64 4.3225 63.53 3.6025 62.81 3.2825L55.81 0.1725C55.3 -0.0575 54.7 -0.0575 54.19 0.1725Z" fill="#FCFBF7"/>
<path fill-rule="evenodd" clip-rule="evenodd" d="M47.19 3.2825L54.19 0.1725C54.7 -0.0575 55.3 -0.0575 55.81 0.1725L62.81 3.2825C63.53 3.6025 64 4.3225 64 5.1125V9.8125C64 15.3625 60.16 20.5525 55 21.8125C49.84 20.5525 46 15.3625 46 9.8125V5.1125C46 4.3225 46.47 3.6025 47.19 3.2825ZM49.8601 12.7469L52.4501 15.3369C52.8401 15.7269 53.4801 15.7269 53.8601 15.3369L60.4501 8.74693C60.8401 8.35693 60.8401 7.72693 60.4501 7.33693C60.0601 6.94693 59.4301 6.94693 59.0401 7.33693L53.1601 13.2169L51.2701 11.3369C50.8801 10.9469 50.2501 10.9469 49.8601 11.3369C49.6729 11.5238 49.5676 11.7774 49.5676 12.0419C49.5676 12.3065 49.6729 12.5601 49.8601 12.7469Z" fill="#040404"/>
</svg>
