<svg width="19" height="19" viewBox="0 0 19 19" fill="none" xmlns="http://www.w3.org/2000/svg">
<path d="M17.4616 16.4316H8.9608C8.49325 16.4316 8.11072 16.8142 8.11072 17.2817C8.11072 17.7493 8.49325 18.1318 8.9608 18.1318H17.4616C17.9291 18.1318 18.3116 17.7493 18.3116 17.2817C18.3116 16.8142 17.9291 16.4316 17.4616 16.4316Z" fill="#F55E00"/>
<path d="M14.7081 5.44087L12.3024 3.03516L1.48093 13.8566C0.817873 14.5197 0.817873 15.5993 1.48093 16.2624C2.14399 16.9254 3.22359 16.9254 3.88665 16.2624L14.7081 5.44087Z" fill="#F55E00"/>
<path d="M7.49052 0.628073L5.0848 3.03379C4.42174 3.69685 4.42174 4.77645 5.0848 5.43951L6.29191 6.64662L11.0948 1.83518L9.89624 0.636574C9.23318 -0.0349866 8.15358 -0.0349866 7.49052 0.628073Z" fill="#F55E00"/>
<path d="M15.9058 6.63867L11.0943 11.4501L12.293 12.6487C12.956 13.3118 14.0356 13.3118 14.6987 12.6487L17.1044 10.243C17.7674 9.57994 17.7674 8.50034 17.1044 7.83728L15.9058 6.63867Z" fill="#F55E00"/>
</svg>
