<svg width="18" height="19" viewBox="0 0 18 19" fill="none" xmlns="http://www.w3.org/2000/svg">
<path d="M17.1337 16.4316H8.63292C8.16537 16.4316 7.78284 16.8142 7.78284 17.2817C7.78284 17.7493 8.16537 18.1318 8.63292 18.1318H17.1337C17.6012 18.1318 17.9838 17.7493 17.9838 17.2817C17.9838 16.8142 17.6012 16.4316 17.1337 16.4316Z" fill="#040404"/>
<path d="M14.3802 5.44087L11.9745 3.03516L1.15305 13.8566C0.489992 14.5197 0.489992 15.5993 1.15305 16.2624C1.81611 16.9254 2.89571 16.9254 3.55877 16.2624L14.3802 5.44087Z" fill="#040404"/>
<path d="M7.16264 0.628073L4.75692 3.03379C4.09386 3.69685 4.09386 4.77645 4.75692 5.43951L5.96403 6.64662L10.767 1.83518L9.56836 0.636574C8.9053 -0.0349866 7.8257 -0.0349866 7.16264 0.628073Z" fill="#040404"/>
<path d="M15.5779 6.63867L10.7665 11.4501L11.9651 12.6487C12.6281 13.3118 13.7077 13.3118 14.3708 12.6487L16.7765 10.243C17.4396 9.57994 17.4396 8.50034 16.7765 7.83728L15.5779 6.63867Z" fill="#040404"/>
</svg>
