<svg width="53" height="56" viewBox="0 0 53 56" fill="none" xmlns="http://www.w3.org/2000/svg">
<path d="M50.3493 49.939H24.3747C22.9461 49.939 21.7772 51.1078 21.7772 52.5364C21.7772 53.965 22.9461 55.1339 24.3747 55.1339H50.3493C51.7779 55.1339 52.9468 53.965 52.9468 52.5364C52.9468 51.1078 51.7779 49.939 50.3493 49.939Z" fill="#FCFBF7"/>
<path d="M41.936 16.3557L34.5852 9.00488L1.51953 42.0706C-0.506493 44.0966 -0.506493 47.3954 1.51953 49.4214C3.54555 51.4474 6.84433 51.4474 8.87035 49.4214L41.936 16.3557Z" fill="#FCFBF7"/>
<path d="M19.8821 1.65007L12.5313 9.00089C10.5053 11.0269 10.5053 14.3257 12.5313 16.3517L16.2197 20.0401L30.8954 5.33847L27.233 1.67605C25.2069 -0.375947 21.9082 -0.375947 19.8821 1.65007Z" fill="#FCFBF7"/>
<path d="M45.5955 20.0156L30.8939 34.7173L34.5563 38.3797C36.5823 40.4057 39.8811 40.4057 41.9071 38.3797L49.258 31.0289C51.284 29.0028 51.284 25.7041 49.258 23.678L45.5955 20.0156Z" fill="#FCFBF7"/>
</svg>
