<svg width="54" height="56" viewBox="0 0 54 56" fill="none" xmlns="http://www.w3.org/2000/svg">
<path d="M51.2429 50.2783H25.2682C23.8396 50.2783 22.6708 51.4472 22.6708 52.8758C22.6708 54.3044 23.8396 55.4732 25.2682 55.4732H51.2429C52.6715 55.4732 53.8403 54.3044 53.8403 52.8758C53.8403 51.4472 52.6715 50.2783 51.2429 50.2783Z" fill="#040404"/>
<path d="M42.8296 16.6951L35.4788 9.34424L2.41308 42.4099C0.387062 44.4359 0.387062 47.7347 2.41308 49.7607C4.4391 51.7868 7.73788 51.7868 9.7639 49.7607L42.8296 16.6951Z" fill="#040404"/>
<path d="M20.7757 1.98943L13.4249 9.34025C11.3989 11.3663 11.3989 14.665 13.4249 16.6911L17.1133 20.3795L31.7889 5.67782L28.1265 2.0154C26.1005 -0.0365919 22.8017 -0.0365918 20.7757 1.98943Z" fill="#040404"/>
<path d="M46.4891 20.355L31.7874 35.0566L35.4499 38.719C37.4759 40.7451 40.7747 40.7451 42.8007 38.719L50.1515 31.3682C52.1775 29.3422 52.1775 26.0434 50.1515 24.0174L46.4891 20.355Z" fill="#040404"/>
</svg>
