<svg width="9" height="10" viewBox="0 0 9 10" fill="none" xmlns="http://www.w3.org/2000/svg">
<path d="M8.53028 9.08545H4.2799C4.04613 9.08545 3.85486 9.27672 3.85486 9.51049C3.85486 9.74426 4.04613 9.93553 4.2799 9.93553H8.53028C8.76406 9.93553 8.95532 9.74426 8.95532 9.51049C8.95532 9.27672 8.76406 9.08545 8.53028 9.08545Z" fill="#040404"/>
<path d="M7.1532 3.59007L5.95034 2.38721L0.539604 7.79794C0.208074 8.12947 0.208074 8.66927 0.539604 9.0008C0.871134 9.33233 1.41093 9.33233 1.74246 9.0008L7.1532 3.59007Z" fill="#040404"/>
<path d="M3.54427 1.18367L2.34142 2.38652C2.00989 2.71805 2.00989 3.25785 2.34142 3.58938L2.94497 4.19294L5.34644 1.78722L4.74713 1.18792C4.4156 0.852136 3.8758 0.852136 3.54427 1.18367Z" fill="#040404"/>
<path d="M7.75215 4.18896L5.34643 6.59468L5.94573 7.19399C6.27726 7.52552 6.81706 7.52552 7.14859 7.19399L8.35145 5.99113C8.68298 5.6596 8.68298 5.1198 8.35145 4.78827L7.75215 4.18896Z" fill="#040404"/>
</svg>
