<svg width="54" height="56" viewBox="0 0 54 56" fill="none" xmlns="http://www.w3.org/2000/svg">
<path d="M51.2961 50.2783H25.3215C23.8929 50.2783 22.724 51.4472 22.724 52.8758C22.724 54.3044 23.8929 55.4732 25.3215 55.4732H51.2961C52.7247 55.4732 53.8936 54.3044 53.8936 52.8758C53.8936 51.4472 52.7247 50.2783 51.2961 50.2783Z" fill="#C4C4C4"/>
<path d="M42.8828 16.6951L35.532 9.34424L2.4663 42.4099C0.440285 44.4359 0.440285 47.7347 2.4663 49.7607C4.49232 51.7868 7.7911 51.7868 9.81712 49.7607L42.8828 16.6951Z" fill="#C4C4C4"/>
<path d="M20.8289 1.98943L13.4781 9.34025C11.4521 11.3663 11.4521 14.665 13.4781 16.6911L17.1665 20.3795L31.8422 5.67782L28.1797 2.0154C26.1537 -0.0365919 22.8549 -0.0365918 20.8289 1.98943Z" fill="#C4C4C4"/>
<path d="M46.5423 20.355L31.8407 35.0566L35.5031 38.719C37.5291 40.7451 40.8279 40.7451 42.8539 38.719L50.2047 31.3682C52.2307 29.3422 52.2307 26.0434 50.2047 24.0174L46.5423 20.355Z" fill="#C4C4C4"/>
</svg>
