<svg width="10" height="10" viewBox="0 0 10 10" fill="none" xmlns="http://www.w3.org/2000/svg">
<path d="M9.19435 9.08545H4.94396C4.71019 9.08545 4.51893 9.27672 4.51893 9.51049C4.51893 9.74426 4.71019 9.93553 4.94396 9.93553H9.19435C9.42812 9.93553 9.61938 9.74426 9.61938 9.51049C9.61938 9.27672 9.42812 9.08545 9.19435 9.08545Z" fill="#F55E00"/>
<path d="M7.81726 3.59007L6.6144 2.38721L1.20367 7.79794C0.872137 8.12947 0.872137 8.66927 1.20367 9.0008C1.5352 9.33233 2.075 9.33233 2.40652 9.0008L7.81726 3.59007Z" fill="#F55E00"/>
<path d="M4.20834 1.18367L3.00548 2.38652C2.67395 2.71805 2.67395 3.25785 3.00548 3.58938L3.60903 4.19294L6.0105 1.78722L5.41119 1.18792C5.07966 0.852136 4.53987 0.852136 4.20834 1.18367Z" fill="#F55E00"/>
<path d="M8.41621 4.18896L6.01049 6.59468L6.6098 7.19399C6.94133 7.52552 7.48112 7.52552 7.81265 7.19399L9.01551 5.99113C9.34704 5.6596 9.34704 5.1198 9.01551 4.78827L8.41621 4.18896Z" fill="#F55E00"/>
</svg>
