<svg width="18" height="19" viewBox="0 0 18 19" fill="none" xmlns="http://www.w3.org/2000/svg">
<path d="M16.8058 16.4316H8.30504C7.83749 16.4316 7.45496 16.8142 7.45496 17.2817C7.45496 17.7493 7.83749 18.1318 8.30504 18.1318H16.8058C17.2733 18.1318 17.6559 17.7493 17.6559 17.2817C17.6559 16.8142 17.2733 16.4316 16.8058 16.4316Z" fill="#C4C4C4"/>
<path d="M14.0524 5.44087L11.6467 3.03516L0.825171 13.8566C0.162111 14.5197 0.162111 15.5993 0.825171 16.2624C1.48823 16.9254 2.56783 16.9254 3.23089 16.2624L14.0524 5.44087Z" fill="#C4C4C4"/>
<path d="M6.83476 0.628073L4.42904 3.03379C3.76598 3.69685 3.76598 4.77645 4.42904 5.43951L5.63615 6.64662L10.4391 1.83518L9.24048 0.636574C8.57742 -0.0349866 7.49782 -0.0349866 6.83476 0.628073Z" fill="#C4C4C4"/>
<path d="M15.25 6.63867L10.4386 11.4501L11.6372 12.6487C12.3003 13.3118 13.3799 13.3118 14.0429 12.6487L16.4486 10.243C17.1117 9.57994 17.1117 8.50034 16.4486 7.83728L15.25 6.63867Z" fill="#C4C4C4"/>
</svg>
