<svg width="10" height="10" viewBox="0 0 10 10" fill="none" xmlns="http://www.w3.org/2000/svg">
<path d="M8.86622 9.08545H4.61584C4.38207 9.08545 4.1908 9.27672 4.1908 9.51049C4.1908 9.74426 4.38207 9.93553 4.61584 9.93553H8.86622C9.09999 9.93553 9.29126 9.74426 9.29126 9.51049C9.29126 9.27672 9.09999 9.08545 8.86622 9.08545Z" fill="#C4C4C4"/>
<path d="M7.48914 3.59007L6.28628 2.38721L0.875541 7.79794C0.544012 8.12947 0.544012 8.66927 0.875541 9.0008C1.20707 9.33233 1.74687 9.33233 2.0784 9.0008L7.48914 3.59007Z" fill="#C4C4C4"/>
<path d="M3.88021 1.18367L2.67735 2.38652C2.34582 2.71805 2.34582 3.25785 2.67735 3.58938L3.28091 4.19294L5.68237 1.78722L5.08307 1.18792C4.75154 0.852136 4.21174 0.852136 3.88021 1.18367Z" fill="#C4C4C4"/>
<path d="M8.08808 4.18896L5.68237 6.59468L6.28167 7.19399C6.6132 7.52552 7.153 7.52552 7.48453 7.19399L8.68739 5.99113C9.01892 5.6596 9.01892 5.1198 8.68739 4.78827L8.08808 4.18896Z" fill="#C4C4C4"/>
</svg>
