<svg width="18" height="19" viewBox="0 0 18 19" fill="none" xmlns="http://www.w3.org/2000/svg">
<path d="M16.4779 16.666H7.97715C7.50961 16.666 7.12708 17.0486 7.12708 17.5161C7.12708 17.9836 7.50961 18.3662 7.97715 18.3662H16.4779C16.9455 18.3662 17.328 17.9836 17.328 17.5161C17.328 17.0486 16.9455 16.666 16.4779 16.666Z" fill="#FCFBF7"/>
<path d="M13.7245 5.67525L11.3188 3.26953L0.497291 14.091C-0.16577 14.7541 -0.16577 15.8337 0.497291 16.4967C1.16035 17.1598 2.23995 17.1598 2.90301 16.4967L13.7245 5.67525Z" fill="#FCFBF7"/>
<path d="M6.50688 0.862448L4.10116 3.26817C3.4381 3.93123 3.4381 5.01082 4.10116 5.67388L5.30827 6.88099L10.1112 2.06956L8.9126 0.870949C8.24954 0.199388 7.16994 0.199388 6.50688 0.862448Z" fill="#FCFBF7"/>
<path d="M14.9221 6.87305L10.1107 11.6845L11.3093 12.8831C11.9724 13.5462 13.052 13.5462 13.715 12.8831L16.1207 10.4774C16.7838 9.81431 16.7838 8.73472 16.1207 8.07166L14.9221 6.87305Z" fill="#FCFBF7"/>
</svg>
