<svg width="54" height="56" viewBox="0 0 54 56" fill="none" xmlns="http://www.w3.org/2000/svg">
<path d="M51.1896 50.2783H25.215C23.7864 50.2783 22.6176 51.4472 22.6176 52.8758C22.6176 54.3044 23.7864 55.4732 25.215 55.4732H51.1896C52.6183 55.4732 53.7871 54.3044 53.7871 52.8758C53.7871 51.4472 52.6183 50.2783 51.1896 50.2783Z" fill="#F55E00"/>
<path d="M42.7764 16.6951L35.4255 9.34424L2.35986 42.4099C0.333839 44.4359 0.333839 47.7347 2.35986 49.7607C4.38588 51.7868 7.68466 51.7868 9.71068 49.7607L42.7764 16.6951Z" fill="#F55E00"/>
<path d="M20.7225 1.98943L13.3717 9.34025C11.3456 11.3663 11.3456 14.665 13.3717 16.6911L17.0601 20.3795L31.7357 5.67782L28.0733 2.0154C26.0473 -0.0365919 22.7485 -0.0365918 20.7225 1.98943Z" fill="#F55E00"/>
<path d="M46.4359 20.355L31.7342 35.0566L35.3966 38.719C37.4227 40.7451 40.7214 40.7451 42.7475 38.719L50.0983 31.3682C52.1243 29.3422 52.1243 26.0434 50.0983 24.0174L46.4359 20.355Z" fill="#F55E00"/>
</svg>
