<svg width="10" height="10" viewBox="0 0 10 10" fill="none" xmlns="http://www.w3.org/2000/svg">
<path d="M9.20228 8.1709H4.9519C4.71813 8.1709 4.52686 8.36217 4.52686 8.59594C4.52686 8.82971 4.71813 9.02097 4.9519 9.02097H9.20228C9.43605 9.02097 9.62732 8.82971 9.62732 8.59594C9.62732 8.36217 9.43605 8.1709 9.20228 8.1709Z" fill="#FCFBF7"/>
<path d="M7.8252 2.67551L6.62234 1.47266L1.2116 6.88339C0.880071 7.21492 0.880071 7.75472 1.2116 8.08625C1.54313 8.41778 2.08293 8.41778 2.41446 8.08625L7.8252 2.67551Z" fill="#FCFBF7"/>
<path d="M4.21627 0.269115L3.01341 1.47197C2.68188 1.8035 2.68188 2.3433 3.01341 2.67483L3.61697 3.27839L6.01843 0.872669L5.41913 0.273365C5.0876 -0.0624151 4.5478 -0.0624151 4.21627 0.269115Z" fill="#FCFBF7"/>
<path d="M8.42414 3.27441L6.01843 5.68013L6.61773 6.27943C6.94926 6.61096 7.48906 6.61096 7.82059 6.27943L9.02345 5.07658C9.35498 4.74505 9.35498 4.20525 9.02345 3.87372L8.42414 3.27441Z" fill="#FCFBF7"/>
</svg>
