<svg width="14" height="13" viewBox="0 0 14 13" fill="none" xmlns="http://www.w3.org/2000/svg">
<path fill-rule="evenodd" clip-rule="evenodd" d="M9.90196 8.38358H10.504L13.7353 11.6301C14.0478 11.9426 14.0478 12.4532 13.7353 12.7657C13.4229 13.0781 12.9123 13.0781 12.5998 12.7657L9.36087 9.52673V8.92467L9.15511 8.71128C8.08817 9.6258 6.63255 10.0983 5.08549 9.83919C2.96685 9.481 1.27499 7.71293 1.01588 5.57905C0.619585 2.35537 3.33266 -0.35771 6.55634 0.0385818C8.69022 0.297696 10.4583 1.98956 10.8165 4.1082C11.0756 5.65526 10.6031 7.11087 9.68858 8.17781L9.90196 8.38358ZM2.5019 4.95405C2.5019 6.85168 4.03372 8.3835 5.93135 8.3835C7.82898 8.3835 9.3608 6.85168 9.3608 4.95405C9.3608 3.05642 7.82898 1.5246 5.93135 1.5246C4.03372 1.5246 2.5019 3.05642 2.5019 4.95405Z" fill="#FCFBF7"/>
</svg>
