<svg width="104" height="26" viewBox="0 0 104 26" fill="none" xmlns="http://www.w3.org/2000/svg">
<path d="M27.4316 9.04004H37.9327V10.9969H33.7982V22.0283H31.5318V10.9969H27.4143L27.4316 9.04004ZM37.4831 12.6248H39.4209V14.4432H39.4553C39.5247 14.1834 39.646 13.9409 39.8186 13.6985C39.9918 13.456 40.1994 13.2309 40.4589 13.0404C40.7009 12.8326 40.9779 12.6767 41.2893 12.5555C41.5832 12.4343 41.8946 12.365 42.206 12.365C42.4486 12.365 42.6212 12.3824 42.7081 12.3824C42.7944 12.3996 42.8982 12.417 42.9845 12.417V14.4085C42.8463 14.3739 42.6906 14.3565 42.5349 14.3393C42.3792 14.3219 42.241 14.3046 42.0853 14.3046C41.7389 14.3046 41.4106 14.3739 41.0992 14.5124C40.7878 14.651 40.5277 14.8588 40.2857 15.1185C40.0606 15.3956 39.8705 15.7246 39.7323 16.123C39.5935 16.5212 39.5247 16.9889 39.5247 17.5084V21.9764H37.4486L37.4831 12.6248ZM52.5172 22.0283H50.4587V20.7121H50.4237C50.1642 21.197 49.784 21.5607 49.2819 21.8551C48.7804 22.1495 48.2614 22.2881 47.7424 22.2881C46.5137 22.2881 45.6145 21.9936 45.0605 21.3702C44.5071 20.7641 44.2301 19.8289 44.2301 18.5994V12.6248H46.3061V18.3916C46.3061 19.2228 46.4618 19.8116 46.7907 20.1406C47.1021 20.487 47.5523 20.6602 48.1226 20.6602C48.5553 20.6602 48.9186 20.5909 49.2131 20.4524C49.507 20.3138 49.749 20.1406 49.9222 19.9155C50.1123 19.6904 50.2336 19.4133 50.3199 19.1016C50.4068 18.7899 50.4412 18.4435 50.4412 18.0798V12.6248H52.5172V22.0283ZM56.0294 19.015C56.0983 19.6211 56.3234 20.0367 56.7211 20.2965C57.1188 20.539 57.6034 20.6602 58.1573 20.6602C58.3475 20.6602 58.5725 20.6429 58.8146 20.6082C59.0566 20.5736 59.2991 20.5216 59.5067 20.4351C59.7313 20.3485 59.9045 20.2273 60.0427 20.0541C60.1814 19.8809 60.2503 19.6731 60.2333 19.4133C60.2158 19.1536 60.1295 18.9284 59.9389 18.7552C59.7488 18.5821 59.5237 18.4608 59.2472 18.3396C58.9703 18.2357 58.6414 18.1491 58.2781 18.0798C57.9148 18.0106 57.5515 17.924 57.1712 17.8374C56.7904 17.7508 56.4097 17.6469 56.0464 17.5257C55.6831 17.4045 55.3717 17.2486 55.0778 17.0235C54.8008 16.8157 54.5588 16.5559 54.4031 16.2269C54.2299 15.8978 54.1436 15.5168 54.1436 15.032C54.1436 14.5124 54.2643 14.0968 54.5238 13.7504C54.7664 13.4041 55.0947 13.127 55.4755 12.9192C55.8563 12.7113 56.2884 12.5555 56.7555 12.4689C57.2226 12.3824 57.6728 12.3477 58.088 12.3477C58.5725 12.3477 59.0396 12.3996 59.4718 12.5035C59.9045 12.6074 60.3197 12.7633 60.6655 13.0058C61.0288 13.2309 61.3232 13.5426 61.5478 13.9063C61.7903 14.27 61.9285 14.7202 61.9979 15.2398H59.8351C59.7313 14.7375 59.5067 14.4085 59.1604 14.2353C58.7971 14.0622 58.3994 13.9755 57.9323 13.9755C57.794 13.9755 57.6034 13.9929 57.4133 14.0102C57.2057 14.0448 57.0325 14.0795 56.8424 14.1487C56.6692 14.218 56.5135 14.3219 56.3922 14.4432C56.2715 14.5643 56.2021 14.7375 56.2021 14.9453C56.2021 15.2051 56.2884 15.3956 56.4616 15.5515C56.6348 15.7073 56.8598 15.8286 57.1538 15.9498C57.4307 16.0537 57.7591 16.1403 58.1224 16.2095C58.4857 16.2788 58.8665 16.3654 59.2472 16.452C59.6275 16.5386 59.9908 16.6425 60.3541 16.7637C60.7174 16.885 61.0463 17.0408 61.3232 17.2659C61.5997 17.4738 61.8422 17.7335 62.0149 18.0452C62.1881 18.3569 62.2744 18.7552 62.2744 19.2055C62.2744 19.7596 62.1536 20.2273 61.8941 20.6255C61.6346 21.0065 61.3058 21.3356 60.908 21.578C60.5098 21.8205 60.0427 21.9936 59.5586 22.1149C59.0566 22.2188 58.5725 22.2881 58.088 22.2881C57.4996 22.2881 56.9462 22.2188 56.4446 22.0803C55.9426 21.9417 55.493 21.7339 55.1297 21.4741C54.7664 21.197 54.4719 20.868 54.2643 20.4524C54.0567 20.0541 53.936 19.5692 53.9185 18.9977H56.0119V19.015H56.0294ZM62.8628 12.6248H64.4372V9.7847H66.5132V12.6074H68.3816V14.1487H66.5132V19.1709C66.5132 19.396 66.5307 19.5692 66.5476 19.7424C66.5651 19.8982 66.617 20.0367 66.6689 20.1406C66.7383 20.2445 66.8421 20.3312 66.9628 20.3831C67.1016 20.4351 67.2742 20.4697 67.5168 20.4697C67.655 20.4697 67.8107 20.4697 67.9489 20.4524C68.0877 20.4351 68.2434 20.4177 68.3816 20.3831V21.9936C68.1566 22.0283 67.932 22.0456 67.7069 22.0629C67.4818 22.0975 67.2743 22.0975 67.0322 22.0975C66.4788 22.0975 66.0461 22.0456 65.7172 21.9417C65.3889 21.8378 65.1294 21.6819 64.9387 21.4915C64.7486 21.2836 64.6273 21.0412 64.5585 20.7468C64.4891 20.4524 64.4542 20.0887 64.4372 19.7077V14.1661H62.8628V12.5902V12.6248ZM69.8348 12.6248H71.7895V13.9063H71.8245C72.1184 13.3521 72.5167 12.9711 73.0357 12.7287C73.5547 12.4863 74.1081 12.365 74.7309 12.365C75.475 12.365 76.1147 12.4863 76.6687 12.7633C77.2221 13.0231 77.6717 13.3694 78.035 13.837C78.3983 14.2873 78.6753 14.8241 78.8485 15.4302C79.0211 16.0364 79.1249 16.6944 79.1249 17.3698C79.1249 18.0106 79.0386 18.6167 78.8829 19.2055C78.7097 19.7943 78.4677 20.3312 78.1388 20.7814C77.8105 21.2317 77.3953 21.5954 76.8763 21.8725C76.3573 22.1495 75.7689 22.2881 75.0767 22.2881C74.7828 22.2881 74.4714 22.2534 74.1769 22.2014C73.883 22.1495 73.5891 22.0629 73.3121 21.9417C73.0357 21.8205 72.7756 21.6646 72.5511 21.4741C72.3085 21.2836 72.1184 21.0585 71.9627 20.816H71.9283V25.5091H69.8523V12.6248H69.8348ZM77.0839 17.3352C77.0839 16.9196 77.032 16.504 76.9107 16.1056C76.8069 15.7073 76.6337 15.361 76.4092 15.0492C76.1841 14.7375 75.9071 14.4951 75.5957 14.3046C75.2674 14.1141 74.8866 14.0275 74.4714 14.0275C73.606 14.0275 72.9488 14.3219 72.4992 14.9281C72.0665 15.5341 71.8414 16.3481 71.8414 17.3525C71.8414 17.8374 71.8933 18.2703 72.0146 18.6687C72.1359 19.0669 72.2916 19.4133 72.5336 19.7077C72.7587 20.0021 73.0357 20.2273 73.364 20.4004C73.6929 20.5736 74.0562 20.6602 74.4889 20.6602C74.9729 20.6602 75.3537 20.5563 75.6826 20.3658C76.0109 20.1753 76.2704 19.9155 76.4955 19.6211C76.7031 19.3094 76.8588 18.963 76.9451 18.5648C77.032 18.1491 77.0839 17.7508 77.0839 17.3352ZM80.7338 9.04004H82.8104V10.9969H80.7338V9.04004ZM80.7338 12.6248H82.8104V22.0283H80.7338V12.6248ZM84.6613 9.04004H86.7373V22.0283H84.6613V9.04004ZM93.0691 22.2881C92.3256 22.2881 91.6509 22.1668 91.0625 21.9071C90.4741 21.6473 89.9901 21.3183 89.5749 20.8853C89.1766 20.4524 88.8652 19.9155 88.6576 19.3094C88.45 18.7033 88.3287 18.0279 88.3287 17.3178C88.3287 16.6079 88.4325 15.9498 88.6576 15.3437C88.8652 14.7375 89.1766 14.218 89.5749 13.7677C89.9726 13.3348 90.4741 12.9884 91.0625 12.746C91.6509 12.5035 92.3256 12.365 93.0691 12.365C93.8132 12.365 94.4879 12.4863 95.0763 12.746C95.6641 12.9884 96.1487 13.3348 96.5639 13.7677C96.9616 14.2007 97.273 14.7375 97.4806 15.3437C97.6882 15.9498 97.8095 16.6079 97.8095 17.3178C97.8095 18.0452 97.7057 18.7033 97.4806 19.3094C97.2561 19.9155 96.9616 20.4351 96.5639 20.8853C96.1662 21.3183 95.6641 21.6646 95.0763 21.9071C94.4879 22.1495 93.8307 22.2881 93.0691 22.2881ZM93.0691 20.6429C93.5193 20.6429 93.9345 20.539 94.2628 20.3485C94.6092 20.158 94.8687 19.8982 95.0932 19.5865C95.3183 19.2748 95.474 18.9111 95.5778 18.5301C95.6816 18.1318 95.7335 17.7335 95.7335 17.3178C95.7335 16.9196 95.6816 16.5212 95.5778 16.123C95.474 15.7246 95.3183 15.3783 95.0932 15.0666C94.8687 14.7549 94.5917 14.5124 94.2628 14.3219C93.917 14.1314 93.5193 14.0275 93.0691 14.0275C92.6195 14.0275 92.2043 14.1314 91.8754 14.3219C91.5296 14.5124 91.2701 14.7721 91.045 15.0666C90.8205 15.3783 90.6642 15.7246 90.5604 16.123C90.4572 16.5212 90.4053 16.9196 90.4053 17.3178C90.4053 17.7335 90.4572 18.1318 90.5604 18.5301C90.6642 18.9284 90.8205 19.2748 91.045 19.5865C91.2701 19.8982 91.5471 20.158 91.8754 20.3485C92.2218 20.5563 92.6195 20.6429 93.0691 20.6429ZM98.4323 12.6248H100.007V9.7847H102.083V12.6074H103.951V14.1487H102.083V19.1709C102.083 19.396 102.1 19.5692 102.117 19.7424C102.135 19.8982 102.187 20.0367 102.238 20.1406C102.308 20.2445 102.412 20.3312 102.532 20.3831C102.671 20.4351 102.844 20.4697 103.086 20.4697C103.225 20.4697 103.38 20.4697 103.519 20.4524C103.657 20.4351 103.813 20.4177 103.951 20.3831V21.9936C103.726 22.0283 103.502 22.0456 103.277 22.0629C103.051 22.0975 102.844 22.0975 102.602 22.0975C102.048 22.0975 101.616 22.0456 101.287 21.9417C100.959 21.8378 100.699 21.6819 100.508 21.4915C100.318 21.2836 100.197 21.0412 100.128 20.7468C100.059 20.4524 100.024 20.0887 100.007 19.7077V14.1661H98.4323V12.5902V12.6248Z" fill="#040404"/>
<path d="M25.1492 9.17133H15.598L12.6579 0L9.70029 9.17133L0.14917 9.15374L7.87361 14.8287L4.91602 24L12.6405 18.325L20.3649 24L17.4247 14.8287L25.1492 9.17133Z" fill="#00B67A"/>
<path d="M17.9858 16.6597L17.3284 14.6162L12.5881 18.0624L17.9858 16.6597Z" fill="#005128"/>
</svg>
