<svg width="126" height="125" viewBox="0 0 126 125" fill="none" xmlns="http://www.w3.org/2000/svg">
<path d="M47.6563 92.005L49.6563 92.005V90.854L48.6611 90.2757L47.6563 92.005ZM67.1876 33.9321L67.4301 31.9469L67.4276 31.9466L67.1876 33.9321ZM94.1667 60.078L96.1448 59.7824L96.1437 59.775L94.1667 60.078ZM78.9063 92.005L77.9049 90.2738L76.9063 90.8514V92.005H78.9063ZM105 65.0259L107 65.0622L107 65.0441V65.0259H105ZM103.646 24.6613L102.232 26.0755L103.646 24.6613ZM96.3022 24.6613L97.7164 26.0755H97.7164L96.3022 24.6613ZM103.698 32.005L105.112 33.4193L105.13 33.4011L105.148 33.3825L103.698 32.005ZM101.667 34.0363L100.253 32.6221L100.251 32.6237L101.667 34.0363ZM94.323 34.0363L95.7388 32.6237L95.7373 32.6221L94.323 34.0363ZM94.2709 33.9842L95.6852 32.57L95.6851 32.57L94.2709 33.9842ZM32.2917 33.9842L33.706 35.3984L33.706 35.3984L32.2917 33.9842ZM45.6563 92.005V111.849H49.6563V92.005L45.6563 92.005ZM30.0313 64.9217C30.0313 77.2828 36.7425 87.9771 46.6516 93.7344L48.6611 90.2757C39.9243 85.1997 34.0313 75.7898 34.0313 64.9217L30.0313 64.9217ZM67.4276 31.9466C47.2669 29.5096 30.0313 45.2438 30.0313 64.9217L34.0313 64.9217C34.0313 47.6204 49.1916 33.7714 66.9476 35.9177L67.4276 31.9466ZM96.1437 59.775C93.9242 45.293 81.9636 33.722 67.4301 31.9469L66.9451 35.9174C79.7033 37.4756 90.2426 47.6754 92.1898 60.3809L96.1437 59.775ZM79.9077 93.7363C91.2089 87.1993 98.3032 74.2269 96.1448 59.7824L92.1887 60.3735C94.0928 73.1165 87.8537 84.5191 77.9049 90.2738L79.9077 93.7363ZM80.9063 111.849V92.005H76.9063V111.849H80.9063ZM73.698 119.057C77.6672 119.057 80.9063 115.818 80.9063 111.849H76.9063C76.9063 113.609 75.458 115.057 73.698 115.057V119.057ZM52.8647 119.057L73.698 119.057V115.057L52.8647 115.057V119.057ZM45.6563 111.849C45.6563 115.818 48.8955 119.057 52.8647 119.057V115.057C51.1047 115.057 49.6563 113.609 49.6563 111.849H45.6563ZM115.417 68.1821H110.104V72.1821H115.417V68.1821ZM118.573 65.0259C118.573 66.7859 117.177 68.1821 115.417 68.1821V72.1821C119.386 72.1821 122.573 68.995 122.573 65.0259H118.573ZM118.573 64.9738V65.0259H122.573V64.9738H118.573ZM115.417 61.8175C117.177 61.8175 118.573 63.2138 118.573 64.9738H122.573C122.573 61.0046 119.386 57.8175 115.417 57.8175V61.8175ZM110.156 61.8175H115.417V57.8175H110.156V61.8175ZM107 64.9738C107 63.2138 108.396 61.8175 110.156 61.8175V57.8175C106.187 57.8175 103 61.0046 103 64.9738H107ZM107 65.0259V64.9738H103V65.0259H107ZM110.104 68.1821C108.337 68.1821 106.968 66.787 107 65.0622L103 64.9895C102.928 68.9939 106.142 72.1821 110.104 72.1821V68.1821ZM105.06 23.2471C102.248 20.4348 97.7002 20.4348 94.888 23.2471L97.7164 26.0755C98.9666 24.8253 100.981 24.8253 102.232 26.0755L105.06 23.2471ZM105.148 33.3825C107.854 30.5343 107.879 26.066 105.06 23.2471L102.232 26.0755C103.475 27.3191 103.5 29.3092 102.248 30.6275L105.148 33.3825ZM103.081 35.4505L105.112 33.4193L102.284 30.5908L100.253 32.6221L103.081 35.4505ZM97.9949 37.5597C99.9038 37.5597 101.734 36.8002 103.083 35.4489L100.251 32.6237C99.6531 33.2229 98.8414 33.5597 97.9949 33.5597V37.5597ZM92.9072 35.4489C94.2555 36.8002 96.086 37.5597 97.9949 37.5597V33.5597C97.1484 33.5597 96.3367 33.2229 95.7388 32.6237L92.9072 35.4489ZM92.8567 35.3984L92.9087 35.4505L95.7373 32.6221L95.6852 32.57L92.8567 35.3984ZM92.8567 25.2783C90.0313 28.1037 90.1097 32.6514 92.8567 35.3984L95.6851 32.57C94.4738 31.3587 94.448 29.3439 95.6851 28.1068L92.8567 25.2783ZM94.888 23.2471L92.8567 25.2783L95.6851 28.1068L97.7164 26.0755L94.888 23.2471ZM63.3334 5.94254H63.2813V9.94254H63.3334V5.94254ZM70.4897 13.0988C70.4897 9.12964 67.3026 5.94254 63.3334 5.94254V9.94254C65.0934 9.94254 66.4897 11.3388 66.4897 13.0988H70.4897ZM70.4897 18.0988V13.0988H66.4897V18.0988H70.4897ZM63.3334 25.255C67.3026 25.255 70.4897 22.0679 70.4897 18.0988H66.4897C66.4897 19.8588 65.0934 21.255 63.3334 21.255V25.255ZM63.2813 25.255H63.3334V21.255H63.2813V25.255ZM56.1251 18.0988C56.1251 22.0679 59.3122 25.255 63.2813 25.255V21.255C61.5213 21.255 60.1251 19.8588 60.1251 18.0988H56.1251ZM56.1251 13.0988V18.0988H60.1251V13.0988H56.1251ZM63.2813 5.94254C59.3122 5.94254 56.1251 9.12964 56.1251 13.0988H60.1251C60.1251 11.3388 61.5213 9.94254 63.2813 9.94254V5.94254ZM19.6147 64.9738V65.0259H23.6147V64.9738H19.6147ZM16.4584 61.8175C18.2184 61.8175 19.6147 63.2138 19.6147 64.9738H23.6147C23.6147 61.0046 20.4276 57.8175 16.4584 57.8175L16.4584 61.8175ZM11.198 61.8175H16.4584L16.4584 57.8175H11.198L11.198 61.8175ZM8.04175 64.9738C8.04175 63.2138 9.43798 61.8175 11.198 61.8175L11.198 57.8175C7.22884 57.8175 4.04175 61.0046 4.04175 64.9738H8.04175ZM8.04175 65.0259V64.9738H4.04175V65.0259H8.04175ZM11.198 68.1821C9.43798 68.1821 8.04175 66.7859 8.04175 65.0259H4.04175C4.04175 68.995 7.22884 72.1821 11.198 72.1821V68.1821ZM16.4584 68.1821H11.198V72.1821H16.4584V68.1821ZM19.6147 65.0259C19.6147 66.7859 18.2184 68.1821 16.4584 68.1821V72.1821C20.4276 72.1821 23.6147 68.995 23.6147 65.0259H19.6147ZM33.758 25.2262L31.7268 23.195L28.8984 26.0234L30.9296 28.0547L33.758 25.2262ZM33.706 35.3984C36.5572 32.5472 36.5834 28.0517 33.758 25.2262L30.9296 28.0547C32.1667 29.2918 32.193 31.2545 30.8775 32.57L33.706 35.3984ZM23.5859 35.3984C26.4113 38.2238 30.9589 38.1455 33.706 35.3984L30.8775 32.57C29.6662 33.7813 27.6514 33.8071 26.4143 32.57L23.5859 35.3984ZM21.5546 33.3672L23.5859 35.3984L26.4143 32.57L24.383 30.5387L21.5546 33.3672ZM21.5546 23.195C18.7423 26.0073 18.7423 30.5549 21.5546 33.3672L24.383 30.5387C23.1328 29.2886 23.1328 27.2736 24.383 26.0234L21.5546 23.195ZM31.7268 23.195C28.9145 20.3827 24.3669 20.3827 21.5546 23.195L24.383 26.0234C25.6332 24.7732 27.6482 24.7732 28.8984 26.0234L31.7268 23.195Z" fill="#F55E00"/>
<path d="M48.532 99.3848H78.0828" stroke="#F55E00" stroke-width="4" stroke-linecap="round"/>
<path d="M48.532 108.128H78.0828" stroke="#F55E00" stroke-width="4" stroke-linecap="round"/>
</svg>
