<svg width="178" height="51" viewBox="0 0 178 51" fill="none" xmlns="http://www.w3.org/2000/svg">
<path d="M1 25.5L50.9961 25.5" stroke="#F55E00" stroke-width="1.5" stroke-linecap="round"/>
<path d="M82.4853 37.538H83.2353V37.1022L82.8566 36.8864L82.4853 37.538ZM90.6103 13.8443L90.6995 13.0996L90.6986 13.0995L90.6103 13.8443ZM101.834 24.5118L102.575 24.3988L102.575 24.396L101.834 24.5118ZM95.4853 37.538L95.1152 36.8857L94.7353 37.1012V37.538H95.4853ZM106.34 26.5305L107.09 26.5444V26.5305H106.34ZM105.777 10.0618L106.302 9.52632H106.302L105.777 10.0618ZM102.722 10.0618L103.247 10.5972L102.722 10.0618ZM105.799 13.058L106.324 13.5935L106.331 13.5867L106.337 13.5798L105.799 13.058ZM104.954 13.8868L104.428 13.3513L104.428 13.3519L104.954 13.8868ZM101.899 13.8868L102.424 13.3519L102.424 13.3513L101.899 13.8868ZM101.877 13.8655L101.352 14.401L101.352 14.401L101.877 13.8655ZM101.877 10.8905L102.402 11.426H102.402L101.877 10.8905ZM76.1153 10.8693L75.5901 11.4047H75.5901L76.1153 10.8693ZM75.2703 10.0405L75.7954 9.50507L75.2703 10.0405ZM76.0936 13.8655L75.5684 13.3301L76.0936 13.8655ZM73.0603 13.8655L73.5854 13.3301H73.5854L73.0603 13.8655ZM72.2153 13.0368L71.6901 13.5722H71.6901L72.2153 13.0368ZM72.2153 10.0405L72.7404 10.576H72.7404L72.2153 10.0405ZM81.7353 37.538V45.6343L83.2353 45.6343V37.538H81.7353ZM75.2353 26.488C75.2353 31.5139 78.0173 35.8552 82.1139 38.1897L82.8566 36.8864C79.1966 34.8008 76.7353 30.9396 76.7353 26.488H75.2353ZM90.6986 13.0995C82.3777 12.113 75.2353 18.4831 75.2353 26.488H76.7353C76.7353 19.4054 83.0695 13.7055 90.522 14.5891L90.6986 13.0995ZM102.575 24.396C101.655 18.5083 96.7001 13.8184 90.6995 13.0996L90.5211 14.589C95.8738 15.2301 100.279 19.4228 101.093 24.6276L102.575 24.396ZM95.8553 38.1904C100.527 35.5399 103.47 30.273 102.575 24.3988L101.092 24.6247C101.887 29.8431 99.2832 34.5211 95.1152 36.8857L95.8553 38.1904ZM96.2353 45.6343V37.538H94.7353V45.6343H96.2353ZM93.3186 48.5093C94.9107 48.5093 96.2353 47.2309 96.2353 45.6343H94.7353C94.7353 46.3752 94.1098 47.0093 93.3186 47.0093V48.5093ZM84.6519 48.5093H93.3186V47.0093H84.6519V48.5093ZM81.7353 45.6343C81.7353 47.2309 83.0598 48.5093 84.6519 48.5093V47.0093C83.8607 47.0093 83.2353 46.3752 83.2353 45.6343L81.7353 45.6343ZM110.674 27.8843H108.464V29.3843H110.674V27.8843ZM112.069 26.5305C112.069 27.2714 111.465 27.8843 110.674 27.8843V29.3843C112.266 29.3843 113.569 28.1272 113.569 26.5305H112.069ZM112.069 26.5093V26.5305H113.569V26.5093H112.069ZM110.674 25.1555C111.465 25.1555 112.069 25.7684 112.069 26.5093H113.569C113.569 24.9126 112.266 23.6555 110.674 23.6555V25.1555ZM108.485 25.1555H110.674V23.6555H108.485V25.1555ZM107.09 26.5093C107.09 25.7684 107.694 25.1555 108.485 25.1555V23.6555C106.893 23.6555 105.59 24.9126 105.59 26.5093H107.09ZM107.09 26.5305V26.5093H105.59V26.5305H107.09ZM108.464 27.8843C107.669 27.8843 107.077 27.2717 107.09 26.5444L105.59 26.5166C105.561 28.1269 106.875 29.3843 108.464 29.3843V27.8843ZM106.302 9.52632C105.165 8.41151 103.333 8.41151 102.197 9.52632L103.247 10.5972C103.8 10.0545 104.698 10.0545 105.252 10.5972L106.302 9.52632ZM106.337 13.5798C107.44 12.4416 107.449 10.6515 106.302 9.52632L105.252 10.5972C105.795 11.1296 105.804 11.9745 105.26 12.5362L106.337 13.5798ZM105.479 14.4222L106.324 13.5935L105.273 12.5226L104.428 13.3513L105.479 14.4222ZM103.426 15.2583C104.194 15.2583 104.933 14.9589 105.479 14.4216L104.428 13.3519C104.165 13.6105 103.805 13.7583 103.426 13.7583V15.2583ZM101.373 14.4216C101.919 14.9589 102.658 15.2583 103.426 15.2583V13.7583C103.048 13.7583 102.687 13.6105 102.424 13.3519L101.373 14.4216ZM101.352 14.401L101.373 14.4222L102.424 13.3513L102.402 13.33L101.352 14.401ZM101.352 10.3551C100.202 11.4829 100.234 13.3045 101.352 14.401L102.402 13.3301C101.873 12.8116 101.862 11.9557 102.402 11.426L101.352 10.3551ZM102.197 9.52632L101.352 10.3551L102.402 11.426L103.247 10.5972L102.197 9.52632ZM89.0069 2.49052H88.9853V3.99052H89.0069V2.49052ZM91.9019 5.34428C91.9019 3.74765 90.599 2.49052 89.0069 2.49052V3.99052C89.7982 3.99052 90.4019 4.6034 90.4019 5.34428H91.9019ZM91.9019 7.38427V5.34428H90.4019V7.38427H91.9019ZM89.0069 10.238C90.599 10.238 91.9019 8.9809 91.9019 7.38427H90.4019C90.4019 8.12515 89.7982 8.73803 89.0069 8.73803V10.238ZM88.9853 10.238H89.0069V8.73803H88.9853V10.238ZM86.0903 7.38427C86.0903 8.9809 87.3932 10.238 88.9853 10.238V8.73803C88.194 8.73803 87.5903 8.12515 87.5903 7.38427H86.0903ZM86.0903 5.34428V7.38427H87.5903V5.34428H86.0903ZM88.9853 2.49052C87.3932 2.49052 86.0903 3.74765 86.0903 5.34428H87.5903C87.5903 4.6034 88.194 3.99052 88.9853 3.99052V2.49052ZM70.9019 26.5093V26.5305H72.4019V26.5093H70.9019ZM69.5069 25.1555C70.2982 25.1555 70.9019 25.7684 70.9019 26.5093H72.4019C72.4019 24.9126 71.099 23.6555 69.5069 23.6555V25.1555ZM67.3186 25.1555L69.5069 25.1555V23.6555L67.3186 23.6555V25.1555ZM65.9236 26.5093C65.9236 25.7684 66.5273 25.1555 67.3186 25.1555V23.6555C65.7265 23.6555 64.4236 24.9126 64.4236 26.5093H65.9236ZM65.9236 26.5305V26.5093H64.4236V26.5305H65.9236ZM67.3186 27.8843C66.5273 27.8843 65.9236 27.2714 65.9236 26.5305H64.4236C64.4236 28.1272 65.7265 29.3843 67.3186 29.3843V27.8843ZM69.5069 27.8843L67.3186 27.8843V29.3843L69.5069 29.3843V27.8843ZM70.9019 26.5305C70.9019 27.2714 70.2982 27.8843 69.5069 27.8843V29.3843C71.099 29.3843 72.4019 28.1272 72.4019 26.5305H70.9019ZM76.6404 10.3338L75.7954 9.50507L74.7451 10.576L75.5901 11.4047L76.6404 10.3338ZM76.6187 14.401C77.7801 13.262 77.7903 11.4616 76.6404 10.3338L75.5901 11.4047C76.1302 11.9344 76.1404 12.7691 75.5684 13.3301L76.6187 14.401ZM72.5351 14.401C73.6766 15.5205 75.5086 15.4898 76.6187 14.401L75.5684 13.3301C75.0319 13.8563 74.1339 13.868 73.5854 13.3301L72.5351 14.401ZM71.6901 13.5722L72.5351 14.401L73.5854 13.3301L72.7404 12.5013L71.6901 13.5722ZM71.6901 9.50507C70.5453 10.6278 70.5453 12.4495 71.6901 13.5722L72.7404 12.5013C72.1952 11.9666 72.1952 11.1107 72.7404 10.576L71.6901 9.50507ZM75.7954 9.50507C74.6587 8.39026 72.8268 8.39026 71.6901 9.50507L72.7404 10.576C73.2937 10.0333 74.1918 10.0333 74.7451 10.576L75.7954 9.50507Z" fill="#F55E00"/>
<path d="M82.8495 40.5488H95.1427" stroke="#F55E00" stroke-width="1.5" stroke-linecap="round"/>
<path d="M82.8495 44.1162H95.1427" stroke="#F55E00" stroke-width="1.5" stroke-linecap="round"/>
<path d="M126.996 25.5H176.999" stroke="#F55E00" stroke-width="1.5" stroke-linecap="round"/>
</svg>
