<svg width="45" height="44" viewBox="0 0 45 44" fill="none" xmlns="http://www.w3.org/2000/svg">
<path fill-rule="evenodd" clip-rule="evenodd" d="M22.0701 12C16.5501 12 12.0801 16.48 12.0801 22C12.0801 27.52 16.5501 32 22.0701 32C27.6001 32 32.0801 27.52 32.0801 22C32.0801 16.48 27.6001 12 22.0701 12ZM22.0801 30C17.6601 30 14.0801 26.42 14.0801 22C14.0801 17.58 17.6601 14 22.0801 14C26.5001 14 30.0801 17.58 30.0801 22C30.0801 26.42 26.5001 30 22.0801 30ZM27.0801 19.5C27.0801 20.33 26.4101 21 25.5801 21C24.7501 21 24.0801 20.33 24.0801 19.5C24.0801 18.67 24.7501 18 25.5801 18C26.4101 18 27.0801 18.67 27.0801 19.5ZM18.5801 21C19.4101 21 20.0801 20.33 20.0801 19.5C20.0801 18.67 19.4101 18 18.5801 18C17.7501 18 17.0801 18.67 17.0801 19.5C17.0801 20.33 17.7501 21 18.5801 21ZM26.8301 24.75C25.8801 26.39 24.1101 27.5 22.0801 27.5C20.0501 27.5 18.2801 26.39 17.3301 24.75C17.1401 24.42 17.3901 24 17.7701 24H26.3901C26.7801 24 27.0201 24.42 26.8301 24.75Z" fill="#040404"/>
</svg>
