<svg width="33" height="21" viewBox="0 0 33 21" fill="none" xmlns="http://www.w3.org/2000/svg">
<path fill-rule="evenodd" clip-rule="evenodd" d="M14.985 4.5C14.985 6.99 12.99 9 10.5 9C8.00998 9 5.99998 6.99 5.99998 4.5C5.99998 2.01 8.00998 0 10.5 0C12.99 0 14.985 2.01 14.985 4.5ZM26.985 4.5C26.985 6.99 24.99 9 22.5 9C20.01 9 18 6.99 18 4.5C18 2.01 20.01 0 22.5 0C24.99 0 26.985 2.01 26.985 4.5ZM10.5 12.0001C7.005 12.0001 0 13.7551 0 17.2501V19.5001C0 20.3251 0.675 21.0001 1.5 21.0001H19.5C20.325 21.0001 21 20.3251 21 19.5001V17.2501C21 13.7551 13.995 12.0001 10.5 12.0001ZM21.045 12.0751C21.57 12.0301 22.065 12.0001 22.5 12.0001C25.995 12.0001 33 13.7551 33 17.2501V19.5001C33 20.3251 32.325 21.0001 31.5 21.0001H23.73C23.895 20.5351 24 20.0251 24 19.5001V17.2501C24 15.0451 22.815 13.3801 21.105 12.1351C21.1005 12.1305 21.0959 12.1246 21.091 12.1181C21.0796 12.1033 21.0659 12.0855 21.045 12.0751Z" fill="#040404"/>
</svg>
