<svg width="790" height="790" viewBox="0 0 790 790" fill="none" xmlns="http://www.w3.org/2000/svg">
<path d="M136.719 682.526H693.627V683.922H136.719V682.526Z" fill="#040404"/>
<path d="M697.857 337.784C679.401 244.594 613.475 167.875 525.025 133.155C324.375 54.5201 123.537 115.064 85.0639 332.096C48.3881 538.899 218.238 465.369 365.899 625.572C494.471 765.076 751.488 639.11 699.151 344.559C698.736 342.281 698.305 340.023 697.857 337.784Z" fill="#FFE5D7"/>
<path d="M158.473 541.644C220.686 566.766 263.691 549.633 314.083 612.092C364.475 674.551 348.853 688.129 253.046 658.228C121.738 617.237 100.448 518.23 158.473 541.644V541.644Z" fill="#E7EBEF"/>
<path d="M346.859 402.031C344.945 402.026 343.11 401.262 341.757 399.907C340.404 398.552 339.643 396.717 339.641 394.802V179.725C339.643 177.244 340.629 174.866 342.382 173.112C344.135 171.357 346.512 170.369 348.992 170.363H644.255C646.735 170.366 649.113 171.352 650.868 173.105C652.623 174.858 653.611 177.235 653.616 179.715V394.802C653.614 396.719 652.851 398.556 651.496 399.911C650.141 401.266 648.304 402.028 646.388 402.031H346.859Z" fill="#FCFBF7"/>
<path d="M644.216 170.837C646.573 170.837 648.833 171.773 650.5 173.44C652.167 175.107 653.103 177.367 653.103 179.725V394.802C653.101 396.593 652.388 398.309 651.122 399.575C649.856 400.842 648.139 401.554 646.349 401.557H346.86C345.07 401.554 343.354 400.841 342.09 399.575C340.825 398.308 340.115 396.592 340.115 394.802V179.725C340.115 177.367 341.051 175.107 342.718 173.44C344.385 171.773 346.645 170.837 349.003 170.837H644.216ZM644.216 169.85H348.953C346.334 169.85 343.822 170.89 341.97 172.742C340.119 174.594 339.078 177.106 339.078 179.725V394.802C339.078 396.843 339.888 398.801 341.331 400.245C342.773 401.689 344.73 402.502 346.771 402.505H646.349C648.391 402.502 650.348 401.69 651.792 400.246C653.236 398.802 654.049 396.844 654.051 394.802V179.725C654.038 177.114 652.992 174.615 651.141 172.774C649.291 170.933 646.787 169.899 644.176 169.899L644.216 169.85Z" fill="#010101"/>
<path d="M393.32 186.825C393.32 185.795 393.626 184.789 394.197 183.933C394.769 183.078 395.582 182.411 396.533 182.017C397.484 181.623 398.53 181.52 399.54 181.721C400.549 181.921 401.477 182.417 402.204 183.145C402.932 183.873 403.428 184.8 403.629 185.809C403.829 186.819 403.726 187.865 403.332 188.816C402.939 189.767 402.272 190.58 401.416 191.152C400.56 191.724 399.554 192.029 398.524 192.029C397.841 192.03 397.163 191.896 396.531 191.635C395.899 191.374 395.325 190.991 394.842 190.508C394.358 190.024 393.975 189.45 393.714 188.818C393.453 188.186 393.319 187.509 393.32 186.825V186.825Z" fill="#C4C4C4"/>
<path d="M373.275 186.825C373.275 185.795 373.581 184.788 374.153 183.932C374.725 183.076 375.539 182.409 376.49 182.016C377.442 181.622 378.489 181.52 379.498 181.721C380.508 181.923 381.436 182.42 382.163 183.148C382.89 183.877 383.385 184.805 383.585 185.816C383.785 186.826 383.68 187.872 383.285 188.823C382.889 189.774 382.221 190.586 381.364 191.157C380.507 191.727 379.499 192.031 378.47 192.029C377.786 192.03 377.11 191.896 376.478 191.635C375.847 191.374 375.273 190.991 374.79 190.507C374.308 190.023 373.925 189.449 373.665 188.817C373.405 188.185 373.273 187.508 373.275 186.825V186.825Z" fill="#F55E00"/>
<path d="M358.463 191.575C357.527 191.575 356.612 191.298 355.835 190.778C355.057 190.258 354.45 189.519 354.092 188.655C353.734 187.791 353.641 186.84 353.823 185.922C354.006 185.005 354.456 184.162 355.118 183.5C355.779 182.839 356.622 182.388 357.54 182.206C358.457 182.023 359.408 182.117 360.273 182.475C361.137 182.833 361.876 183.439 362.395 184.217C362.915 184.995 363.193 185.909 363.193 186.845C363.19 188.099 362.691 189.3 361.804 190.187C360.918 191.073 359.716 191.572 358.463 191.575V191.575Z" fill="#FCFBF7"/>
<path d="M358.462 182.579C359.305 182.577 360.129 182.825 360.83 183.292C361.532 183.759 362.079 184.424 362.402 185.202C362.725 185.98 362.811 186.836 362.647 187.663C362.483 188.489 362.077 189.249 361.481 189.844C360.886 190.44 360.126 190.846 359.3 191.01C358.473 191.174 357.617 191.089 356.838 190.765C356.06 190.442 355.396 189.895 354.929 189.193C354.462 188.492 354.214 187.668 354.216 186.825C354.218 185.7 354.667 184.621 355.462 183.825C356.258 183.03 357.337 182.581 358.462 182.579ZM358.462 181.591C357.432 181.591 356.426 181.897 355.57 182.469C354.714 183.041 354.047 183.855 353.653 184.806C353.259 185.758 353.157 186.805 353.359 187.814C353.56 188.824 354.057 189.751 354.786 190.479C355.514 191.206 356.443 191.701 357.453 191.901C358.463 192.1 359.51 191.996 360.46 191.601C361.411 191.205 362.223 190.537 362.794 189.68C363.364 188.822 363.668 187.815 363.666 186.786C363.667 186.102 363.534 185.425 363.272 184.794C363.011 184.163 362.628 183.589 362.144 183.106C361.66 182.624 361.086 182.241 360.454 181.981C359.822 181.721 359.145 181.589 358.462 181.591Z" fill="#040404"/>
<path d="M629.936 190.38L633.619 186.706L629.936 183.023L631.841 181.127L635.525 184.8L639.198 181.127L641.094 183.023L637.421 186.706L641.094 190.38L639.198 192.286L635.525 188.602L631.841 192.286L629.936 190.38Z" fill="#FCFBF7"/>
<path d="M631.841 181.799L634.803 184.761L635.465 185.433L636.137 184.761L639.099 181.799L640.324 183.023L637.361 185.986L636.69 186.657L637.361 187.329L640.324 190.291L639.198 191.575L636.235 188.612L635.564 187.941L634.902 188.612L631.94 191.575L630.705 190.34L633.668 187.378L634.339 186.706L633.668 186.035L630.705 183.072L631.94 181.848L631.841 181.799ZM639.198 180.456L635.514 184.129L631.841 180.456L629.273 183.023L632.947 186.706L629.273 190.38L631.841 192.957L635.514 189.274L639.198 192.957L641.765 190.38L638.092 186.706L641.765 183.023L639.198 180.456Z" fill="#040404"/>
<path d="M184.484 448.661C209.873 418.048 238.095 433.848 245.284 442.548C310.696 521.676 408.834 537.545 418.541 586.901C423.785 613.563 401.22 680.516 265.874 681.464C124.661 682.451 91.6392 600.736 123.911 548.507C156.182 496.278 159.066 479.293 184.484 448.661V448.661Z" fill="#F55E00"/>
<path d="M251.734 679.133V677.78C274.308 677.78 290.009 662.612 297.159 648.402C304.674 633.53 305.701 613.277 291.096 601.565C280.105 592.747 265.954 591.295 252.267 589.883C231.372 587.73 209.805 585.508 198.113 557.868C179.093 512.69 209.35 438.045 209.617 437.304L211.187 437.729C210.881 438.469 180.841 512.68 199.693 557.434C211 584.284 231.154 586.357 252.484 588.55C266.438 589.991 280.875 591.512 292.271 600.607C305.592 611.292 308.071 630.232 298.699 648.916C291.313 663.521 275.128 679.133 251.734 679.133V679.133Z" fill="#040404"/>
<path d="M365.019 660.637L364.446 659.383C386.29 652.925 395.76 629.393 395.315 610.255C394.93 593.744 387.356 574.231 367.241 568.968C353.09 565.265 342.761 565.146 332.767 565.018C315.012 564.85 299.755 564.613 270.574 543.47C225.801 510.992 225.406 439.566 225.406 438.795H227.124C227.124 439.506 227.519 510.34 271.73 542.414C300.397 563.28 315.407 563.467 332.787 563.675C342.425 563.793 353.356 563.931 367.734 567.694C388.679 573.165 396.569 593.25 396.955 610.225C397.419 629.827 387.613 653.962 365.019 660.637ZM232.062 676.437C220.126 675.334 208.334 673.017 196.867 669.525C185.669 666.228 174.932 661.53 164.912 655.542C155.47 649.883 147.209 642.456 140.58 633.669C134.51 625.424 130.342 615.937 128.374 605.89C127.406 601.013 126.923 596.051 126.933 591.078C126.844 588.609 127.041 586.14 127.15 583.681C127.258 581.223 127.565 578.744 127.969 576.315C129.442 566.441 132.012 556.763 135.632 547.46C139.276 537.983 143.565 528.768 148.47 519.879C153.407 510.903 158.898 502.104 164.714 493.533C159.135 502.242 153.901 511.1 149.211 520.136C144.467 529.06 140.339 538.298 136.857 547.786C135.119 552.476 133.697 557.236 132.374 562.006C131.12 566.77 130.151 571.604 129.47 576.483C129.075 578.902 128.917 581.341 128.69 583.78C128.463 586.219 128.414 588.658 128.513 591.098C128.531 595.99 129.03 600.869 130.004 605.663C131.903 615.555 135.97 624.904 141.913 633.037C148.006 641.43 156.281 648.718 165.731 654.762C175.56 660.812 186.11 665.603 197.134 669.021C208.495 672.671 220.198 675.156 232.062 676.437V676.437Z" fill="#040404"/>
<path d="M359.75 459.425L359.75 459.425H359.736C343.577 459.425 324.548 450.776 312.115 442.632L312.106 442.626L312.097 442.621C309.539 441.043 307.149 439.208 304.963 437.145C304.262 436.362 303.422 434.69 302.627 432.358C301.837 430.039 301.124 427.162 300.645 424.083C299.683 417.89 299.695 411.037 301.794 406.274C302.642 404.357 303.768 402.956 305.138 402.032C306.504 401.11 308.163 400.629 310.137 400.628C311.876 400.66 313.6 400.947 315.256 401.481L315.256 401.481L315.266 401.484C315.796 401.646 316.564 402.025 317.539 402.603C318.5 403.174 319.62 403.914 320.84 404.767C323.28 406.472 326.09 408.607 328.798 410.698L331.39 412.768C331.39 412.768 331.39 412.768 331.39 412.768C331.863 413.146 332.336 413.523 332.807 413.899C334.393 415.165 335.959 416.414 337.449 417.623L337.449 417.623L337.456 417.629C339.514 419.259 342.649 421.585 345.462 423.506C346.867 424.466 348.203 425.332 349.29 425.961C349.832 426.275 350.325 426.537 350.741 426.723C351.119 426.892 351.548 427.054 351.915 427.054H351.951L351.988 427.05C352.669 426.983 353.267 426.557 353.783 426.01C354.312 425.449 354.843 424.667 355.384 423.697C356.468 421.755 357.662 418.934 358.99 415.294C361.648 408.008 364.886 397.309 368.879 383.487C368.879 383.487 368.879 383.487 368.88 383.486L369.055 382.881C369.978 379.699 370.799 376.866 371.276 375.355C372.4 375.612 374.108 375.99 375.901 376.33C377.81 376.692 379.863 377.021 381.413 377.105C382.103 381.595 383.896 398.421 384.093 415.468C384.196 424.432 383.858 433.422 382.696 440.693C382.114 444.329 381.331 447.508 380.309 450.029C379.281 452.562 378.045 454.347 376.61 455.305L376.598 455.313L376.585 455.322C376.13 455.654 375.643 455.94 375.132 456.176L375.131 456.177C370.317 458.414 365.057 459.525 359.75 459.425Z" fill="#FFE5D7" stroke="#040404" stroke-width="1.5"/>
<path d="M371.301 375.398C374.63 376.216 378.012 376.8 381.423 377.146C383.111 387.021 388.542 447.347 376.554 455.326C376.098 455.654 375.612 455.938 375.103 456.175C370.296 458.406 365.045 459.514 359.747 459.414C343.552 459.414 324.543 450.734 312.149 442.627C309.595 441.05 307.207 439.221 305.02 437.166C301.939 433.789 297.653 415.777 301.83 406.307C303.499 402.515 306.224 400.678 310.155 400.678C311.888 400.712 313.607 400.995 315.26 401.517C317.956 402.357 325.55 408.242 328.779 410.731L331.169 412.636C333.302 414.335 335.445 416.043 337.459 417.673C337.578 417.771 349.546 427.103 351.926 427.103H352.104C355.066 426.807 358.325 420.191 368.891 383.535C369.879 380.227 370.767 377.047 371.281 375.418L371.301 375.398ZM370.313 373.561C369.464 374.489 356.488 425.079 351.936 425.533C350.948 425.533 343.72 420.596 338.437 416.448C335.682 414.216 332.66 411.827 329.766 409.536C323.841 404.954 318.272 400.836 315.734 400.046C313.932 399.473 312.056 399.163 310.165 399.127C292.39 399.127 298.986 432.86 303.884 438.223C306.153 440.378 308.638 442.294 311.3 443.94C322.024 450.961 341.834 460.984 359.757 460.984C365.291 461.088 370.777 459.926 375.794 457.587C376.385 457.316 376.948 456.985 377.473 456.6C391.742 447.1 383.17 375.625 382.677 375.625C382.496 375.636 382.314 375.636 382.134 375.625C378.638 375.625 370.333 373.581 370.333 373.581L370.313 373.561Z" fill="#FFE5D7"/>
<path d="M280.453 425.915L280.064 426.007L280.453 425.915C280.214 424.904 279.667 423.602 278.942 422.116C278.214 420.623 277.293 418.916 276.293 417.09C276.072 416.686 275.848 416.277 275.62 415.862C273.783 412.516 271.765 408.84 270.17 405.31C268.37 401.328 267.145 397.604 267.284 394.787C267.352 393.392 267.754 392.253 268.555 391.408C269.357 390.562 270.605 389.963 272.459 389.739L272.459 389.739C290.029 387.61 307.796 389.717 326.415 405.62C330.492 428.099 326.358 445.801 314.541 453.684C310.603 450.038 304.983 446.389 299.449 442.796C297.769 441.705 296.096 440.619 294.482 439.541C290.949 437.18 287.687 434.851 285.178 432.558C282.659 430.256 280.955 428.04 280.453 425.915Z" fill="#FCFBF7" stroke="#040404" stroke-width="0.8"/>
<path d="M375.31 381.916C373.668 381.814 372.096 381.211 370.807 380.188C369.997 379.269 370.274 377.472 370.491 376.03C370.54 375.704 370.59 375.398 370.619 375.122C370.679 374.569 370.768 374.016 370.847 373.463C371.174 371.682 371.283 369.868 371.172 368.061C370.583 365.602 369.527 363.279 368.062 361.218C367.845 360.902 367.588 360.546 367.292 360.181C365.929 358.384 365.03 357.031 365.968 355.856C366.188 355.586 366.468 355.372 366.785 355.229C367.102 355.087 367.448 355.021 367.795 355.036C369.038 355.111 370.222 355.593 371.163 356.409C371.29 356.525 371.406 356.654 371.508 356.794L372.545 357.919L373.049 356.932C373.118 356.804 373.177 356.665 373.236 356.537C373.293 356.387 373.363 356.241 373.444 356.102C373.998 353.512 375.03 351.048 376.485 348.834C377.897 346.859 381.235 343.897 383.901 343.897C384.597 343.884 385.273 344.131 385.797 344.588C385.947 344.714 386.064 344.874 386.138 345.054C386.211 345.235 386.24 345.431 386.222 345.625C386.199 345.784 386.135 345.934 386.037 346.061C385.938 346.187 385.808 346.285 385.659 346.346C383.036 347.511 380.663 349.171 378.668 351.234L377.374 352.646L379.349 352.528C380.061 352.507 380.765 352.685 381.381 353.043C381.996 353.401 382.5 353.923 382.835 354.552C383.058 354.967 383.218 355.413 383.309 355.875L383.398 356.3L383.812 356.448C384.008 356.498 384.192 356.587 384.353 356.709C384.514 356.831 384.649 356.984 384.751 357.159C384.939 357.521 385.027 357.927 385.007 358.334V359.154H385.827C385.987 359.144 386.147 359.168 386.296 359.224C386.446 359.28 386.582 359.367 386.696 359.48C386.771 359.573 386.825 359.681 386.854 359.797C386.883 359.913 386.887 360.034 386.864 360.151C386.553 362.551 385.571 364.813 384.03 366.679L383.812 366.945L383.872 367.301C383.966 367.836 384.016 368.377 384.02 368.92C383.82 371.498 382.907 373.97 381.383 376.06C380.753 377.375 379.96 378.606 379.023 379.723C377.986 380.899 376.939 381.965 375.508 381.965L375.31 381.916Z" fill="#FFE5D7"/>
<path d="M374.547 356.132C374.709 355.339 374.922 354.559 375.184 353.796L375.522 353.774L379.356 353.528H379.524C380.02 353.535 380.505 353.679 380.926 353.944C381.347 354.208 381.687 354.584 381.909 355.029L381.909 355.029L381.911 355.034C382.082 355.356 382.203 355.702 382.272 356.06L382.272 356.06L382.273 356.064L382.451 356.914L382.479 357.051L382.611 357.098L383.441 357.394L383.442 357.395C383.61 357.453 383.696 357.504 383.742 357.54C383.78 357.57 383.798 357.595 383.816 357.628C383.914 357.835 383.959 358.063 383.947 358.291L383.946 358.306L383.947 358.32L384.046 359.88L384.061 360.114H384.295H385.794C385.484 362.265 384.588 364.289 383.204 365.966L383.203 365.967L382.759 366.51L382.687 366.598L382.706 366.711L382.824 367.402L382.825 367.404C382.911 367.882 382.956 368.366 382.959 368.851C382.959 371.357 381.637 373.651 380.491 375.439L380.433 375.526L380.391 375.589V375.664V375.696C379.808 376.894 379.079 378.016 378.22 379.037C377.122 380.283 376.362 380.921 375.366 380.925C373.994 380.84 372.678 380.354 371.579 379.529C371.485 379.417 371.412 379.248 371.365 379.018C371.317 378.779 371.301 378.494 371.309 378.18C371.324 377.551 371.433 376.846 371.527 376.236L371.527 376.234C371.535 376.181 371.543 376.129 371.551 376.077C371.591 375.801 371.631 375.534 371.657 375.288C371.725 374.74 371.804 374.192 371.882 373.641C372.231 371.736 372.335 369.795 372.191 367.864L372.189 367.844L372.184 367.824C371.562 365.264 370.457 362.847 368.929 360.701C368.706 360.357 368.425 359.986 368.131 359.604C367.462 358.727 367.012 358.076 366.791 357.569C366.682 357.318 366.637 357.119 366.641 356.958C366.644 356.803 366.692 356.671 366.794 356.546L366.794 356.545C366.914 356.396 367.068 356.278 367.244 356.203C367.42 356.128 367.612 356.097 367.802 356.114L367.802 356.114L367.807 356.114C368.806 356.183 369.755 356.577 370.51 357.235C370.591 357.312 370.665 357.398 370.73 357.49L370.738 357.501L370.747 357.512L371.053 357.858L371.053 357.858L371.058 357.862L372.569 359.482L372.814 359.745L372.975 359.423L373.962 357.448L373.963 357.448L373.965 357.442L373.966 357.441L373.966 357.441L373.967 357.438C374.035 357.292 374.107 357.139 374.168 356.985L374.168 356.985L374.169 356.982C374.206 356.887 374.252 356.795 374.306 356.708L374.307 356.708L374.31 356.702L374.449 356.465L374.465 356.436L374.474 356.404L374.543 356.147L374.545 356.14L374.547 356.132ZM377.909 350.512L375.355 353.319C375.86 351.971 376.519 350.682 377.322 349.479C377.972 348.556 379.082 347.416 380.308 346.507C381.544 345.59 382.849 344.946 383.89 344.946H384.102L384.111 344.895C384.482 344.93 384.835 345.081 385.118 345.329L385.118 345.329L385.129 345.338C385.153 345.357 385.173 345.381 385.187 345.408C385.188 345.409 385.188 345.41 385.188 345.411C382.456 346.621 379.985 348.352 377.913 350.507L377.913 350.507L377.909 350.512Z" stroke="black" stroke-width="0.5"/>
<path d="M371.508 373.897C371.508 373.897 369.76 380.81 368.832 383.624C367.903 386.438 378.756 385.905 378.756 385.905L381.62 378.657C381.657 376.787 381.802 374.921 382.054 373.068C382.449 370.589 375.497 366.599 374.964 368.407C374.431 370.214 371.508 373.897 371.508 373.897Z" fill="#FFE5D7"/>
<path d="M304.753 446.755L305.622 438.173C305.622 438.173 314.667 425.474 308.1 414.75C301.533 404.025 283.6 419.371 283.6 419.371L290.74 438.381L304.753 446.755ZM198.715 544.922C207.01 551.202 215.502 557.197 224.39 562.697C242.392 573.974 263.07 585.884 284.825 586.97C294.631 587.464 301.81 580.393 309.433 575.12C320 567.753 330.474 560.261 340.856 552.644C350.474 545.574 360.438 538.711 369.226 530.613C374.342 525.962 380.583 520.55 379.526 513.223C389.075 512.315 387.209 518.042 396.827 520.442C399.167 521.044 390.635 504.03 388.265 503.417C369.503 498.766 368.101 502.884 352.202 510.113C332.452 519.129 311.211 517.697 289.515 516.156C275.69 515.169 261.786 513.638 247.882 512.473C247.785 512.15 247.585 511.868 247.312 511.67C247.039 511.472 246.709 511.369 246.372 511.377C239.652 512.011 232.893 512.114 226.157 511.683C221.022 511.357 216.124 510.784 211.345 510.063C209.696 513.569 201.035 532.262 198.715 544.922Z" fill="#010101"/>
<path d="M211.227 510.32C211.227 510.547 210.239 512.295 210.328 512.493C211.523 525.044 229.041 527.562 238.59 527.75C242.609 527.858 246.668 527.829 250.687 527.75C266.438 530.712 283.275 532.332 298.936 528.382C299.336 528.304 299.701 528.098 299.974 527.796C300.248 527.494 300.416 527.111 300.454 526.705C300.492 526.299 300.397 525.892 300.184 525.544C299.971 525.197 299.651 524.928 299.272 524.777C289.92 520.827 278.199 522.22 267.484 523.158C263.289 522.594 259.136 521.752 255.052 520.64C246.707 518.309 238.768 514.853 230.364 512.937C228.94 512.616 227.536 512.213 226.158 511.732C219.68 511.288 210.624 509.906 211.227 510.32V510.32Z" fill="#040404"/>
<path d="M330.356 516.42C302.32 528.527 272.823 526.939 250.242 522.279C229.562 518.01 214.721 511.174 212.153 509.953C212.58 509.179 213.501 507.58 214.711 505.478C216.076 503.108 217.809 500.099 219.617 496.912C223.337 490.358 227.372 483.062 229.11 479.149L229.11 479.149L229.114 479.139C230.842 474.946 231.904 470.508 232.264 465.987C232.921 459.288 232.895 452.54 232.184 445.846C232.001 443.885 231.793 442.303 231.662 441.309C231.63 441.063 231.602 440.852 231.581 440.682L231.574 440.627L231.552 440.576C231.527 440.515 231.51 440.451 231.502 440.386L231.5 440.371L231.497 440.356C230.947 437.618 230.319 434.818 229.688 432.003L229.622 431.711C228.968 428.795 228.313 425.864 227.737 422.956C226.584 417.139 225.75 411.44 225.872 406.199C225.994 400.96 227.07 396.206 229.711 392.258C232.348 388.315 236.574 385.135 243.073 383.088C246.785 381.954 250.61 381.231 254.48 380.932L254.482 380.932C259.982 380.473 265.509 380.432 271.015 380.81C276.835 382.933 282.527 385.393 288.061 388.178C291.165 389.755 294.461 391.546 297.607 393.531L297.608 393.532C306.889 399.339 308.953 411.071 308.619 419.148L308.619 419.148C308.564 420.497 308.12 422.258 307.436 424.201C306.754 426.137 305.845 428.225 304.882 430.219C302.952 434.217 300.825 437.795 299.912 438.987L299.809 439.122L299.834 439.29C301.877 452.707 308.478 470.158 315.098 485.199C321.516 499.781 327.97 512.135 330.356 516.42Z" fill="#FCFBF7" stroke="#040404" stroke-width="0.8"/>
<path d="M276.35 383.15V383.218L276.384 383.277L276.481 383.441C276.818 384.058 277.177 384.898 277.402 385.687C277.515 386.082 277.592 386.458 277.617 386.781C277.642 387.109 277.613 387.355 277.539 387.515C277.508 387.577 277.462 387.63 277.404 387.669C277.346 387.709 277.279 387.733 277.209 387.74L277.197 387.741L277.185 387.743C276.868 387.803 276.546 387.835 276.223 387.837C274.966 387.837 273.595 387.425 272.213 386.77C270.834 386.116 269.46 385.229 268.203 384.296C265.776 382.495 263.806 380.54 263.104 379.819V367.517L276.35 373.007V383.15Z" fill="#FFE5D7" stroke="black" stroke-width="0.5"/>
<path d="M266.139 370.284L266.139 370.284L266.133 370.28C260.823 366.327 258.094 360.938 256.701 356.174C255.361 351.596 255.259 347.609 255.279 346.063L278.115 338.552C279.686 341.575 285.431 352.904 287.664 361.684C288.152 363.608 287.453 366.077 285.734 368.302C284.476 369.913 282.87 371.218 281.037 372.121C279.204 373.024 277.192 373.502 275.149 373.518C271.873 373.454 268.708 372.318 266.139 370.284Z" fill="#FFE5D7" stroke="black" stroke-width="0.5"/>
<path d="M234.847 337.962C236.091 332.382 239.883 328.788 245.709 328.423C248.03 328.284 250.528 328.758 252.039 330.674C252.828 331.763 253.287 333.055 253.362 334.397C260.216 329.084 290.611 319.436 287.253 345.566C279.956 337.142 267.049 341.072 263.958 348.696C263.974 350.168 264.146 351.635 264.472 353.071C265.351 357.584 266.17 361.504 264.551 366.007C262.428 371.932 256.977 372.919 253.688 369.029C251.466 366.372 248.928 360.714 247.447 355.154C244.771 357.386 240.535 358.166 237.572 356.24C232.487 352.873 233.751 342.929 234.847 337.962Z" fill="#010101"/>
<path d="M265.638 354.098C265.638 354.098 260.888 352.528 260.414 356.251C259.94 359.973 263.485 361.721 265.144 360.852C266.803 359.983 266.912 355.5 265.638 354.098V354.098Z" fill="#FFE5D7"/>
<path d="M287.699 442.834C279.394 449.154 267.603 449.233 257.975 452.907C249.522 456.185 240.763 463.997 231.866 465.952C232.521 459.278 232.495 452.554 231.787 445.886C231.708 444.155 231.507 442.433 231.184 440.731C231.184 440.622 225.832 426.61 229.96 422.778C240.822 412.479 249.957 402.505 249.957 402.505C251.995 413.27 250.206 424.41 244.901 433.996C242.995 437.413 240.763 440.474 242.718 446.547C242.718 446.696 242.837 446.814 242.837 447.002C242.57 451.129 263.377 442.578 266.418 441.788C273.095 439.877 280.041 439.076 286.978 439.418C288.716 439.536 288.904 441.936 287.699 442.834ZM247.142 576.068C261.54 581.005 265.5 575.08 280.717 576.068C292.854 576.808 300.773 566.479 309.355 559.182C321.926 548.517 334.042 537.17 348.578 529.251C353.259 526.703 366.798 521.054 366.521 514.31C366.205 506.597 355.125 513.381 352.607 514.932C347.295 518.191 342.801 522.595 337.795 526.337C331.08 531.393 323.644 525.073 315.931 528.372C302.373 534.158 288.114 528.135 274.131 532.786C269.401 534.356 264.394 532.559 259.397 533.023C255.99 533.339 252.741 532.401 249.384 532.213C246.026 532.025 238.976 528.51 236.082 530.682C235.45 531.166 238.255 560.209 238.62 560.91C238.846 561.342 239.117 561.75 239.43 562.124C238.344 562.322 237.248 562.529 236.171 562.707C234.325 563.013 245.365 575.456 247.142 576.068Z" fill="#040404"/>
<path d="M238.57 605.051C237.874 605.006 237.197 604.805 236.588 604.463C235.98 604.121 235.456 603.647 235.055 603.076C230.907 598.198 229.555 586.397 230.117 582.921C230.611 579.86 231.895 579.366 234.759 579.366H236.21C238.912 579.263 241.579 578.726 244.11 577.776C246.386 576.907 248.787 576.407 251.22 576.295C251.985 576.295 252.749 576.364 253.501 576.502C256.705 577.189 259.964 577.582 263.238 577.677C264.643 577.676 266.046 577.57 267.435 577.361C267.909 577.292 268.423 577.154 269.005 577.016C269.859 576.76 270.741 576.607 271.632 576.562C271.968 576.559 272.303 576.615 272.619 576.729C276.046 578.063 277.991 583.8 277.646 587.029C277.644 587.098 277.617 587.165 277.569 587.216C277.522 587.266 277.458 587.298 277.389 587.306L276.955 587.385L276.806 587.799C272.086 588.668 268.363 591.384 264.759 594.011C262.472 595.8 260.007 597.349 257.402 598.632C254.662 599.84 251.793 600.731 248.85 601.289C248.327 601.397 247.784 601.476 247.231 601.555C245.587 601.718 243.979 602.145 242.471 602.819C242.204 602.985 241.947 603.166 241.701 603.362C240.932 604.003 240.09 604.55 239.193 604.992C238.984 605.031 238.773 605.051 238.561 605.051H238.57Z" fill="#FFE5D7"/>
<path d="M251.19 577.144C251.909 577.141 252.627 577.207 253.333 577.342C256.582 578.034 259.887 578.431 263.208 578.527C264.653 578.527 266.095 578.418 267.523 578.201C268.017 578.122 268.58 577.983 269.163 577.845C269.956 577.606 270.775 577.461 271.602 577.411C271.853 577.405 272.103 577.442 272.342 577.519C275.186 578.625 277.053 583.691 276.895 586.683L276.371 586.782L276.174 587.325C271.621 588.115 267.899 590.831 264.324 593.448C262.088 595.212 259.672 596.735 257.115 597.99C254.429 599.152 251.62 600.003 248.741 600.528C248.228 600.627 247.694 600.706 247.161 600.785C245.435 600.958 243.747 601.408 242.164 602.118C241.848 602.304 241.547 602.515 241.266 602.75C240.591 603.3 239.87 603.792 239.113 604.221C238.942 604.235 238.77 604.235 238.599 604.221C238.014 604.184 237.445 604.016 236.932 603.731C236.42 603.445 235.977 603.05 235.637 602.572C231.786 598.04 230.304 586.525 230.877 583.039C231.292 580.502 232.072 580.136 234.748 580.136H236.16C238.935 580.03 241.675 579.484 244.278 578.517C246.49 577.671 248.824 577.185 251.19 577.075V577.144ZM251.19 575.584C245.887 575.584 241.72 578.655 236.21 578.655H234.758C231.796 578.655 229.949 579.149 229.347 582.852C228.566 587.671 231.203 605.841 238.57 605.841C238.824 605.84 239.079 605.821 239.33 605.782C240.249 605.633 242.51 603.698 242.836 603.53C244.702 602.543 246.993 602.464 249.008 602.078C252.008 601.519 254.936 600.624 257.737 599.412C264.324 596.45 269.498 589.932 276.737 588.806C276.923 588.784 277.099 588.709 277.244 588.59C277.389 588.471 277.498 588.313 277.556 588.135C277.799 588.108 278.023 587.992 278.185 587.81C278.348 587.628 278.437 587.392 278.435 587.147C278.83 583.583 276.658 577.49 272.915 576.038C272.501 575.885 272.062 575.811 271.621 575.821C270.164 575.98 268.722 576.251 267.306 576.631C265.956 576.836 264.593 576.939 263.228 576.937C260 576.845 256.787 576.458 253.629 575.781C252.832 575.63 252.022 575.554 251.21 575.554L251.19 575.584Z" fill="#040404"/>
<path d="M272.718 585.133C273.739 586.797 275.038 588.274 276.559 589.498C281.033 592.46 362.472 572.622 372.969 565.995C381.965 560.327 392.087 554.54 397.459 544.962C400.869 538.732 402.25 531.593 401.409 524.54C401.133 521.968 400.583 519.432 399.77 516.976C397.261 509.451 395.02 505.027 386.646 502.983C377.245 500.702 365.444 504.277 356.794 507.822C345.546 512.473 335.552 519.593 326.388 527.483C316.78 535.729 276.194 566.193 267.84 575.87C268.6 580.225 269.795 581.213 272.718 585.133V585.133ZM240.999 577.786C240.999 577.786 246.115 576.601 246.134 576.611C250.084 578.586 251.003 583.395 249.67 588.293C248.968 590.89 246.974 593.033 245.858 595.462C244.347 598.731 243.093 601.723 240.92 604.617C239.864 606.009 237.958 604.261 238.945 602.879C243.685 595.907 242.589 587.602 240.92 579.83C240.515 578.369 240.298 576.809 240.999 577.786V577.786Z" fill="#040404"/>
<path d="M272.719 585.133C273.74 586.797 275.039 588.273 276.56 589.498C281.033 592.46 362.473 572.621 372.97 565.995C381.966 560.327 392.088 554.54 397.46 544.962C400.87 538.731 402.251 531.592 401.41 524.54C394.497 532.045 387.279 539.412 379.072 545.554C367.815 554.027 354.553 559.182 341.301 563.606C329.954 567.378 318.381 569.392 306.659 571.506C296.646 573.382 286.484 575.732 277.646 580.995C275.786 582.093 274.121 583.491 272.719 585.133V585.133Z" fill="#040404"/>
<path d="M221.911 689.008C213.458 689.008 207.948 687.389 207.533 684.772C207.734 684.123 208.009 683.5 208.353 682.915C208.49 682.691 208.602 682.453 208.689 682.204C208.921 680.943 208.881 679.647 208.57 678.403C208.501 677.988 208.422 677.583 208.382 677.198C208.082 675.033 208.112 672.836 208.471 670.68C208.974 668.608 209.758 666.614 210.802 664.755C212.332 661.694 213.903 658.534 213.3 655.019L213.804 654.782L213.715 654.367C214.695 654.217 215.686 654.141 216.677 654.14C219.64 654.14 223.531 654.93 225.18 656.648C225.692 657.394 225.933 658.293 225.861 659.196C225.87 659.612 225.906 660.028 225.97 660.44C226.651 664.291 228.527 667.214 230.69 670.591C232.211 672.961 232.132 675.154 232.053 677.504C231.824 679.674 232.101 681.868 232.863 683.913C233.386 685.197 233.771 686.224 233.455 686.875C233.139 687.527 232.468 687.863 231.174 688.208C228.136 688.85 225.035 689.139 221.931 689.068L221.911 689.008Z" fill="#FFE5D7"/>
<path d="M216.657 654.89C220.005 654.89 223.343 655.877 224.557 657.161C224.921 657.778 225.083 658.492 225.022 659.205C225.036 659.652 225.078 660.097 225.15 660.539C225.861 664.558 227.856 667.678 229.979 670.986C231.361 673.149 231.292 675.124 231.213 677.415C230.991 679.697 231.288 681.999 232.082 684.15C232.359 684.831 232.882 686.125 232.694 686.48C232.694 686.559 232.398 686.964 230.897 687.398C227.931 688.023 224.902 688.301 221.871 688.228C213.152 688.228 208.767 686.47 208.283 684.782C208.488 684.265 208.729 683.763 209.004 683.281C209.167 683.002 209.299 682.708 209.399 682.402C209.665 681.032 209.632 679.62 209.301 678.264C209.231 677.869 209.152 677.484 209.113 677.099C208.823 675.013 208.853 672.895 209.202 670.818C209.687 668.811 210.448 666.88 211.463 665.081C212.935 662.119 214.426 659.038 214.129 655.581L214.574 655.364V655.038C215.263 654.934 215.96 654.885 216.657 654.89V654.89ZM216.657 653.33C215.635 653.316 214.614 653.422 213.616 653.646C213.093 653.774 212.905 654.1 212.944 654.426C212.804 654.475 212.685 654.572 212.609 654.701C212.533 654.829 212.505 654.98 212.53 655.127C213.468 660.578 208.659 665.308 207.711 670.542C207.334 672.772 207.297 675.046 207.602 677.286C207.79 678.817 208.333 680.506 207.938 682.007C207.869 682.264 206.654 684.209 206.763 684.89C207.365 688.653 215.107 689.828 221.911 689.828C225.088 689.894 228.262 689.596 231.371 688.939C235.124 687.853 234.62 686.164 233.554 683.597C231.579 678.857 234.334 674.877 231.332 670.186C229.189 666.839 227.382 663.995 226.72 660.311C226.503 659.087 226.819 657.26 225.733 656.124C223.935 654.248 219.956 653.369 216.667 653.369L216.657 653.33Z" fill="#010101"/>
<path d="M231.074 679.904C229.731 677.247 227.539 674.512 223.332 674.798C221.101 674.956 219.155 675.954 217.032 676.388C214.294 676.836 211.603 677.537 208.994 678.482C207.75 678.995 209.083 680.368 210.307 679.933C216.499 677.751 223.401 679.341 229.8 681.237C230.976 681.553 231.825 680.447 231.074 679.904V679.904ZM213.526 658.514C214.948 659.29 216.508 659.78 218.118 659.956C220.442 660.331 222.797 660.48 225.149 660.4C226.463 660.331 227.312 660.134 227.411 659.828C231.45 648.61 240.979 601.101 243.556 589.409C246.025 578.211 247.635 566.697 246.973 555.064C246.45 546.176 244.791 534.553 239.715 527.473C238.79 526.152 237.632 525.011 236.298 524.106C232.18 521.301 227.124 521.617 222.187 522.387C220.073 522.733 218.007 523.33 216.035 524.165C210.323 526.612 205.554 530.837 202.437 536.212C197.351 544.863 196.759 555.962 195.86 566.055C194.803 577.845 209.725 655.937 213.526 658.514V658.514Z" fill="#040404"/>
<path d="M225.15 660.39C226.464 660.321 227.313 660.124 227.412 659.818C231.451 648.6 240.98 601.091 243.557 589.399C246.026 578.201 247.636 566.687 246.974 555.054C246.451 546.166 244.792 534.543 239.716 527.463C238.791 526.142 237.633 525.001 236.299 524.096C236.388 524.728 239.677 551.677 237.652 565.847C235.628 580.176 223.58 652.036 225.15 660.39V660.39Z" fill="#010101"/>
<path d="M243.912 351.678C247.626 346.172 250.065 339.908 251.052 333.34C251.417 330.941 255.081 331.8 254.715 334.18C253.678 341.074 251.121 347.651 247.23 353.436C245.887 355.431 242.579 353.693 243.912 351.678V351.678Z" fill="#F55E00"/>
<path d="M278.604 491.99L278.277 492.209L278.589 492.439L278.921 492.651C279.061 492.732 279.194 492.825 279.318 492.93C281.822 493.894 284.125 495.316 286.108 497.123L286.114 497.128L286.12 497.134C286.954 497.942 287.959 499.243 288.744 500.674C289.521 502.089 290.124 503.705 290.074 505.14C290.082 505.628 289.983 506.111 289.785 506.557C289.584 507.006 289.286 507.406 288.912 507.727M278.604 491.99L287.717 507.575L287.721 507.711L287.73 508.075C287.644 508.077 287.559 508.072 287.476 508.059L287.563 508.159L287.796 508.154C288.206 508.146 288.601 507.995 288.912 507.727M278.604 491.99L278.939 491.789L278.949 491.783L278.959 491.776C278.987 491.757 279.025 491.734 279.067 491.707C279.177 491.637 279.322 491.546 279.435 491.457L279.441 491.452L279.447 491.448C280.567 490.51 281.307 489.196 281.526 487.752L281.528 487.738L281.529 487.724C281.564 487.353 281.521 486.979 281.401 486.627C281.283 486.278 281.093 485.958 280.843 485.687C280.642 485.45 280.391 485.261 280.108 485.133C279.821 485.003 279.509 484.939 279.195 484.945L279.164 484.946L279.134 484.95C277.923 485.124 276.764 485.561 275.74 486.229L275.729 486.235C275.332 486.448 274.969 486.643 274.636 486.8L274.636 486.8L274.629 486.804C272.435 487.884 270.054 488.536 267.616 488.726C265.876 488.561 264.163 488.187 262.513 487.61L262.503 487.606L262.493 487.603L260.864 487.11L260.854 487.107L260.844 487.104C260.592 487.039 260.311 486.954 260.02 486.851C259.024 486.484 257.98 486.262 256.921 486.191L256.921 486.19L256.912 486.19C256.384 486.164 255.86 486.295 255.406 486.566L255.4 486.57L255.393 486.574C254.79 486.961 254.224 487.738 253.781 488.54C253.328 489.359 252.956 490.291 252.776 491.07C252.575 491.939 252.76 492.733 253.116 493.453C253.466 494.162 253.996 494.827 254.519 495.453L254.518 495.453L254.526 495.462C255.507 496.581 256.621 497.575 257.845 498.422C259.549 499.898 261.838 501.744 264.714 502.232L264.721 502.233L264.728 502.234C265.289 502.312 265.855 502.347 266.421 502.338H266.553L266.639 502.43C268.307 504.303 270.465 505.673 272.87 506.385C273.012 506.428 273.158 506.451 273.306 506.455L273.345 506.456L273.384 506.451C273.729 506.407 274.048 506.242 274.284 505.987C274.518 505.734 274.656 505.409 274.677 505.066L274.704 504.795L274.989 504.84L275.007 504.843L275.026 504.844C275.214 504.86 275.402 504.86 275.59 504.846C275.872 504.845 276.151 504.8 276.419 504.712L276.434 504.707L276.448 504.701C276.943 504.503 277.343 504.124 277.569 503.641M288.912 507.727L288.587 507.349L288.912 507.727C288.912 507.727 288.912 507.727 288.912 507.727Z" fill="#FFE5D7" stroke="#040404"/>
<path d="M164.023 479.161L164.022 479.16C158.028 475.033 155.165 468.348 155.661 459.953L164.023 479.161ZM164.023 479.161C174.817 486.575 189.295 491.922 203.401 495.417C217.512 498.914 231.319 500.573 240.811 500.573C242.085 500.573 243.304 500.543 244.438 500.473M164.023 479.161L231.343 478.22M195.198 404.736L195.303 404.676C197.613 403.371 200.2 402.634 202.85 402.526L202.866 402.525H202.881C207.705 402.525 210.996 405.662 213.173 409.256C215.352 412.854 216.514 417.058 217.063 419.556C217.063 419.556 217.063 419.556 217.063 419.556L216.331 419.717C218.306 428.684 217.318 435.705 216.331 436.139L195.198 404.736ZM195.198 404.736L195.117 404.825M195.198 404.736L195.117 404.825M195.117 404.825L195.09 404.855M195.117 404.825L195.09 404.855M231.343 478.22L231.347 478.222C240.082 480.951 248.759 483.362 254.93 485.077C255.447 485.22 255.946 485.359 256.427 485.493C259.689 486.399 262.606 487.213 263.894 487.612L264.684 487.857L264.363 488.62C262.534 492.966 260.491 497.633 259.806 498.881L259.618 499.223L259.23 499.265C257.597 499.443 250.848 500.146 244.438 500.473M231.343 478.22C218.462 474.272 208.69 470.809 202.363 467.812L231.343 478.22ZM244.438 500.473C244.437 500.473 244.435 500.473 244.434 500.473L244.396 499.725L244.442 500.473C244.441 500.473 244.439 500.473 244.438 500.473ZM195.09 404.855L195.073 404.865C184.931 410.219 175.373 419.183 168.211 429.18C161.05 439.175 156.225 450.286 155.661 459.953L195.09 404.855ZM236.949 384.733L236.949 384.733L236.94 384.738L234.451 386.23L234.002 386.499L234.1 387.013L234.837 386.873C234.1 387.013 234.1 387.013 234.1 387.013L234.1 387.013L234.1 387.014L234.101 387.019L234.104 387.035L234.116 387.1L234.163 387.346C234.204 387.557 234.262 387.86 234.333 388.226C234.474 388.956 234.665 389.936 234.865 390.933C235.065 391.929 235.274 392.946 235.45 393.749C235.537 394.15 235.618 394.502 235.686 394.774C235.72 394.91 235.753 395.031 235.782 395.131C235.807 395.214 235.844 395.334 235.894 395.434C235.984 395.614 236.376 396.234 236.859 396.986C237.361 397.768 238.004 398.759 238.638 399.732C239.273 400.706 239.899 401.662 240.366 402.375C240.599 402.732 240.793 403.028 240.929 403.234L241.086 403.474L241.128 403.537L241.138 403.553L241.141 403.557L241.142 403.558L241.142 403.559C241.142 403.559 241.142 403.559 241.769 403.147L241.142 403.559L241.17 403.601L241.203 403.639L246.921 410.206L247.188 410.513L247.59 410.457L247.486 409.714C247.59 410.457 247.591 410.456 247.591 410.456L247.591 410.456L247.592 410.456L247.594 410.456L247.601 410.455L247.626 410.451C247.647 410.448 247.678 410.443 247.716 410.437C247.792 410.425 247.9 410.407 248.03 410.382C248.29 410.334 248.646 410.259 249.024 410.156C249.399 410.054 249.816 409.918 250.189 409.742C250.399 409.643 250.632 409.515 250.841 409.348L251.049 410.111L251.938 409.416L255.335 406.759L255.653 406.511L255.621 406.109L254.633 393.765L254.631 393.744L254.629 393.724L253.552 385.824L253.47 385.224L252.867 385.177L252.809 385.925C252.867 385.177 252.867 385.177 252.866 385.177L252.866 385.177L252.864 385.177L252.856 385.176L252.824 385.174L252.702 385.165C252.596 385.157 252.439 385.145 252.239 385.13C251.84 385.101 251.269 385.059 250.581 385.011C249.204 384.915 247.357 384.794 245.479 384.69C243.602 384.586 241.686 384.499 240.173 384.475C239.418 384.463 238.752 384.466 238.237 384.492C237.98 384.504 237.748 384.523 237.554 384.551C237.396 384.574 237.149 384.617 236.949 384.733Z" fill="#FFE5D7" stroke="#040404" stroke-width="1.5"/>
<path d="M202.882 404.055C207.168 404.055 210.644 406.929 213.221 412.587C217.418 421.85 217.092 433.769 215.878 435.477C214.059 436.281 212.312 437.235 210.654 438.331C201.984 443.822 189.63 455.02 188.929 458.941C188.861 459.249 188.858 459.568 188.921 459.878C188.984 460.187 189.111 460.48 189.294 460.738C190.815 462.772 197.599 467.226 201.747 469.201C208.165 472.222 217.981 475.758 230.927 479.688C240.417 482.65 249.808 485.238 256.029 486.966C258.735 487.716 261.194 488.398 262.665 488.832C261.066 492.604 259.397 496.396 258.715 497.799C256.573 498.026 250.351 498.658 244.426 498.964C243.314 499.023 242.129 499.053 240.871 499.053C222.109 499.053 186.193 492.486 164.952 477.901C159.373 474.059 156.776 468.026 157.25 460.047C158.336 441.333 176.012 416.676 195.871 406.198L196.128 406.06L196.217 406.01C198.259 404.844 200.552 404.186 202.902 404.095L202.882 404.055ZM202.882 402.505C200.257 402.588 197.693 403.317 195.417 404.628C195.298 404.707 195.16 404.737 195.081 404.826C166.601 419.855 142.102 464.076 164.014 479.184C185.097 493.661 221.072 500.603 240.812 500.603C242.086 500.603 243.31 500.603 244.446 500.514C251.852 500.129 259.614 499.26 259.614 499.26C260.315 498.361 264.7 487.904 264.7 487.904C263.949 487.39 247.991 483.361 231.342 478.207C220.687 474.968 209.775 471.294 202.369 467.788C198.271 465.813 191.763 461.488 190.519 459.8C189.156 457.943 201.826 445.767 211.503 439.645C213.128 438.571 214.843 437.639 216.628 436.86C220.282 435.408 218.603 402.495 202.902 402.505H202.882Z" fill="#FFE5D7"/>
<path d="M250.364 415.72L250.364 415.72C245.65 423.599 237.011 430.268 229.03 435.169C221.325 439.9 214.281 442.956 212.097 443.84C196.973 432.362 191.255 418.309 190.622 401.23C201.092 395.676 213.639 389.441 225.307 385.786C231.182 383.945 236.816 382.764 241.839 382.647C246.862 382.53 251.243 383.476 254.645 385.858C256.718 387.309 257.774 389.41 258.119 391.895C258.466 394.391 258.092 397.263 257.304 400.202C255.727 406.078 252.525 412.112 250.364 415.72Z" fill="#FCFBF7" stroke="#040404" stroke-width="0.8"/>
<path d="M279.177 486.136C279.309 486.129 279.441 486.154 279.561 486.209C279.682 486.264 279.787 486.348 279.868 486.452C280.003 486.597 280.105 486.769 280.168 486.956C280.231 487.143 280.253 487.342 280.234 487.539C280.048 488.653 279.465 489.663 278.594 490.383C278.496 490.462 278.377 490.521 278.259 490.6L277.874 490.837L276.037 492.081L277.824 493.385C277.952 493.483 278.091 493.572 278.229 493.661C278.334 493.716 278.434 493.783 278.525 493.859L278.723 494.036L278.98 494.135C281.281 494.999 283.393 496.3 285.201 497.967C286.751 499.468 288.855 502.746 288.766 505.017C288.776 505.331 288.713 505.644 288.583 505.93C288.453 506.216 288.259 506.468 288.015 506.666C287.934 506.74 287.829 506.783 287.719 506.785C287.65 506.785 287.6 506.785 287.551 506.627C286.777 503.769 285.459 501.086 283.67 498.727L281.261 495.764L280.905 499.596C280.845 500.166 280.621 500.706 280.26 501.152C279.899 501.597 279.416 501.928 278.871 502.104C278.5 502.223 278.115 502.292 277.725 502.312L276.846 502.361L276.442 503.131C276.254 503.467 276.116 503.536 275.997 503.585C275.86 503.632 275.717 503.655 275.573 503.655C275.448 503.664 275.322 503.664 275.197 503.655L273.578 503.398L273.4 505.027C273.4 505.146 273.331 505.235 273.252 505.235C271.071 504.597 269.114 503.358 267.603 501.66L267.001 501.136H266.3C265.844 501.142 265.389 501.112 264.937 501.048C262.399 500.613 260.266 498.934 258.686 497.522L258.607 497.463L258.528 497.404C257.415 496.635 256.403 495.729 255.516 494.708C254.391 493.365 253.818 492.437 254.035 491.39C254.343 489.984 255.057 488.7 256.089 487.697C256.338 487.564 256.618 487.503 256.899 487.519C257.82 487.593 258.727 487.792 259.595 488.111C259.911 488.22 260.217 488.309 260.494 488.388C261.027 488.536 261.56 488.704 262.093 488.872C263.904 489.508 265.789 489.907 267.702 490.057C270.297 489.841 272.827 489.134 275.158 487.973C275.523 487.795 275.928 487.588 276.353 487.351C277.213 486.792 278.177 486.412 279.187 486.235L279.177 486.136ZM279.177 484.586C277.587 484.586 275.79 485.86 274.496 486.452C272.343 487.555 269.995 488.226 267.584 488.427C265.291 488.14 263.036 487.604 260.859 486.828C259.567 486.338 258.215 486.022 256.84 485.889C256.264 485.871 255.695 486.019 255.2 486.314C253.927 487.134 252.761 489.533 252.455 490.995C252.07 492.832 253.137 494.293 254.262 495.636C255.242 496.76 256.36 497.755 257.59 498.599C259.518 500.536 261.956 501.885 264.621 502.489C265.156 502.577 265.698 502.617 266.241 502.608H266.389C268.089 504.52 270.293 505.917 272.748 506.637C272.917 506.691 273.094 506.718 273.272 506.716C273.695 506.699 274.097 506.525 274.399 506.227C274.7 505.929 274.879 505.529 274.901 505.106C275.107 505.137 275.315 505.154 275.523 505.156C275.859 505.159 276.193 505.106 276.511 504.998C277.067 504.777 277.519 504.353 277.775 503.813C278.323 503.791 278.866 503.688 279.384 503.506C280.206 503.228 280.93 502.718 281.469 502.039C282.009 501.359 282.341 500.538 282.426 499.675C284.087 501.888 285.311 504.399 286.03 507.071C286.127 507.436 286.342 507.759 286.643 507.988C286.943 508.217 287.312 508.339 287.689 508.335C288.169 508.335 288.633 508.159 288.993 507.842C292.291 505.077 288.568 499.073 286.257 496.831C284.299 495.029 282.013 493.621 279.523 492.683C279.264 492.48 278.993 492.292 278.713 492.121C279.009 491.948 279.296 491.76 279.572 491.558C281.201 490.185 282.732 487.302 280.994 485.396C280.764 485.133 280.48 484.924 280.161 484.782C279.842 484.64 279.496 484.57 279.147 484.576L279.177 484.586Z" fill="#FFE5D7"/>
<path d="M229.109 510.133L277.912 507.19L275.64 523.187L229.109 510.133Z" fill="#C4C4C4"/>
<path d="M277.725 507.96L275.75 522.14L234.492 510.537L277.725 507.92V507.96ZM279.542 506.291L225.15 509.55L276.984 524.086L279.512 506.311L279.542 506.291Z" fill="#010101"/>
<path d="M225.703 514.152L225.901 510.587L276.234 524.708L276.243 529.596L225.703 514.152Z" fill="#C4C4C4"/>
<path d="M226.631 511.604L275.512 525.291V528.549L226.562 513.589L226.68 511.614L226.631 511.604ZM225.15 509.55L224.863 514.685L276.993 530.623V524.086L225.15 509.55Z" fill="#040404"/>
<path d="M277.793 524.846L388.304 518.171L388.284 522.437L277.803 529.814L277.793 524.846Z" fill="#C4C4C4"/>
<path d="M387.515 518.99V521.706L278.574 528.984V525.577L387.515 518.99ZM389.085 517.341L277.014 524.116V530.653L389.075 523.168V517.341H389.085Z" fill="#040404"/>
<path d="M286.375 463.345C286.489 462.502 286.89 461.725 287.511 461.144C288.131 460.563 288.934 460.214 289.782 460.155L392.867 453.934C393.421 453.907 393.975 454.004 394.487 454.218C395 454.431 395.458 454.756 395.829 455.168C396.172 455.559 396.428 456.018 396.579 456.516C396.731 457.013 396.775 457.536 396.708 458.052L388.384 516.601L277.912 523.276L286.375 463.345Z" fill="#C4C4C4"/>
<path d="M393.104 454.704C393.514 454.706 393.919 454.794 394.292 454.965C394.665 455.135 394.997 455.383 395.267 455.692C395.537 455.995 395.739 456.353 395.858 456.742C395.978 457.131 396.012 457.54 395.958 457.943L387.722 515.87L278.821 522.457L287.185 463.454C287.273 462.789 287.589 462.176 288.079 461.718C288.568 461.261 289.202 460.988 289.871 460.945L392.926 454.714L393.104 454.704ZM393.104 453.144H392.838L289.782 459.385C288.753 459.447 287.777 459.865 287.022 460.568C286.267 461.271 285.78 462.214 285.644 463.236L277.014 524.116L389.075 517.341L397.499 458.2C397.58 457.575 397.527 456.94 397.344 456.336C397.16 455.733 396.85 455.176 396.434 454.702C396.018 454.229 395.506 453.849 394.932 453.589C394.358 453.329 393.735 453.194 393.104 453.193V453.144ZM609.633 683.103L607.204 683.054L610.67 607.974L613.099 608.024L609.633 683.103Z" fill="#040404"/>
<path d="M621.621 609.218C611.331 609.218 577.727 608.813 577.727 603.659C577.727 598.504 611.302 598.109 621.621 598.109C631.94 598.109 665.525 598.514 665.525 603.659C665.525 608.804 631.921 609.218 621.621 609.218ZM580.758 603.659C584.333 605.091 599.017 606.789 621.621 606.789C644.225 606.789 658.919 605.091 662.494 603.659C658.919 602.237 644.235 600.538 621.621 600.538C599.007 600.538 584.333 602.237 580.758 603.659Z" fill="#010101"/>
<path d="M580.166 564.563C577.448 571.344 576.433 578.688 577.211 585.952C577.989 593.215 580.537 600.178 584.63 606.229C588.723 612.28 594.237 617.235 600.69 620.66C607.142 624.086 614.336 625.877 621.641 625.877C628.947 625.877 636.141 624.086 642.593 620.66C649.046 617.235 654.56 612.28 658.653 606.229C662.746 600.178 665.293 593.215 666.072 585.952C666.85 578.688 665.835 571.344 663.116 564.563H580.166Z" fill="#F55E00"/>
<path d="M663.087 564.554C663.087 568.178 644.522 571.121 621.612 571.121C598.702 571.121 580.137 568.158 580.137 564.554C580.137 560.949 598.702 557.987 621.612 557.987C644.522 557.987 663.087 560.9 663.087 564.554Z" fill="#FFE5D7"/>
<path d="M659.008 564.554C659.008 567.24 642.22 569.412 621.621 569.412C601.022 569.412 584.244 567.24 584.244 564.554C584.244 561.868 601.032 559.695 621.621 559.695C642.21 559.695 659.008 561.888 659.008 564.554Z" fill="#84605A"/>
<path opacity="0.42" d="M659.028 579.662C658.929 576.315 653.715 576.305 653.824 579.662C654.051 587.562 653.024 595.522 647.296 601.486C644.966 603.905 648.649 607.589 650.98 605.17C657.675 598.198 659.304 588.965 659.028 579.662Z" fill="white"/>
<path d="M621.621 609.219C611.331 609.219 577.727 608.814 577.727 603.659H580.156C580.158 603.511 580.113 603.365 580.027 603.244C581.489 604.735 596.815 606.789 621.621 606.789C646.427 606.789 661.763 604.735 663.224 603.244C663.139 603.365 663.094 603.511 663.096 603.659H665.575C665.575 608.814 631.921 609.219 621.621 609.219Z" fill="#010101"/>
<path d="M571.466 683.063L569.047 682.895L578.32 604.3L580.749 604.468L571.466 683.063ZM669.643 683.073L661.872 604.784L664.301 604.597L672.063 682.886L669.643 683.073Z" fill="#040404"/>
<path d="M626.51 608.024L628.938 607.975L630.471 683.029L628.043 683.079L626.51 608.024Z" fill="#040404"/>
<path d="M621.631 568.504C618.175 568.504 614.837 568.445 611.667 568.336L609.287 568.247C592.687 567.487 585.656 565.531 585.133 564.485C585.597 563.714 591.591 561.917 605.663 561.048L608.132 560.92C611.874 560.722 615.923 560.614 620.169 560.584H622.52C625.077 560.584 627.585 560.633 629.995 560.702L632.256 560.791C633.51 560.791 634.745 560.9 635.959 560.969L638.29 561.078C653.606 562.065 657.803 564.04 658.129 564.633C657.655 565.433 651.503 567.24 637.026 568.089C636.275 568.089 635.505 568.178 634.725 568.198C633.619 568.267 632.543 568.306 631.417 568.336C630.666 568.336 629.916 568.395 629.156 568.425C627.467 568.425 625.749 568.484 623.981 568.484H621.68L621.631 568.504Z" fill="#FCFBF7"/>
<path d="M622.52 561.483C624.821 561.483 627.26 561.483 629.965 561.591H632.217C633.461 561.591 634.676 561.7 635.96 561.769H637.076L638.201 561.828C648.708 562.529 653.922 563.655 656.134 564.425C653.833 565.225 648.234 566.4 636.937 567.062C636.216 567.062 635.466 567.151 634.636 567.171C633.57 567.24 632.513 567.279 631.338 567.309C630.617 567.309 629.887 567.368 629.126 567.388C627.457 567.388 625.739 567.457 623.932 567.457H621.631C618.402 567.457 615.054 567.398 611.687 567.279H609.346C597.003 566.706 589.903 565.452 587.108 564.485C589.359 563.704 594.761 562.51 605.703 561.868H605.93L608.181 561.739C611.884 561.542 615.923 561.433 620.17 561.413L622.52 561.483ZM622.52 559.705H620.15C615.903 559.705 611.845 559.833 608.073 560.031L605.584 560.169C592.954 560.939 584.234 562.628 584.234 564.564C584.234 566.697 594.692 568.464 609.248 569.136L611.628 569.225C614.797 569.333 618.145 569.402 621.611 569.402H623.942C625.719 569.402 627.447 569.402 629.136 569.343C629.916 569.343 630.667 569.343 631.397 569.254C632.533 569.254 633.619 569.185 634.705 569.116C635.505 569.116 636.285 569.047 637.036 569.007C649.972 568.257 658.968 566.568 658.968 564.593C658.968 562.618 650.555 561.038 638.231 560.219C637.48 560.219 636.7 560.13 635.92 560.11C634.696 560.041 633.461 559.972 632.187 559.932C631.437 559.932 630.706 559.863 629.926 559.843C627.507 559.774 624.988 559.735 622.431 559.735L622.52 559.705Z" fill="#F55E00"/>
<path d="M647.258 522.387L647.702 522.617C645.742 526.406 646.597 530.152 648.89 533.278C651.194 536.418 654.925 538.882 658.571 540C663.021 541.344 667.693 541.776 672.308 541.273C670.363 538.73 668.508 536.13 666.712 533.481C665.743 532.051 664.676 530.629 663.587 529.191C663.469 529.035 663.351 528.879 663.233 528.723C662.261 527.441 661.278 526.144 660.348 524.829M647.258 522.387L669.812 491.765L669.335 491.915C669.335 491.916 669.335 491.916 669.336 491.917C669.649 492.909 670.61 493.33 671.461 493.495C672.336 493.665 673.287 493.609 673.904 493.491M647.258 522.387L647.152 521.899C643.147 522.76 638.708 523.492 634.379 523.487C630.338 523.483 626.42 522.836 623.046 521.077M647.258 522.387L623.046 521.077M660.348 524.829L660.757 524.54L660.349 524.83C660.349 524.829 660.349 524.829 660.348 524.829ZM660.348 524.829C659.642 523.833 658.874 522.658 658.357 521.393C657.839 520.126 657.558 518.734 657.869 517.323L657.869 517.321C658.051 516.507 658.462 515.534 659.068 514.738C659.669 513.947 660.52 513.262 661.592 513.189L661.593 513.189C662.748 513.112 663.73 513.623 664.54 514.4C665.344 515.171 666.011 516.234 666.567 517.355C667.446 519.129 668.092 521.152 668.547 522.576C668.665 522.946 668.77 523.276 668.863 523.55C671.117 530.185 674.957 535.087 680.046 539.538C682.621 538.657 685.075 537.457 687.35 535.964C690.872 533.62 693.875 530.58 696.175 527.03C698.474 523.48 700.022 519.497 700.721 515.326C700.945 513.876 701.155 512.008 701.296 509.852C697.468 511.72 693.369 512.975 689.148 513.57L689.142 513.571C687.991 513.72 686.336 513.9 684.722 513.825C683.134 513.752 681.464 513.427 680.389 512.459L680.389 512.459C679.755 511.888 679.453 511.238 679.465 510.562C679.478 509.905 679.786 509.308 680.198 508.817C681.013 507.848 682.378 507.123 683.476 506.962L683.477 506.962C684.696 506.785 685.921 506.841 687.113 506.963C687.655 507.018 688.197 507.087 688.729 507.156C688.782 507.162 688.835 507.169 688.887 507.176C689.472 507.251 690.046 507.322 690.613 507.373C694.236 507.684 697.88 507.111 701.233 505.704C701.304 505.672 701.378 505.648 701.454 505.632C701.566 497.227 700.496 486.162 696.131 476.452C692.165 480.81 687.546 484.397 682.888 488.015C682.558 488.271 682.229 488.526 681.9 488.782L681.9 488.783C681.63 488.992 681.353 489.212 681.069 489.437C680.179 490.142 679.22 490.902 678.22 491.569C676.896 492.452 675.451 493.206 673.904 493.491M673.904 493.491C673.903 493.491 673.902 493.491 673.902 493.491L673.811 492.999L673.905 493.491C673.905 493.491 673.904 493.491 673.904 493.491ZM623.046 521.077C624.385 520.166 625.619 519.108 626.725 517.922C627.636 516.977 628.857 515.703 629.85 514.294C630.837 512.894 631.651 511.288 631.651 509.678L631.651 509.672C631.634 508.274 630.875 507.34 629.821 507.016C628.803 506.702 627.591 506.98 626.649 507.787C625.848 508.471 625.29 509.321 624.801 510.15C624.684 510.348 624.572 510.543 624.462 510.734C624.1 511.364 623.758 511.959 623.338 512.503C621.848 514.237 619.966 515.588 617.851 516.445C614.922 512.039 614.432 506.029 615.477 500.72C616.677 494.623 620.642 485.931 626.607 477.7C627.348 479.493 628.24 481.22 629.274 482.863C629.423 483.11 629.586 483.39 629.762 483.693C630.268 484.563 630.882 485.617 631.564 486.581C632.475 487.867 633.594 489.123 634.885 489.58C635.552 489.818 636.149 489.864 636.662 489.706C637.185 489.545 637.554 489.192 637.794 488.762C638.246 487.95 638.263 486.825 638.08 485.88C638.077 485.742 638.048 485.606 637.995 485.478C637.981 485.429 637.966 485.385 637.952 485.348C637.943 485.321 637.928 485.284 637.917 485.255C637.912 485.241 637.908 485.23 637.905 485.223C637.89 485.182 637.884 485.162 637.883 485.156V485.081L637.853 484.999C637.782 484.802 637.657 484.631 637.495 484.503C637.008 483.54 636.487 482.59 635.97 481.647C635.821 481.376 635.673 481.105 635.526 480.835C634.844 479.584 634.184 478.335 633.616 477.044C632.867 475.21 632.253 473.324 631.778 471.401C636.927 465.647 643.036 460.596 649.778 457.477C648.601 460.271 647.599 463.137 646.778 466.057C646.68 466.372 646.564 466.727 646.438 467.114C645.947 468.62 645.298 470.609 644.922 472.587C644.685 473.836 644.549 475.108 644.634 476.279C644.719 477.447 645.025 478.551 645.704 479.427C646.108 479.973 646.685 480.366 647.342 480.542C648 480.718 648.699 480.666 649.324 480.393L649.352 480.381L649.377 480.366C650.434 479.744 650.832 478.428 650.999 477.25C651.143 476.232 651.134 475.162 651.127 474.405C651.126 474.263 651.125 474.132 651.125 474.015C651.127 473.902 651.129 473.79 651.131 473.679C651.196 470.036 651.252 466.95 652.41 463.48C653.519 460.458 655.042 457.604 656.934 454.999L623.046 521.077ZM675.289 455.791C675.13 455.73 674.969 455.671 674.809 455.613C674.787 455.769 674.766 455.94 674.745 456.122C674.907 456.181 675.068 456.241 675.229 456.302C675.249 456.118 675.269 455.947 675.289 455.791ZM670.589 454.875C670.739 454.734 670.895 454.598 671.056 454.467C670.852 454.42 670.647 454.375 670.442 454.332C670.289 454.467 670.142 454.608 669.999 454.753C670.196 454.791 670.393 454.832 670.589 454.875ZM693.545 471.507C693.581 471.569 693.618 471.63 693.654 471.691C693.659 471.7 693.664 471.708 693.669 471.717C693.67 471.719 693.672 471.722 693.673 471.725L693.683 471.719L693.711 471.703L694.105 471.472L693.674 471.218C693.62 471.31 693.577 471.407 693.545 471.507ZM696.267 475.55C696.147 475.686 696.026 475.822 695.905 475.956L696.496 476.046C696.421 475.88 696.344 475.715 696.267 475.55ZM686.903 493.936C686.261 494.616 685.832 495.468 685.668 496.388L685.66 496.387C685.545 497.222 685.716 498.07 686.144 498.795C686.573 499.519 687.234 500.078 688.02 500.379L688.043 500.388L688.066 500.394C688.143 500.415 688.22 500.431 688.299 500.442C688.353 500.491 688.413 500.534 688.476 500.571C688.615 500.653 688.771 500.703 688.931 500.718C689.091 500.733 689.253 500.714 689.405 500.66C689.554 500.608 689.691 500.524 689.805 500.415C689.908 500.321 690.008 500.208 690.084 500.123C690.094 500.112 690.103 500.101 690.112 500.091C690.971 499.409 691.564 498.447 691.786 497.372C691.827 497.22 691.834 497.062 691.806 496.907C691.793 496.829 691.771 496.754 691.741 496.682C691.841 496.223 691.894 495.755 691.899 495.285V495.281C691.899 494.63 691.739 493.895 691.34 493.339C690.917 492.749 690.237 492.387 689.337 492.547L689.323 492.549L689.311 492.552C688.389 492.766 687.552 493.248 686.903 493.936ZM639.719 497.244V496.966L638.896 497.664C638.171 498.279 637.931 499.1 637.99 499.897C638.048 500.678 638.389 501.445 638.837 502.046C639.061 502.35 639.347 502.602 639.676 502.786C640.005 502.97 640.371 503.081 640.747 503.112C641.123 503.144 641.501 503.094 641.857 502.966C642.212 502.839 642.536 502.637 642.807 502.374C643.379 501.818 643.786 501.115 643.983 500.343C644.179 499.574 644.159 498.766 643.927 498.008C643.88 497.831 643.788 497.67 643.661 497.54C643.54 497.416 643.392 497.324 643.228 497.271C642.543 496.963 641.79 496.837 641.041 496.907C640.584 496.949 640.138 497.063 639.719 497.244Z" fill="#FFE5D7" stroke="#F55E00"/>
<mask id="path-62-inside-1_1691_25903" fill="white">
<path d="M558.737 478.217C554.687 479.747 550.465 480.778 546.166 481.288C546.166 481.367 546.166 481.456 546.245 481.535C546.709 482.881 547.25 484.2 547.864 485.485C553.115 486.101 558.427 485.066 563.062 482.522C567.056 480.304 571.594 479.256 576.156 479.5C576.271 479.501 576.384 479.533 576.483 479.591C576.582 479.65 576.663 479.733 576.719 479.834C576.776 479.934 576.804 480.047 576.802 480.162C576.801 480.277 576.769 480.389 576.709 480.488C574.863 484.507 568.809 485.524 564.928 486.196C559.635 487.066 554.285 487.548 548.921 487.637C551.783 492.805 555.777 497.258 560.603 500.663C561.245 501.117 561.907 501.532 562.578 501.936C568.869 502.252 575.198 499.507 580.6 496.525C582.17 495.656 586.456 492.99 586.979 496.288C587.592 500.11 583.434 501.986 580.442 502.578C577.687 503.131 574.863 503.289 572.098 503.744C570.695 503.971 569.303 504.227 567.901 504.494C581.805 509.669 604.379 509.432 604.231 487.341C604.231 487.233 625.275 499.734 624.899 475.57C623.981 476.015 623.043 476.439 622.095 476.844C619.745 477.832 615.133 480.004 612.674 478.227C609.623 476.005 613.158 471.699 615.222 470.327C618.115 468.411 621.009 467.275 623.517 464.747C625.925 462.249 628.103 459.539 630.024 456.65C630.521 452.604 630.277 448.501 629.304 444.543C626.973 435.655 619.745 429.73 612.131 425.218C612.012 425.139 611.884 425.079 611.766 425.01C612.647 427.607 613.175 430.311 613.336 433.048C613.662 437.719 614.323 442.499 613.217 447.12C612.496 450.221 609.178 458.565 604.942 457.825C599.896 456.946 606.137 449.036 607.213 447.347C612.151 439.576 612.664 431.34 608.862 423.401C598.77 418.019 587.759 414.849 576.522 412.637C579.974 417.121 582.645 422.155 584.422 427.528C585.498 430.994 588.125 441.353 582.555 442.904C577.272 444.316 578.655 432.742 578.477 430.53C577.855 422.759 574.004 416.518 568.602 411.215C563.664 410.405 558.727 409.714 553.789 409.032C553.629 408.995 553.46 409.02 553.317 409.103C553.174 409.185 553.067 409.319 553.019 409.477C551.874 414.414 550.738 419.352 549.681 424.339C549.962 425.29 550.291 426.226 550.669 427.143C551.291 428.674 552.812 429.948 553.227 431.518C553.493 432.565 552.999 434.135 551.666 433.917C550.333 433.7 549.227 431.37 548.704 430.283L548.526 429.928C547.272 436.179 546.166 442.459 545.376 448.789C545.287 449.5 545.198 450.201 545.119 450.922C547.923 454.339 551.659 456.868 555.873 458.2C559.823 459.434 564.257 459.188 567.595 461.913C567.712 462.031 567.777 462.191 567.777 462.357C567.777 462.524 567.712 462.683 567.595 462.802C564.524 466.386 558.599 463.671 555.152 462.061C551.223 460.165 547.678 457.561 544.695 454.378C543.776 462.95 543.411 471.887 545.791 480.113C550.108 479.589 554.344 478.531 558.401 476.963C559.152 476.716 559.477 477.95 558.737 478.217V478.217ZM565.264 435.014C564.654 435.176 564.013 435.185 563.398 435.04C562.783 434.896 562.213 434.602 561.739 434.184C559.29 432.209 561.344 428.703 564.277 429.158C564.8 429.209 565.292 429.43 565.679 429.786C566.066 430.143 566.326 430.615 566.42 431.133C566.499 431.17 566.568 431.227 566.619 431.297C566.671 431.368 566.704 431.451 566.716 431.538C566.923 432.91 566.745 434.5 565.264 435.014V435.014ZM593.141 488.2C593.28 487.963 593.471 487.762 593.699 487.61C593.928 487.459 594.189 487.363 594.461 487.328C594.733 487.294 595.009 487.323 595.268 487.412C595.528 487.502 595.763 487.65 595.956 487.845C596.51 488.47 596.809 489.281 596.795 490.116C596.883 490.151 596.959 490.208 597.018 490.282C597.076 490.356 597.113 490.445 597.126 490.538C597.14 490.631 597.128 490.726 597.092 490.814C597.056 490.901 596.998 490.977 596.923 491.034C596.482 491.372 595.936 491.542 595.381 491.515C594.826 491.488 594.298 491.265 593.892 490.886C593.467 490.602 593.157 490.175 593.02 489.682C592.882 489.189 592.925 488.664 593.141 488.2V488.2ZM593.141 438.509C594.958 437.453 597.18 438.035 597.467 440.267C597.602 441.849 597.258 443.436 596.479 444.819C596.494 444.911 596.494 445.004 596.479 445.096C596.272 446.409 595.551 448.602 593.793 447.733C592.332 447.012 591.621 444.849 591.384 443.368C591.077 441.58 591.393 439.497 593.092 438.509H593.141ZM575.366 463.147C575.584 462.934 575.846 462.77 576.134 462.668C576.422 462.566 576.728 462.529 577.032 462.558C577.336 462.587 577.63 462.682 577.893 462.837C578.157 462.992 578.383 463.202 578.556 463.454C578.656 463.408 578.764 463.386 578.874 463.39C578.983 463.394 579.091 463.424 579.187 463.476C579.283 463.529 579.365 463.604 579.427 463.694C579.489 463.784 579.529 463.888 579.543 463.997C579.674 464.668 579.578 465.364 579.271 465.975C578.963 466.586 578.462 467.078 577.845 467.374C577.34 467.618 576.771 467.697 576.219 467.602C575.666 467.506 575.158 467.24 574.764 466.841C573.796 465.745 574.418 464.036 575.356 463.138L575.366 463.147ZM664.389 571.21C663.178 573.683 662.289 576.301 661.743 579.001L661.585 578.942C660.712 578.58 659.862 578.168 659.037 577.707C658.891 574.343 659.844 571.022 661.753 568.247C663.407 565.855 664.321 563.028 664.38 560.12C664.38 560.049 664.364 559.979 664.331 559.917C664.298 559.854 664.249 559.801 664.191 559.762C664.132 559.722 664.064 559.698 663.993 559.692C663.923 559.686 663.852 559.697 663.787 559.725C661.032 560.712 660.064 564.485 659.432 566.884C658.595 570.186 658.007 573.547 657.674 576.937C654.416 574.893 651.659 572.142 649.607 568.889C649.34 568.454 649.093 568.02 648.856 567.576C648.945 563.626 651.078 559.676 653.31 556.456C653.952 555.469 655.927 552.931 653.774 552.427C651.266 551.845 649.824 554.402 649.291 556.249C648.797 557.957 648.55 559.735 648.115 561.463C647.898 562.342 647.661 563.211 647.414 564.08C644.659 555.024 645.884 540.755 660.528 541.97C660.597 541.97 653.339 528.036 669.327 529.498C668.981 530.051 668.655 530.623 668.339 531.206C667.569 532.648 665.9 535.442 666.967 537.131C668.29 539.175 671.312 537.131 672.319 535.926C673.721 534.188 674.62 532.421 676.417 530.989C678.193 529.585 680.089 528.343 682.085 527.276C684.791 527.167 687.494 527.531 690.074 528.352C695.871 530.278 699.406 535.146 702.043 540.202C702.088 540.278 702.128 540.357 702.161 540.439C700.482 539.746 698.719 539.275 696.918 539.037C693.837 538.602 690.706 537.96 687.586 538.405C685.502 538.701 679.824 540.38 680.101 543.095C680.436 546.325 686.026 542.779 687.151 542.187C689.601 540.852 692.352 540.167 695.142 540.196C697.932 540.226 700.668 540.969 703.09 542.355C706.015 549.025 707.894 556.106 708.659 563.349C705.835 560.929 702.633 558.991 699.179 557.612C696.937 556.753 690.163 554.56 688.909 558.007C687.714 561.275 695.446 560.969 696.898 561.216C702.013 562.006 705.963 564.751 709.212 568.425C709.518 571.605 709.735 574.774 709.943 577.915C709.958 578.02 709.933 578.127 709.872 578.215C709.812 578.303 709.721 578.365 709.617 578.389C706.289 578.853 702.951 579.376 699.614 579.742C698.994 579.523 698.387 579.269 697.797 578.981C696.809 578.507 696.049 577.48 695.022 577.144C694.35 576.917 693.284 577.144 693.363 578.004C693.442 578.863 694.933 579.672 695.634 580.067L695.851 580.196C691.654 580.68 687.438 581.055 683.211 581.243L681.789 581.292C679.676 579.375 678.181 576.872 677.494 574.103C676.862 571.545 677.266 568.751 675.598 566.499C675.518 566.427 675.414 566.387 675.306 566.387C675.199 566.387 675.095 566.427 675.015 566.499C672.487 568.267 674.027 572.148 674.896 574.399C675.981 576.994 677.535 579.368 679.478 581.401C673.771 581.539 667.826 581.322 662.493 579.426C663.035 576.715 663.924 574.087 665.14 571.605C665.397 571.012 664.587 570.775 664.389 571.21V571.21ZM693.313 569.235C693.179 569.615 693.144 570.023 693.211 570.42C693.279 570.818 693.446 571.191 693.698 571.506C693.949 571.846 694.304 572.094 694.71 572.211C695.115 572.328 695.548 572.308 695.941 572.154C696.334 571.999 696.666 571.72 696.883 571.358C697.101 570.996 697.193 570.572 697.145 570.153C697.129 569.81 697 569.482 696.779 569.219C696.557 568.957 696.256 568.775 695.92 568.701C695.901 568.646 695.866 568.598 695.821 568.561C695.776 568.525 695.721 568.501 695.664 568.494C694.785 568.316 693.728 568.346 693.313 569.254V569.235ZM659.432 548.922C659.593 548.85 659.735 548.741 659.846 548.604C659.957 548.467 660.034 548.306 660.071 548.134C660.107 547.961 660.103 547.782 660.057 547.612C660.011 547.442 659.926 547.285 659.807 547.154C659.413 546.772 658.894 546.544 658.346 546.512C658.323 546.455 658.286 546.404 658.239 546.364C658.191 546.324 658.135 546.296 658.074 546.284C658.014 546.271 657.951 546.273 657.891 546.291C657.832 546.308 657.778 546.34 657.734 546.384C657.494 546.647 657.362 546.991 657.362 547.347C657.362 547.703 657.494 548.046 657.734 548.309C657.904 548.59 658.165 548.806 658.473 548.92C658.781 549.035 659.119 549.043 659.432 548.941V548.922ZM692.336 551.469C692.546 551.243 692.69 550.964 692.753 550.662C692.816 550.36 692.796 550.047 692.695 549.755C692.593 549.464 692.414 549.206 692.177 549.008C691.94 548.811 691.653 548.682 691.348 548.635C690.311 548.471 689.248 548.608 688.287 549.03C688.225 549.02 688.161 549.02 688.099 549.03C687.23 549.099 685.739 549.435 686.223 550.591C686.628 551.578 688.03 552.111 688.998 552.338C689.576 552.544 690.202 552.573 690.796 552.422C691.39 552.271 691.926 551.946 692.336 551.489V551.469ZM675.173 561.433C675.322 561.307 675.442 561.15 675.522 560.972C675.602 560.793 675.642 560.6 675.637 560.404C675.632 560.209 675.583 560.017 675.495 559.843C675.406 559.669 675.279 559.517 675.124 559.399C675.153 559.337 675.169 559.269 675.169 559.2C675.168 559.131 675.152 559.063 675.122 559.001C675.091 558.939 675.047 558.885 674.993 558.843C674.938 558.801 674.875 558.771 674.808 558.757C674.374 558.64 673.915 558.665 673.497 558.828C673.08 558.992 672.725 559.286 672.487 559.666C672.302 559.973 672.223 560.332 672.26 560.688C672.297 561.044 672.45 561.379 672.694 561.641C673.066 561.898 673.516 562.02 673.967 561.986C674.418 561.952 674.844 561.764 675.173 561.453V561.433Z"/>
</mask>
<path d="M558.737 478.217C554.687 479.747 550.465 480.778 546.166 481.288C546.166 481.367 546.166 481.456 546.245 481.535C546.709 482.881 547.25 484.2 547.864 485.485C553.115 486.101 558.427 485.066 563.062 482.522C567.056 480.304 571.594 479.256 576.156 479.5C576.271 479.501 576.384 479.533 576.483 479.591C576.582 479.65 576.663 479.733 576.719 479.834C576.776 479.934 576.804 480.047 576.802 480.162C576.801 480.277 576.769 480.389 576.709 480.488C574.863 484.507 568.809 485.524 564.928 486.196C559.635 487.066 554.285 487.548 548.921 487.637C551.783 492.805 555.777 497.258 560.603 500.663C561.245 501.117 561.907 501.532 562.578 501.936C568.869 502.252 575.198 499.507 580.6 496.525C582.17 495.656 586.456 492.99 586.979 496.288C587.592 500.11 583.434 501.986 580.442 502.578C577.687 503.131 574.863 503.289 572.098 503.744C570.695 503.971 569.303 504.227 567.901 504.494C581.805 509.669 604.379 509.432 604.231 487.341C604.231 487.233 625.275 499.734 624.899 475.57C623.981 476.015 623.043 476.439 622.095 476.844C619.745 477.832 615.133 480.004 612.674 478.227C609.623 476.005 613.158 471.699 615.222 470.327C618.115 468.411 621.009 467.275 623.517 464.747C625.925 462.249 628.103 459.539 630.024 456.65C630.521 452.604 630.277 448.501 629.304 444.543C626.973 435.655 619.745 429.73 612.131 425.218C612.012 425.139 611.884 425.079 611.766 425.01C612.647 427.607 613.175 430.311 613.336 433.048C613.662 437.719 614.323 442.499 613.217 447.12C612.496 450.221 609.178 458.565 604.942 457.825C599.896 456.946 606.137 449.036 607.213 447.347C612.151 439.576 612.664 431.34 608.862 423.401C598.77 418.019 587.759 414.849 576.522 412.637C579.974 417.121 582.645 422.155 584.422 427.528C585.498 430.994 588.125 441.353 582.555 442.904C577.272 444.316 578.655 432.742 578.477 430.53C577.855 422.759 574.004 416.518 568.602 411.215C563.664 410.405 558.727 409.714 553.789 409.032C553.629 408.995 553.46 409.02 553.317 409.103C553.174 409.185 553.067 409.319 553.019 409.477C551.874 414.414 550.738 419.352 549.681 424.339C549.962 425.29 550.291 426.226 550.669 427.143C551.291 428.674 552.812 429.948 553.227 431.518C553.493 432.565 552.999 434.135 551.666 433.917C550.333 433.7 549.227 431.37 548.704 430.283L548.526 429.928C547.272 436.179 546.166 442.459 545.376 448.789C545.287 449.5 545.198 450.201 545.119 450.922C547.923 454.339 551.659 456.868 555.873 458.2C559.823 459.434 564.257 459.188 567.595 461.913C567.712 462.031 567.777 462.191 567.777 462.357C567.777 462.524 567.712 462.683 567.595 462.802C564.524 466.386 558.599 463.671 555.152 462.061C551.223 460.165 547.678 457.561 544.695 454.378C543.776 462.95 543.411 471.887 545.791 480.113C550.108 479.589 554.344 478.531 558.401 476.963C559.152 476.716 559.477 477.95 558.737 478.217V478.217ZM565.264 435.014C564.654 435.176 564.013 435.185 563.398 435.04C562.783 434.896 562.213 434.602 561.739 434.184C559.29 432.209 561.344 428.703 564.277 429.158C564.8 429.209 565.292 429.43 565.679 429.786C566.066 430.143 566.326 430.615 566.42 431.133C566.499 431.17 566.568 431.227 566.619 431.297C566.671 431.368 566.704 431.451 566.716 431.538C566.923 432.91 566.745 434.5 565.264 435.014V435.014ZM593.141 488.2C593.28 487.963 593.471 487.762 593.699 487.61C593.928 487.459 594.189 487.363 594.461 487.328C594.733 487.294 595.009 487.323 595.268 487.412C595.528 487.502 595.763 487.65 595.956 487.845C596.51 488.47 596.809 489.281 596.795 490.116C596.883 490.151 596.959 490.208 597.018 490.282C597.076 490.356 597.113 490.445 597.126 490.538C597.14 490.631 597.128 490.726 597.092 490.814C597.056 490.901 596.998 490.977 596.923 491.034C596.482 491.372 595.936 491.542 595.381 491.515C594.826 491.488 594.298 491.265 593.892 490.886C593.467 490.602 593.157 490.175 593.02 489.682C592.882 489.189 592.925 488.664 593.141 488.2V488.2ZM593.141 438.509C594.958 437.453 597.18 438.035 597.467 440.267C597.602 441.849 597.258 443.436 596.479 444.819C596.494 444.911 596.494 445.004 596.479 445.096C596.272 446.409 595.551 448.602 593.793 447.733C592.332 447.012 591.621 444.849 591.384 443.368C591.077 441.58 591.393 439.497 593.092 438.509H593.141ZM575.366 463.147C575.584 462.934 575.846 462.77 576.134 462.668C576.422 462.566 576.728 462.529 577.032 462.558C577.336 462.587 577.63 462.682 577.893 462.837C578.157 462.992 578.383 463.202 578.556 463.454C578.656 463.408 578.764 463.386 578.874 463.39C578.983 463.394 579.091 463.424 579.187 463.476C579.283 463.529 579.365 463.604 579.427 463.694C579.489 463.784 579.529 463.888 579.543 463.997C579.674 464.668 579.578 465.364 579.271 465.975C578.963 466.586 578.462 467.078 577.845 467.374C577.34 467.618 576.771 467.697 576.219 467.602C575.666 467.506 575.158 467.24 574.764 466.841C573.796 465.745 574.418 464.036 575.356 463.138L575.366 463.147ZM664.389 571.21C663.178 573.683 662.289 576.301 661.743 579.001L661.585 578.942C660.712 578.58 659.862 578.168 659.037 577.707C658.891 574.343 659.844 571.022 661.753 568.247C663.407 565.855 664.321 563.028 664.38 560.12C664.38 560.049 664.364 559.979 664.331 559.917C664.298 559.854 664.249 559.801 664.191 559.762C664.132 559.722 664.064 559.698 663.993 559.692C663.923 559.686 663.852 559.697 663.787 559.725C661.032 560.712 660.064 564.485 659.432 566.884C658.595 570.186 658.007 573.547 657.674 576.937C654.416 574.893 651.659 572.142 649.607 568.889C649.34 568.454 649.093 568.02 648.856 567.576C648.945 563.626 651.078 559.676 653.31 556.456C653.952 555.469 655.927 552.931 653.774 552.427C651.266 551.845 649.824 554.402 649.291 556.249C648.797 557.957 648.55 559.735 648.115 561.463C647.898 562.342 647.661 563.211 647.414 564.08C644.659 555.024 645.884 540.755 660.528 541.97C660.597 541.97 653.339 528.036 669.327 529.498C668.981 530.051 668.655 530.623 668.339 531.206C667.569 532.648 665.9 535.442 666.967 537.131C668.29 539.175 671.312 537.131 672.319 535.926C673.721 534.188 674.62 532.421 676.417 530.989C678.193 529.585 680.089 528.343 682.085 527.276C684.791 527.167 687.494 527.531 690.074 528.352C695.871 530.278 699.406 535.146 702.043 540.202C702.088 540.278 702.128 540.357 702.161 540.439C700.482 539.746 698.719 539.275 696.918 539.037C693.837 538.602 690.706 537.96 687.586 538.405C685.502 538.701 679.824 540.38 680.101 543.095C680.436 546.325 686.026 542.779 687.151 542.187C689.601 540.852 692.352 540.167 695.142 540.196C697.932 540.226 700.668 540.969 703.09 542.355C706.015 549.025 707.894 556.106 708.659 563.349C705.835 560.929 702.633 558.991 699.179 557.612C696.937 556.753 690.163 554.56 688.909 558.007C687.714 561.275 695.446 560.969 696.898 561.216C702.013 562.006 705.963 564.751 709.212 568.425C709.518 571.605 709.735 574.774 709.943 577.915C709.958 578.02 709.933 578.127 709.872 578.215C709.812 578.303 709.721 578.365 709.617 578.389C706.289 578.853 702.951 579.376 699.614 579.742C698.994 579.523 698.387 579.269 697.797 578.981C696.809 578.507 696.049 577.48 695.022 577.144C694.35 576.917 693.284 577.144 693.363 578.004C693.442 578.863 694.933 579.672 695.634 580.067L695.851 580.196C691.654 580.68 687.438 581.055 683.211 581.243L681.789 581.292C679.676 579.375 678.181 576.872 677.494 574.103C676.862 571.545 677.266 568.751 675.598 566.499C675.518 566.427 675.414 566.387 675.306 566.387C675.199 566.387 675.095 566.427 675.015 566.499C672.487 568.267 674.027 572.148 674.896 574.399C675.981 576.994 677.535 579.368 679.478 581.401C673.771 581.539 667.826 581.322 662.493 579.426C663.035 576.715 663.924 574.087 665.14 571.605C665.397 571.012 664.587 570.775 664.389 571.21V571.21ZM693.313 569.235C693.179 569.615 693.144 570.023 693.211 570.42C693.279 570.818 693.446 571.191 693.698 571.506C693.949 571.846 694.304 572.094 694.71 572.211C695.115 572.328 695.548 572.308 695.941 572.154C696.334 571.999 696.666 571.72 696.883 571.358C697.101 570.996 697.193 570.572 697.145 570.153C697.129 569.81 697 569.482 696.779 569.219C696.557 568.957 696.256 568.775 695.92 568.701C695.901 568.646 695.866 568.598 695.821 568.561C695.776 568.525 695.721 568.501 695.664 568.494C694.785 568.316 693.728 568.346 693.313 569.254V569.235ZM659.432 548.922C659.593 548.85 659.735 548.741 659.846 548.604C659.957 548.467 660.034 548.306 660.071 548.134C660.107 547.961 660.103 547.782 660.057 547.612C660.011 547.442 659.926 547.285 659.807 547.154C659.413 546.772 658.894 546.544 658.346 546.512C658.323 546.455 658.286 546.404 658.239 546.364C658.191 546.324 658.135 546.296 658.074 546.284C658.014 546.271 657.951 546.273 657.891 546.291C657.832 546.308 657.778 546.34 657.734 546.384C657.494 546.647 657.362 546.991 657.362 547.347C657.362 547.703 657.494 548.046 657.734 548.309C657.904 548.59 658.165 548.806 658.473 548.92C658.781 549.035 659.119 549.043 659.432 548.941V548.922ZM692.336 551.469C692.546 551.243 692.69 550.964 692.753 550.662C692.816 550.36 692.796 550.047 692.695 549.755C692.593 549.464 692.414 549.206 692.177 549.008C691.94 548.811 691.653 548.682 691.348 548.635C690.311 548.471 689.248 548.608 688.287 549.03C688.225 549.02 688.161 549.02 688.099 549.03C687.23 549.099 685.739 549.435 686.223 550.591C686.628 551.578 688.03 552.111 688.998 552.338C689.576 552.544 690.202 552.573 690.796 552.422C691.39 552.271 691.926 551.946 692.336 551.489V551.469ZM675.173 561.433C675.322 561.307 675.442 561.15 675.522 560.972C675.602 560.793 675.642 560.6 675.637 560.404C675.632 560.209 675.583 560.017 675.495 559.843C675.406 559.669 675.279 559.517 675.124 559.399C675.153 559.337 675.169 559.269 675.169 559.2C675.168 559.131 675.152 559.063 675.122 559.001C675.091 558.939 675.047 558.885 674.993 558.843C674.938 558.801 674.875 558.771 674.808 558.757C674.374 558.64 673.915 558.665 673.497 558.828C673.08 558.992 672.725 559.286 672.487 559.666C672.302 559.973 672.223 560.332 672.26 560.688C672.297 561.044 672.45 561.379 672.694 561.641C673.066 561.898 673.516 562.02 673.967 561.986C674.418 561.952 674.844 561.764 675.173 561.453V561.433Z" stroke="#F55E00" stroke-width="2" mask="url(#path-62-inside-1_1691_25903)"/>
<path d="M568.035 532.225L568.035 532.225C567.489 533.735 566.032 534.57 564.488 535.06C563.605 535.34 562.648 535.522 561.725 535.648C562.542 535.999 563.347 536.379 564.139 536.785L564.141 536.786C567.775 538.673 570.245 541.373 572.743 544.345C574.8 545.265 577.019 545.771 579.273 545.834C580.212 545.833 580.945 545.611 581.674 545.289C582 545.146 582.32 544.985 582.663 544.812C582.712 544.787 582.761 544.763 582.811 544.738C583.207 544.539 583.632 544.33 584.101 544.135L584.109 544.131L584.117 544.128C584.903 543.833 585.94 543.681 586.72 544.002C587.134 544.172 587.489 544.484 587.653 544.972C587.81 545.441 587.766 546.001 587.551 546.633C587.083 548.014 585.833 548.722 584.569 549.098C583.296 549.477 581.879 549.559 580.876 549.599L580.872 549.599C579.802 549.633 578.731 549.616 577.662 549.55C579.052 550.596 580.677 551.301 582.406 551.598C588.721 552.525 593.668 547.188 593.392 540.568L593.347 539.497L594.196 540.151C600.86 545.283 609.405 543.49 614.93 537.752L614.938 537.744L614.946 537.736C616.157 536.585 617.091 535.175 617.677 533.61C618.13 532.401 618.366 531.124 618.377 529.839C616.593 531.625 614.329 533.559 612.117 534.686C610.836 535.338 609.52 535.747 608.299 535.653C607.044 535.557 605.942 534.933 605.131 533.645M568.035 532.225L605.554 533.378M568.035 532.225C568.463 531.04 568.354 530.047 567.818 529.266C567.302 528.516 566.446 528.044 565.546 527.749C563.746 527.157 561.489 527.178 560.335 527.365C559.18 527.551 558.039 527.81 556.919 528.064C556.599 528.136 556.28 528.208 555.963 528.279C554.528 528.596 553.115 528.873 551.674 528.969C549.266 529.116 546.85 528.859 544.527 528.21C544.061 527.879 543.612 527.526 543.182 527.15C541.146 525.267 539.684 522.852 538.956 520.184M568.035 532.225L538.956 520.184M605.131 533.645L605.554 533.378M605.131 533.645C605.131 533.645 605.131 533.645 605.131 533.645L605.554 533.378M605.131 533.645C604.714 532.984 604.601 532.324 604.725 531.695C604.845 531.082 605.182 530.545 605.583 530.092C606.379 529.193 607.542 528.503 608.267 528.086L608.267 528.086C609.64 527.298 611.068 526.692 612.453 526.104C612.679 526.008 612.905 525.912 613.128 525.816C614.63 525.173 616.071 524.515 617.397 523.618M605.554 533.378C604.142 531.137 607.055 529.359 608.516 528.52C609.861 527.748 611.258 527.154 612.644 526.566C614.485 525.784 616.306 525.011 617.957 523.839M617.397 523.618C617.421 523.727 617.445 523.835 617.468 523.944L617.957 523.839M617.397 523.618C617.488 523.557 617.578 523.495 617.667 523.431L617.957 523.839M617.397 523.618C616.526 519.637 615.369 515.723 613.934 511.908L613.932 511.904C612.663 508.44 611.022 505.124 609.039 502.016M617.957 523.839C617.073 519.721 615.885 515.674 614.402 511.732C613.038 508.011 611.25 504.46 609.074 501.15C609.064 501.439 609.052 501.728 609.039 502.016M609.039 502.016C608.884 501.773 608.727 501.532 608.568 501.292C608.364 506.853 607.558 512.377 606.166 517.766C605.672 519.534 604.28 523.78 601.92 521.558M609.039 502.016C608.793 507.375 607.993 512.695 606.65 517.891L606.648 517.901L606.648 517.901C606.402 518.781 605.912 520.362 605.152 521.445C604.775 521.983 604.274 522.482 603.627 522.637C602.939 522.803 602.244 522.549 601.577 521.922M601.577 521.922C601.577 521.922 601.577 521.922 601.577 521.922L601.92 521.558M601.577 521.922L601.92 521.558M601.577 521.922C599.651 520.112 599.724 517.607 600.345 515.314C600.78 513.703 601.526 512.07 602.135 510.734C602.385 510.186 602.613 509.687 602.786 509.261M601.92 521.558C598.998 518.812 601.102 514.204 602.568 510.991C602.827 510.425 603.065 509.903 603.253 509.441M603.253 509.441L602.783 509.27C602.784 509.267 602.785 509.264 602.786 509.261M603.253 509.441C604.87 505.022 605.329 500.263 604.586 495.616M603.253 509.441L602.79 509.253C602.789 509.256 602.788 509.258 602.786 509.261M602.786 509.261C604.353 504.974 604.811 500.361 604.117 495.851M604.586 495.616L604.226 495.964C604.19 495.926 604.153 495.888 604.117 495.851M604.586 495.616C603.244 494.226 601.776 492.964 600.202 491.844M604.586 495.616L604.092 495.695C604.101 495.747 604.109 495.799 604.117 495.851M604.117 495.851C602.827 494.529 601.422 493.326 599.917 492.255M600.202 491.844L599.922 492.259C599.92 492.257 599.918 492.256 599.917 492.255M600.202 491.844C595.631 488.759 590.494 486.616 585.09 485.537C585.161 485.721 585.231 485.905 585.3 486.09M600.202 491.844L599.912 492.252C599.913 492.253 599.915 492.254 599.917 492.255M599.917 492.255C595.489 489.268 590.524 487.175 585.3 486.09M585.3 486.09C585.108 486.05 584.915 486.011 584.722 485.974C585.265 487.4 585.751 488.838 586.213 490.208L586.219 490.225M585.3 486.09C585.802 487.428 586.255 488.77 586.685 490.043L586.691 490.062L586.219 490.225M586.219 490.225L586.692 490.065L586.692 490.063M586.219 490.225C586.29 490.434 586.364 490.647 586.439 490.863C587.683 494.456 589.276 499.058 588.559 502.746C588.144 504.889 585.359 507.081 583.868 504.425C583.257 503.331 583.363 501.947 583.464 500.622C583.518 499.913 583.571 499.221 583.513 498.599L586.692 490.063M586.692 490.063C586.763 490.271 586.837 490.483 586.911 490.699C587.495 492.385 588.165 494.32 588.634 496.28C589.162 498.488 589.45 500.783 589.05 502.842C588.814 504.058 587.922 505.273 586.847 505.829C586.299 506.113 585.666 506.243 585.036 506.066C584.401 505.887 583.853 505.418 583.432 504.67L583.432 504.669C582.889 503.698 582.852 502.565 582.902 501.528C582.917 501.214 582.942 500.886 582.967 500.57C582.982 500.371 582.997 500.177 583.008 499.995C583.04 499.502 583.053 499.052 583.015 498.645L583.015 498.642C582.6 493.93 580.185 489.199 577.994 485.005L577.989 484.996L577.985 484.987C577.983 484.982 577.98 484.978 577.978 484.973L575.859 484.768C575.857 484.768 575.856 484.768 575.855 484.768C571.724 484.432 567.573 484.448 563.447 484.817C565.609 486.732 567.298 489.467 567.076 492.531C566.971 494.026 566.413 495.722 565.455 496.954C564.487 498.2 563.053 499.026 561.274 498.548C558.846 497.9 557.507 495.646 556.854 493.112C556.258 490.804 556.193 488.138 556.443 485.865M586.692 490.063L556.443 485.865M539.492 498.965C539.886 499.506 540.275 500.053 540.665 500.601C542.816 503.621 544.991 506.675 547.924 509.059L547.925 509.06C548.066 509.174 548.234 509.314 548.424 509.473C549.167 510.095 550.246 510.998 551.357 511.687C552.056 512.121 552.804 512.494 553.525 512.659C554.251 512.826 555.011 512.793 555.647 512.322L539.492 498.965ZM539.492 498.965C538.674 501.234 538.167 503.605 537.984 506.013L537.983 506.026L537.983 506.025C537.624 509.58 537.687 513.164 538.172 516.703C539.199 516.608 540.25 516.343 541.332 516.021C541.733 515.901 542.142 515.772 542.555 515.642C543.398 515.377 544.258 515.107 545.101 514.898C547.654 514.267 550.303 514.137 552.808 516.248L552.819 516.258L552.83 516.268C552.946 516.378 553.039 516.511 553.102 516.658C553.165 516.805 553.197 516.964 553.197 517.124C553.197 517.284 553.165 517.443 553.102 517.59C553.039 517.737 552.946 517.87 552.83 517.98L552.818 517.992L552.805 518.003C551.441 519.133 549.639 519.535 547.871 519.699C546.981 519.782 546.078 519.806 545.222 519.824C545.145 519.826 545.068 519.828 544.992 519.829C544.215 519.846 543.485 519.861 542.818 519.914C541.524 520.016 540.245 520.104 538.956 520.184M539.492 498.965L538.956 520.184M556.443 485.865C553.729 486.474 551.09 487.382 548.574 488.572C545.102 490.266 542.292 493.062 540.581 496.519C544.026 500.8 548.386 503.698 552.927 506.715L552.94 506.724C552.94 506.724 552.94 506.724 552.94 506.724C553.493 507.091 554.743 507.932 555.586 508.898C556.004 509.375 556.377 509.945 556.465 510.552C556.51 510.867 556.478 511.191 556.337 511.505C556.197 511.816 555.962 512.088 555.647 512.322L556.443 485.865ZM591.122 513.815L591.138 513.82C591.727 513.992 592.145 514.398 592.443 514.835C592.74 515.271 592.942 515.772 593.09 516.201L593.094 516.211L593.097 516.222C593.132 516.342 593.145 516.466 593.136 516.589C593.634 517.69 593.818 518.909 593.667 520.11C593.586 520.755 593.375 521.526 592.985 522.157C592.593 522.791 591.974 523.348 591.086 523.381L591.08 523.381C590.069 523.407 589.26 522.724 588.712 521.979C588.153 521.22 587.77 520.276 587.633 519.515L591.122 513.815ZM591.122 513.815L591.105 513.811M591.122 513.815L591.105 513.811M591.105 513.811C590.697 513.722 590.273 513.749 589.88 513.888C589.487 514.027 589.141 514.273 588.881 514.598L591.105 513.811ZM581.429 533.25L581.747 532.864C581.136 532.362 580.369 532.093 579.579 532.104C578.79 532.114 578.029 532.404 577.433 532.921C576.836 533.438 576.442 534.15 576.32 534.93C576.198 535.71 576.355 536.507 576.765 537.182L581.429 533.25ZM581.429 533.25L581.755 532.871C581.877 532.975 581.974 533.105 582.041 533.25C582.107 533.396 582.142 533.554 582.142 533.714C582.142 533.874 582.108 534.033 582.041 534.178C582.028 534.206 582.014 534.233 581.999 534.259C582.203 534.833 582.27 535.449 582.193 536.056C582.103 536.765 581.821 537.435 581.376 537.995L581.367 538.007L581.356 538.019C580.676 538.774 579.738 538.956 578.881 538.753C578.037 538.553 577.247 537.98 576.765 537.182L581.429 533.25ZM618.826 528.658C618.675 528.818 618.52 528.98 618.361 529.143L618.87 529.336C618.862 529.11 618.847 528.884 618.826 528.658ZM570.941 508.27L571.728 508.824V508.678C571.827 508.711 571.927 508.738 572.03 508.759C572.433 508.845 572.85 508.838 573.25 508.739C573.65 508.64 574.022 508.452 574.339 508.189C574.656 507.926 574.909 507.594 575.08 507.219L575.081 507.218C575.447 506.408 575.535 505.501 575.331 504.636C575.128 503.775 574.647 503.004 573.962 502.444C573.824 502.323 573.658 502.24 573.481 502.202C573.201 501.986 572.879 501.831 572.536 501.746C572.142 501.648 571.73 501.645 571.335 501.737C570.94 501.829 570.572 502.014 570.262 502.276C569.954 502.537 569.712 502.866 569.555 503.238C569.167 504.107 569.092 505.083 569.344 506C569.596 506.919 570.161 507.722 570.941 508.27Z" fill="#FFE5D7" stroke="#F55E00"/>
<path d="M611.647 569.224L609.268 569.136C608.462 566.724 607.536 564.354 606.493 562.035C606.206 561.413 605.92 560.791 605.604 560.169C599.86 548.417 591.527 538.12 581.232 530.05C580.087 529.063 581.726 527.502 582.882 528.411C593.373 536.657 601.863 547.17 607.717 559.162C607.846 559.458 607.984 559.744 608.092 560.031C609.483 563.012 610.671 566.083 611.647 569.224ZM623.981 569.373H621.651C621.226 566.134 620.723 562.885 620.17 559.675C619.182 554.076 618.076 548.507 616.861 542.986C614.235 531.304 611.154 519.741 608.043 508.177C605.011 496.88 601.743 485.632 594.781 476.044C593.882 474.849 595.907 473.694 596.756 474.888C603.451 484.082 606.809 494.796 609.761 505.669C613.267 518.566 616.674 531.502 619.547 544.557C620.634 549.573 621.651 554.609 622.51 559.675C623.112 562.875 623.557 566.163 623.981 569.373ZM651.612 516.245C648.612 522.388 646.09 528.753 644.067 535.284C643.761 536.271 643.484 537.15 643.218 538.079C641.125 545.338 639.495 552.723 638.34 560.189C637.856 563.092 637.451 566.045 637.095 568.977C636.345 568.977 635.565 569.066 634.765 569.086C635.14 566.124 635.545 563.072 636.029 560.08C637.07 553.426 638.471 546.833 640.226 540.33C640.561 539.135 640.887 537.911 641.272 536.716C643.462 529.299 646.259 522.076 649.637 515.119C650.259 513.717 652.253 514.892 651.612 516.245Z" fill="#F55E00"/>
<path d="M673.09 551.795C667.106 547.845 661.132 543.767 655.098 539.856C651.721 537.684 648.393 536.064 644.354 537.545C643.966 537.701 643.586 537.879 643.218 538.079C642.113 538.662 641.098 539.404 640.206 540.281C639.044 541.42 638.028 542.7 637.185 544.092C634.41 548.694 633.037 554.175 632.247 559.892C631.832 562.973 631.586 566.124 631.408 569.214C630.677 569.214 629.927 569.274 629.146 569.303C629.344 566.193 629.571 562.973 629.986 559.804C630.973 551.904 633.077 544.349 638.113 539.185C639.04 538.215 640.085 537.366 641.224 536.657C642.103 536.084 643.048 535.62 644.038 535.274C646.535 534.383 649.27 534.421 651.74 535.383C655.226 536.745 658.485 539.451 661.615 541.515C665.802 544.31 669.999 547.085 674.196 549.879C675.45 550.669 674.295 552.595 673.09 551.795V551.795Z" fill="#F55E00"/>
<path d="M183.771 308.241L184.358 307.308L217.765 328.329L217.178 329.262L183.771 308.241Z" fill="#010101"/>
<path d="M196.926 252.848L197.514 252.457L235.614 309.695L235.027 310.086L196.926 252.848Z" fill="#010101"/>
<path d="M250.748 260.637L251.584 260.58L254.639 305.279L253.803 305.336L250.748 260.637Z" fill="#010101"/>
</svg>
