<svg width="155" height="131" viewBox="0 0 155 131" fill="none" xmlns="http://www.w3.org/2000/svg">
<path fill-rule="evenodd" clip-rule="evenodd" d="M94.1465 126.59L116.368 126.59L116.368 92.9138C116.227 93.0356 116.088 93.1606 115.953 93.2886C111.182 97.8001 110.406 106.035 110.332 110.113C110.305 111.599 110.372 112.534 110.372 112.534C110.265 111.737 110.108 110.941 109.916 110.159C108.815 105.699 106.537 101.671 105.665 100.232C105.445 99.8695 105.315 99.6711 105.315 99.6711C105.286 99.8906 105.26 100.109 105.236 100.326C104.66 105.428 105.188 109.793 105.617 112.186C105.841 113.434 106.039 114.146 106.039 114.146C105.78 113.519 105.506 112.909 105.218 112.315C101.037 103.693 94.0319 98.6194 92.2262 97.4122C91.9461 97.225 91.7911 97.1308 91.7911 97.1308C91.8017 97.3031 91.8133 97.4746 91.826 97.6454C92.5489 107.394 96.5919 114.704 98.719 117.938C99.504 119.131 100.028 119.769 100.028 119.769C99.471 119.222 98.9278 118.702 98.3985 118.207C90.333 110.654 85.5082 108.844 84.0678 108.442C83.7626 108.357 83.6094 108.335 83.6094 108.335C83.6488 108.485 83.6887 108.635 83.729 108.783C87.1839 121.474 94.1419 126.586 94.1419 126.586L94.1465 126.59ZM94.2899 126.175L115.953 126.175L115.953 93.8698C113.069 96.792 111.75 101.189 111.169 105.028C110.859 107.084 110.763 108.956 110.745 110.314C110.736 110.993 110.747 111.543 110.759 111.922C110.766 112.111 110.772 112.258 110.778 112.357C110.78 112.406 110.783 112.444 110.784 112.468L110.786 112.496L110.786 112.503L110.786 112.504C110.786 112.504 110.786 112.504 110.785 112.504L109.959 112.588C109.534 109.407 108.291 106.236 107.143 103.849C106.571 102.659 106.026 101.668 105.624 100.977C105.613 100.958 105.602 100.939 105.591 100.921C105.245 104.433 105.418 107.564 105.696 109.888C105.85 111.179 106.037 112.22 106.185 112.936C106.259 113.294 106.323 113.571 106.369 113.757C106.391 113.85 106.409 113.921 106.421 113.968C106.428 113.991 106.432 114.008 106.435 114.02L106.439 114.032L106.44 114.035C106.44 114.035 106.44 114.035 106.438 114.036L105.654 114.304C103.385 108.799 99.8639 104.591 96.9037 101.757C95.4244 100.341 94.088 99.2701 93.123 98.5546C92.7899 98.3076 92.5011 98.103 92.2662 97.9412C92.7908 104.317 94.7409 109.622 96.5971 113.379C97.5652 115.338 98.5068 116.874 99.205 117.919C99.554 118.441 99.842 118.84 100.042 119.107C100.142 119.241 100.22 119.342 100.272 119.408C100.298 119.442 100.318 119.467 100.331 119.483L100.346 119.501L100.35 119.506C100.35 119.506 100.35 119.506 100.348 119.507L99.7366 120.065C94.3349 114.768 90.2595 111.934 87.549 110.426C86.1939 109.672 85.1802 109.25 84.5125 109.018C84.3966 108.977 84.291 108.943 84.196 108.913C85.8878 115.003 88.3877 119.3 90.4874 122.093C91.5763 123.542 92.5582 124.586 93.2645 125.266C93.6177 125.606 93.902 125.855 94.0964 126.018C94.1768 126.085 94.2418 126.137 94.2899 126.175Z" fill="#040404"/>
<path d="M129.977 105.919L138.449 114.966C138.449 114.966 136.501 119.923 131.22 120.802L120.631 111.995L129.977 105.919Z" fill="#FCFBF7"/>
<path d="M126.579 44.8125L117.771 42.513C117.771 42.513 118.605 50.4647 119.093 56.9171L100.492 51.0166C100.492 51.0166 100.708 47.972 100.059 43.9203L97.7756 45.9715C93.3741 42.6234 89.8704 38.5027 88.4062 36.6631C91.7903 33.0299 95.8189 28.0814 99.2075 26.6051C102.426 25.2024 107.081 25.299 110.096 25.8463C113.614 26.4855 115.902 25.4921 117.831 25.9336C125.861 27.7594 130.801 34.9983 130.801 34.9983C130.75 38.6453 128.927 41.8002 126.579 44.8125Z" fill="#040404"/>
<path style="mix-blend-mode:multiply" opacity="0.6" d="M117.771 42.5123L117.531 40.061L126.578 44.8118L117.771 42.5123Z" fill="url(#paint0_linear_1597_29430)"/>
<path d="M62.2419 106.159L58.3008 117.905C58.3008 117.905 62.136 121.602 67.3064 120.213L73.2734 107.805L62.2465 106.159H62.2419Z" fill="#FCFBF7"/>
<path d="M100.492 51.0161C100.492 51.0161 74.1746 74.333 71.9094 77.5018C69.6396 80.6705 60.2012 110.826 60.2012 110.826C64.506 113.696 71.6148 115.954 76.1636 115.388L85.5928 87.5598L106.841 71.3575L110.096 54.0606L100.492 51.0161Z" fill="#C4C4C4"/>
<path d="M97.2056 66.8276L92.5186 82.2803L86.1557 87.1368L86.1465 87.1414L97.2056 66.8276Z" fill="#040404"/>
<path d="M103.879 51.8623C103.879 51.8623 90.8405 78.5457 90.4216 85.2418C90.1776 89.174 117.093 117.278 117.093 117.278C122.558 117.278 129.906 110.881 131.094 106.085L109.524 83.2827L114.906 69.2373C114.906 69.2373 120.505 64.3808 118.967 56.6499L103.879 51.8669V51.8623Z" fill="#D9D9D9"/>
<path d="M35.3374 30.1051C32.984 29.491 31.575 27.0856 32.1904 24.7326C32.8057 22.3795 35.2124 20.9698 37.5658 21.5839L148.572 50.5495C150.292 50.9981 151.401 52.4617 151.047 53.8144L150.101 57.432C149.748 58.7847 148.063 59.5193 146.344 59.0706L35.3374 30.1051Z" fill="#F55E00"/>
<path d="M114.645 17.9725C114.673 17.9035 114.696 17.8299 114.723 17.7609V17.7517C116.141 13.7138 116.395 9.38152 111.583 7.99722C104.723 6.02425 103.204 11.3131 102.891 13.3551C102.545 15.6362 101.961 21.6517 104.373 22.875C105.239 23.3119 106.266 23.5326 107.329 23.5326L106.418 27.0325C106.537 27.8327 107.702 28.8031 109.429 29.0284C112.665 29.4516 114.907 27.3406 114.907 27.3406C113.089 23.1233 114.304 18.9612 114.645 17.9725Z" fill="#FFE5D7"/>
<path fill-rule="evenodd" clip-rule="evenodd" d="M114.255 17.828L114.259 17.8185C114.269 17.793 114.279 17.7651 114.292 17.7281L114.293 17.7252C114.298 17.7129 114.302 17.6995 114.307 17.6854V17.6811L114.331 17.6145C115.032 15.617 115.42 13.6116 115.082 11.9625C114.915 11.1466 114.571 10.4227 114.001 9.82294C113.431 9.22233 112.614 8.72549 111.468 8.39587C109.804 7.91728 108.495 7.88805 107.467 8.11961C106.441 8.35039 105.669 8.84556 105.082 9.4574C103.895 10.6953 103.454 12.4246 103.302 13.4174C103.131 14.5459 102.903 16.5875 103.013 18.4878C103.068 19.4391 103.206 20.3326 103.466 21.0514C103.728 21.7741 104.092 22.2668 104.562 22.5051C105.361 22.9083 106.321 23.1177 107.329 23.1177H107.867L106.844 27.0436C106.909 27.2819 107.131 27.6022 107.562 27.9081C108.024 28.2366 108.682 28.5125 109.483 28.6171C110.997 28.8151 112.283 28.421 113.198 27.9711C113.655 27.7463 114.015 27.5092 114.26 27.3296C114.315 27.2894 114.364 27.2522 114.407 27.2187C112.699 22.9563 113.909 18.8329 114.252 17.8376L114.255 17.828ZM114.907 27.3406C114.907 27.3406 112.665 29.4516 109.429 29.0284C107.702 28.8031 106.537 27.8327 106.418 27.0325L107.329 23.5326C107.186 23.5326 107.044 23.5287 106.903 23.5207C105.992 23.4694 105.123 23.2532 104.373 22.875C101.961 21.6517 102.545 15.6362 102.891 13.3551C103.204 11.3131 104.723 6.02425 111.583 7.99722C116.395 9.38152 116.141 13.7138 114.723 17.7517V17.7609C114.71 17.7954 114.697 17.831 114.684 17.8667C114.672 17.9023 114.659 17.938 114.645 17.9725C114.304 18.9612 113.089 23.1233 114.907 27.3406Z" fill="#040404"/>
<path d="M137.969 44.3898C136.965 41.0693 131.491 35.9092 130.791 35.2607C130.694 37.8914 129.677 40.2691 128.217 42.5226C124.538 43.6953 116.523 46.1512 113.613 46.2524C113.613 46.2524 111.785 45.7695 110.639 45.4429C109.492 45.121 108.373 45.4153 106.79 45.1486C105.376 44.914 105.482 46.1466 106.2 46.7491C107.075 47.4803 108.88 47.6091 108.935 47.8804C109.069 48.5243 106.223 48.4461 105.602 48.4369L102.83 47.7148C102.83 47.7148 102.793 49.2187 105.468 50.2443C108.143 51.2699 113.931 51.0123 113.931 51.0123C113.931 51.0123 127.434 51.9735 135.275 48.3817C135.625 48.2575 135.952 48.0966 136.247 47.8988C136.256 47.8942 136.27 47.8896 136.279 47.8804C137.591 46.9928 138.309 45.5027 137.969 44.3852V44.3898Z" fill="#FFE5D7"/>
<path fill-rule="evenodd" clip-rule="evenodd" d="M137.572 44.5094L137.571 44.5096C137.338 43.7407 136.836 42.8374 136.18 41.8895C135.527 40.9469 134.739 39.9838 133.954 39.0979C132.873 37.8771 131.81 36.813 131.14 36.1646C130.869 38.5432 129.887 40.7092 128.566 42.7477L128.486 42.8726L128.344 42.9178C126.502 43.5049 123.572 44.414 120.737 45.1894C117.92 45.9597 115.14 46.6144 113.627 46.667L113.566 46.6691L113.506 46.6534L113.613 46.2524C116.523 46.1512 124.538 43.6953 128.217 42.5226C129.576 40.4239 130.552 38.2174 130.758 35.7993C130.773 35.621 130.784 35.4414 130.791 35.2607C130.869 35.3327 131.005 35.4603 131.188 35.6347C132.64 37.022 137.013 41.3751 137.949 44.3264C137.955 44.346 137.961 44.3656 137.967 44.3852C137.967 44.385 137.967 44.3853 137.967 44.3852C137.968 44.3866 137.968 44.3884 137.969 44.3898V44.3852C137.969 44.3866 137.97 44.388 137.97 44.3894C137.97 44.3892 137.97 44.3895 137.97 44.3894C137.976 44.4088 137.981 44.4287 137.987 44.4483C138.282 45.5583 137.567 47.0094 136.279 47.8804C136.272 47.8874 136.262 47.8918 136.254 47.8955C136.251 47.8966 136.249 47.8977 136.247 47.8988C135.952 48.0966 135.625 48.2575 135.275 48.3817C127.434 51.9735 113.931 51.0123 113.931 51.0123L113.96 50.5985L113.962 50.5986L113.969 50.5991L113.997 50.601C114.022 50.6026 114.06 50.6051 114.11 50.6081C114.209 50.6142 114.356 50.6227 114.547 50.6322C114.928 50.6513 115.483 50.6747 116.173 50.6916C117.554 50.7254 119.477 50.7333 121.643 50.6295C125.989 50.4213 131.258 49.7656 135.102 48.0046L135.119 47.997L135.136 47.9908C135.456 47.8772 135.751 47.7312 136.015 47.5545L136.037 47.5397L136.055 47.5305C136.648 47.1268 137.103 46.5905 137.369 46.0389C137.638 45.4822 137.702 44.9411 137.572 44.5094ZM102.929 48.1695C103.127 48.6946 103.715 49.5721 105.468 50.2443C108.143 51.2699 113.931 51.0123 113.931 51.0123L113.96 50.5985L113.936 50.5968L113.912 50.5978L113.911 50.5979L113.909 50.598L113.897 50.5985L113.849 50.6004C113.807 50.602 113.745 50.6042 113.664 50.6067C113.502 50.6117 113.268 50.6177 112.979 50.6217C112.399 50.6297 111.599 50.6299 110.717 50.5983C108.934 50.5344 106.883 50.3421 105.617 49.857C104.346 49.3696 103.764 48.7871 103.496 48.3704C103.482 48.3489 103.469 48.3276 103.456 48.3068L105.545 48.851L105.596 48.8517C105.623 48.8521 105.654 48.8527 105.69 48.8533C106.057 48.8596 106.859 48.8733 107.584 48.8172C107.977 48.7868 108.38 48.7338 108.686 48.6351C108.835 48.5869 109.003 48.5152 109.134 48.398C109.282 48.2651 109.396 48.055 109.343 47.7971C109.317 47.6721 109.248 47.5855 109.195 47.534C109.142 47.4823 109.084 47.4457 109.038 47.4203C108.946 47.3699 108.837 47.3301 108.736 47.2973C108.597 47.2525 108.421 47.2051 108.238 47.1558C108.155 47.1334 108.07 47.1106 107.987 47.0875C107.411 46.9278 106.827 46.7314 106.468 46.4313C106.184 46.1935 106.077 45.8712 106.106 45.7046C106.116 45.6442 106.14 45.6102 106.192 45.5832C106.26 45.5478 106.417 45.5075 106.721 45.5578M110.525 45.8421C111.101 46.0062 111.847 46.2091 112.447 46.3707C112.748 46.4516 113.013 46.5222 113.202 46.5727C113.297 46.5979 113.373 46.6181 113.425 46.632L113.506 46.6534L113.613 46.2524C113.613 46.2524 111.785 45.7695 110.639 45.4429C110.039 45.2745 109.446 45.2748 108.791 45.2751C108.194 45.2754 107.545 45.2757 106.79 45.1486C105.376 44.914 105.482 46.1466 106.2 46.7491C106.709 47.1744 107.533 47.3959 108.144 47.5602C108.583 47.6783 108.912 47.7669 108.935 47.8804C109.063 48.4957 106.47 48.4516 105.697 48.4384C105.661 48.4378 105.629 48.4373 105.602 48.4369L102.83 47.7148C102.83 47.7148 102.826 47.8934 102.929 48.1695" fill="#040404"/>
<path d="M115.953 17.7471C114.779 19.9592 113.951 21.7666 113.951 21.7666L113.334 22.1253L112.823 19.8488C113.03 19.6143 113.219 19.2924 113.389 18.8693C113.697 18.1058 114.121 16.2294 112.39 16.0041C110.963 15.8247 110.571 17.1676 110.484 17.8207C110.465 17.9311 110.451 18.0736 110.438 18.2346C110.115 18.0414 109.821 17.7609 109.627 17.3516C108.877 15.7833 109.439 14.4266 109.439 14.4266C109.439 14.4266 105.106 15.0705 102.786 13.3918C100.465 11.7178 100.276 7.34415 101.064 6.6727C102.233 5.67932 104.296 7.99722 104.508 8.23636C104.425 8.09839 103.964 7.31656 104.508 6.86586C105.023 6.43355 106.276 7.79486 106.276 7.79486C106.276 7.79486 105.152 5.10444 106.423 4.54796C108.214 3.77073 111.073 6.79227 111.23 6.96704C111.193 6.83366 110.571 4.87909 112.431 5.24701C113.693 5.49076 115.907 10.2921 115.907 10.2921C119.756 11.2027 117.127 15.5442 115.953 17.7471Z" fill="#040404"/>
<path d="M107.333 22.9579C107.333 22.9579 109.576 22.7739 110.662 21.4448C109.981 23.0729 110.137 24.2272 106.873 24.7193L107.333 22.9579Z" fill="#040404"/>
<path d="M77.4759 41.1051C77.4759 41.1051 76.2742 39.7714 75.3166 39.3989C74.4418 39.0586 73.3 39.2012 72.2502 39.2885L70.4638 38.3503C70.4638 38.3503 69.9988 37.7157 69.4509 37.2696C68.659 36.6211 67.9638 37.0258 67.9177 37.288C67.8901 37.4489 68.3045 38.1618 68.7695 38.824C68.7695 38.824 67.3238 37.872 66.6608 37.6099C66.1636 37.4121 65.4868 37.5593 65.4131 37.9502C65.298 38.5665 67.2363 40.0198 67.7888 40.4245C68.461 40.912 71.9832 41.864 71.9832 41.864L74.8377 43.2667C74.8377 43.2667 82.3793 48.8958 86.6841 50.3905C90.9844 51.8898 93.9264 48.1186 93.9264 48.1186C94.4835 47.4518 95.5793 45.8237 95.5793 45.8237C95.5793 45.8237 82.9226 42.5216 77.4667 41.1005L77.4759 41.1051Z" fill="#FFE5D7"/>
<path fill-rule="evenodd" clip-rule="evenodd" d="M77.4093 41.32L77.29 41.4763L77.2808 41.4717L77.3897 41.1825C77.1666 41.3825 77.1667 41.3825 77.1667 41.3826L77.1663 41.3822L77.1643 41.3799L77.1553 41.37C77.1471 41.3611 77.1346 41.3475 77.1181 41.3299C77.0852 41.2947 77.0366 41.2433 76.9751 41.1803C76.8519 41.0539 76.6782 40.8819 76.4761 40.6991C76.0591 40.322 75.5676 39.9419 75.1655 39.7855C74.7994 39.643 74.356 39.5944 73.8522 39.5982C73.4423 39.6014 73.0202 39.6382 72.5883 39.6759C72.4877 39.6847 72.3865 39.6935 72.2848 39.702L72.1639 39.7121L70.1849 38.6727L70.1283 38.5954L70.1277 38.5946L70.1246 38.5904L70.1108 38.5721C70.0984 38.5557 70.0796 38.5311 70.0552 38.5C70.0062 38.4376 69.935 38.3493 69.8475 38.2477C69.6704 38.0422 69.4352 37.7923 69.188 37.591L69.1871 37.5903C68.8761 37.3356 68.6272 37.3174 68.4824 37.3449C68.4387 37.3532 68.4024 37.3659 68.3736 37.3795C68.4077 37.4546 68.4573 37.5509 68.5214 37.6648C68.6714 37.9312 68.8834 38.2632 69.1101 38.586L68.5405 39.1703L68.5368 39.1679L68.525 39.1602L68.4791 39.1302C68.439 39.1042 68.3808 39.0665 68.3088 39.0204C68.1647 38.9282 67.9659 38.8027 67.747 38.6693C67.2982 38.3958 66.8007 38.1115 66.5076 37.9956L66.5069 37.9953C66.3433 37.9302 66.1397 37.9211 65.9805 37.9614C65.8912 37.984 65.8495 38.0106 65.8311 38.0266C65.8335 38.0336 65.8368 38.0422 65.8413 38.0524C65.8662 38.11 65.9135 38.1892 65.9895 38.2893C66.1411 38.4889 66.3684 38.7212 66.6309 38.9602C67.1524 39.435 67.7595 39.8883 68.034 40.0894C68.1492 40.1726 68.4409 40.3058 68.8729 40.4663C69.2873 40.6202 69.7823 40.7823 70.2614 40.9308C70.7396 41.079 71.1976 41.2123 71.5363 41.3086C71.7055 41.3567 71.8448 41.3955 71.9415 41.4223C71.9899 41.4357 72.0277 41.446 72.0533 41.453L72.0823 41.4609L72.0918 41.4635L71.9832 41.864C71.9832 41.864 68.461 40.912 67.7888 40.4245C67.2363 40.0198 65.298 38.5665 65.4131 37.9502C65.4868 37.5593 66.1636 37.4121 66.6608 37.6099C66.9827 37.7372 67.4892 38.0271 67.925 38.2917C68.3869 38.5721 68.7695 38.824 68.7695 38.824C68.57 38.5399 68.3798 38.2465 68.2299 37.9913C68.0303 37.6517 67.902 37.3799 67.9177 37.288C67.9638 37.0258 68.659 36.6211 69.4509 37.2696C69.9988 37.7157 70.4638 38.3503 70.4638 38.3503L72.2502 39.2885C72.3479 39.2804 72.4463 39.2718 72.5453 39.2632C73.5101 39.1788 74.5232 39.0903 75.3166 39.3989C76.1704 39.7311 77.2183 40.8274 77.4354 41.0611C77.4501 41.077 77.4611 41.0888 77.4678 41.0962C77.468 41.0965 77.4683 41.0967 77.4685 41.097C77.4705 41.0992 77.4721 41.1009 77.4733 41.1023C77.4745 41.1026 77.4757 41.1029 77.4769 41.1032C77.4772 41.1033 77.4775 41.1034 77.4778 41.1034C77.5045 41.1104 77.5315 41.1174 77.5586 41.1245C82.4591 42.401 92.9163 45.129 95.1528 45.7125C95.4285 45.7844 95.5793 45.8237 95.5793 45.8237C95.5793 45.8237 95.4823 45.9678 95.3313 46.1879C94.9749 46.7074 94.3177 47.6502 93.9264 48.1186C93.9264 48.1186 90.9844 51.8898 86.6841 50.3905C82.3793 48.8958 74.8377 43.2667 74.8377 43.2667C75.0868 42.9345 75.0868 42.9345 75.0869 42.9345L75.1078 42.9501L75.171 42.9968C75.2267 43.038 75.3092 43.0988 75.4159 43.1768C75.6293 43.3327 75.9393 43.5574 76.3248 43.8318C77.0962 44.3808 78.1691 45.1281 79.3755 45.9217C81.8011 47.5172 84.7233 49.2704 86.8208 49.9987L86.8213 49.9988C88.8225 50.6966 90.5038 50.1731 91.7053 49.4602C92.3077 49.1027 92.7846 48.6997 93.1108 48.3858C93.2735 48.2292 93.3977 48.0958 93.4801 48.0028C93.5213 47.9563 93.5521 47.9201 93.5719 47.8961C93.5773 47.8896 93.5819 47.884 93.5857 47.8793C93.5888 47.8755 93.5914 47.8723 93.5934 47.8698L93.5982 47.8638L93.5986 47.8634L93.6025 47.8583L93.607 47.853C93.8726 47.535 94.2763 46.9752 94.6209 46.4834C94.7232 46.3374 94.8193 46.1988 94.9037 46.0763L93.4112 45.687C92.1394 45.3552 90.3868 44.898 88.4638 44.3964C84.6176 43.3933 80.0895 42.2125 77.3616 41.502L77.4093 41.32ZM74.8377 43.2667L75.0869 42.9345L75.056 42.9114L72.1308 41.474L72.0918 41.4635L71.9832 41.864L74.8377 43.2667ZM68.328 37.2608C68.3281 37.2609 68.3287 37.263 68.3293 37.2669C68.3282 37.2627 68.3279 37.2607 68.328 37.2608ZM68.3001 37.4295C68.2999 37.4295 68.3009 37.4282 68.3033 37.4257C68.3014 37.4283 68.3002 37.4296 68.3001 37.4295Z" fill="#040404"/>
<path style="mix-blend-mode:multiply" d="M70.5103 40.1114C70.5103 40.1114 69.0186 39.5918 68.7147 39.3388C68.6273 39.2652 68.305 38.7134 68.1484 38.4282C68.5076 38.6536 68.7746 38.8283 68.7746 38.8283C68.7746 38.8283 68.991 39.1319 69.1752 39.3388C69.2442 39.417 70.5103 40.1114 70.5103 40.1114Z" fill="url(#paint1_linear_1597_29430)"/>
<g style="mix-blend-mode:multiply">
<path fill-rule="evenodd" clip-rule="evenodd" d="M68.7746 38.8283C68.7746 38.8283 68.5076 38.6536 68.1484 38.4282C68.2359 38.5875 68.3751 38.8301 68.4962 39.026C68.5214 39.0668 68.5459 39.1056 68.5689 39.1413C68.6331 39.2405 68.6863 39.3149 68.7147 39.3388C68.7711 39.3857 68.8684 39.4419 68.9894 39.5021C68.9897 39.5023 68.99 39.5024 68.9903 39.5026C69.5219 39.7671 70.5103 40.1114 70.5103 40.1114C70.5103 40.1114 69.2442 39.417 69.1752 39.3388C69.0993 39.2536 69.018 39.152 68.9486 39.062C68.9483 39.0615 68.9479 39.061 68.9475 39.0605C68.8489 38.9326 68.7746 38.8283 68.7746 38.8283Z" fill="#040404"/>
</g>
<g style="mix-blend-mode:multiply">
<path d="M77.4766 41.1055L88.4067 44.6467L88.7612 44.0442L77.4766 41.1055Z" fill="#FFE5D7"/>
</g>
<g style="mix-blend-mode:multiply">
<path fill-rule="evenodd" clip-rule="evenodd" d="M88.4067 44.6467L77.4766 41.1055L88.7612 44.0442L88.4067 44.6467Z" fill="#040404"/>
</g>
<path d="M144.258 126.504H118.954C118.954 126.504 118.894 125.87 118.963 124.968C119.073 123.446 119.543 121.151 121.247 119.831C122.853 118.589 124.93 118.309 126.721 118.364C126.707 118.065 126.73 117.771 126.822 117.541C126.859 117.435 126.91 117.348 126.979 117.274C127.568 116.662 132.034 116.193 133.148 116.782C133.65 117.044 134.12 117.555 134.479 118.042C136.03 117.44 137.642 116.478 138.448 114.965C138.448 114.965 140.469 114.929 141.38 116.75C141.942 117.877 142.868 120.944 143.526 123.423C144.534 124.444 144.258 126.504 144.258 126.504Z" fill="#F55E00"/>
<g style="mix-blend-mode:multiply">
<path d="M144.258 126.504H118.954C118.954 126.504 118.894 125.869 118.963 124.968H119.543C119.732 124.968 119.902 124.853 119.967 124.674C120.303 123.731 121.072 123.561 121.072 123.561C121.072 123.561 122.158 123.326 123.277 123.561C123.779 123.666 124.202 123.961 124.52 124.255C125.008 124.71 125.644 124.968 126.311 124.968H138.088C139.737 124.968 140.391 123.804 141.749 123.551C142.886 123.34 143.079 123.386 143.531 123.423C144.539 124.444 144.263 126.504 144.263 126.504H144.258Z" fill="#F55E00"/>
</g>
<g style="mix-blend-mode:multiply">
<path d="M132.784 119.932C130.358 118.414 126.72 118.364 126.72 118.364C126.707 118.065 126.73 117.771 126.822 117.541C131.025 117.527 132.678 119.817 132.784 119.932Z" fill="#F55E00"/>
</g>
<path d="M69.1241 116.432C69.1241 116.432 70.1508 116.543 70.6204 118.424C71.09 120.305 71.219 123.644 71.219 123.644C71.219 123.644 71.8773 124.83 71.8773 126.504H45.0031C45.0031 126.504 44.644 121.537 47.4571 119.504C50.7215 117.145 57.2363 118.208 57.2363 118.208C57.2363 118.208 58.0328 116.704 58.6543 116.308C59.2713 115.913 60.5098 116.635 61.6977 118.382C62.798 118.824 67.904 118.336 69.1287 116.432H69.1241Z" fill="#F55E00"/>
<g style="mix-blend-mode:multiply">
<path d="M71.8775 126.504H45.0033C45.0033 126.504 44.9112 125.23 45.1829 123.708H46.647C46.8496 123.708 47.2041 124.007 47.4987 124.297C47.8348 124.623 48.2814 124.812 48.7557 124.816C52.2686 124.849 66.6472 124.964 67.2274 124.807C67.8857 124.632 68.2863 123.952 69.2302 123.644C70.1786 123.34 71.2191 123.644 71.2191 123.644C71.2191 123.644 71.8775 124.83 71.8775 126.504Z" fill="#F55E00"/>
</g>
<g style="mix-blend-mode:multiply">
<path d="M59.668 118.842C58.6091 118.488 57.2324 118.208 57.2324 118.208C57.2324 118.208 57.4166 117.853 57.6836 117.449C59.0511 118.056 59.668 118.842 59.668 118.842Z" fill="#F55E00"/>
</g>
<path d="M109.378 53.8354C109.378 53.8354 107.274 59.2439 111.446 61.7687L113.932 55.2795L109.378 53.8354Z" fill="#040404"/>
<path d="M109.651 83.55L107.717 81.3057C107.717 81.3057 109.558 81.5678 110.511 81.3057L109.651 83.55Z" fill="#040404"/>
<path fill-rule="evenodd" clip-rule="evenodd" d="M0.767578 126.509C0.767578 126.381 0.871836 126.277 1.00044 126.277H154.637C154.765 126.277 154.87 126.381 154.87 126.509C154.87 126.638 154.765 126.742 154.637 126.742H1.00044C0.871836 126.742 0.767578 126.638 0.767578 126.509Z" fill="#040404"/>
<path fill-rule="evenodd" clip-rule="evenodd" d="M36.6016 130C36.6016 129.872 36.7058 129.768 36.8344 129.768H84.3425C84.4711 129.768 84.5753 129.872 84.5753 130C84.5753 130.128 84.4711 130.232 84.3425 130.232H36.8344C36.7058 130.232 36.6016 130.128 36.6016 130Z" fill="#040404"/>
<path fill-rule="evenodd" clip-rule="evenodd" d="M114.314 130C114.314 129.872 114.419 129.768 114.547 129.768H134.941C135.07 129.768 135.174 129.872 135.174 130C135.174 130.128 135.07 130.232 134.941 130.232H114.547C114.419 130.232 114.314 130.128 114.314 130Z" fill="#040404"/>
<path fill-rule="evenodd" clip-rule="evenodd" d="M125.889 61.999C123.925 62.5255 122.442 63.2458 121.733 63.8617C121.647 63.9369 121.515 63.9279 121.44 63.8415C121.364 63.7551 121.373 63.6241 121.46 63.5488C122.238 62.8723 123.793 62.1313 125.781 61.5983C127.776 61.0634 130.232 60.7315 132.829 60.8905C138.028 61.2089 143.801 63.4974 147.556 70.0594L147.375 70.1622L147.556 70.0594C147.556 70.0594 147.556 70.0594 147.556 70.0594C150.539 75.2731 151.15 80.4173 150.273 84.8184C150.167 84.6448 150.059 84.4718 149.947 84.2993C150.68 80.0918 150.028 75.2168 147.194 70.2651L147.194 70.2651C143.523 63.8487 137.893 61.6163 132.803 61.3047C130.256 61.1487 127.845 61.4744 125.889 61.999ZM149.947 84.2993C149.912 84.2458 149.877 84.1924 149.841 84.139C147.186 80.138 144.01 78.1007 140.887 77.4812C137.768 76.8623 134.725 77.6637 132.345 79.2968C129.967 80.9289 128.239 83.3993 127.76 86.1328C127.279 88.8736 128.057 91.8591 130.652 94.4982C133.122 97.0105 136.062 97.8453 138.918 97.3928C141.767 96.9415 144.516 95.2133 146.631 92.6332C148.244 90.6669 149.493 88.2017 150.143 85.4165C153.392 91.0682 153.063 97.2694 150.855 102.037C148.503 107.116 144.056 110.506 139.583 109.958C139.469 109.944 139.365 110.025 139.351 110.139C139.337 110.253 139.418 110.356 139.532 110.37C144.258 110.949 148.841 107.375 151.233 102.211C153.541 97.2262 153.842 90.7033 150.273 84.8184M149.832 84.8955C149.723 84.7191 149.611 84.5432 149.495 84.3681C146.89 80.4428 143.802 78.4824 140.806 77.8881C137.808 77.2933 134.878 78.0622 132.581 79.6387C130.282 81.2161 128.627 83.5945 128.169 86.2043C127.713 88.8068 128.443 91.6592 130.949 94.2077C133.326 96.6255 136.131 97.4142 138.853 96.9831C141.582 96.5508 144.245 94.8885 146.309 92.3705C147.962 90.3549 149.228 87.7957 149.832 84.8955Z" fill="#040404"/>
<path d="M38.7362 48.3998L52.0346 51.9591C55.6999 52.94 59.4842 50.7615 60.4674 47.1045L62.2573 40.4469L35.6778 33.3582L33.9005 39.9689C32.8875 43.6431 35.071 47.4189 38.7362 48.3998Z" fill="#F55E00"/>
<path d="M40.2073 19.0626L66.804 26.181L68.5814 19.5703C69.5646 15.9133 67.3811 12.1375 63.7158 11.1565L50.4174 7.59732C46.7522 6.61633 42.9678 8.79488 41.9846 12.4519L40.2073 19.0626Z" fill="#F55E00"/>
<defs>
<linearGradient id="paint0_linear_1597_29430" x1="117.531" y1="42.4387" x2="126.578" y2="42.4387" gradientUnits="userSpaceOnUse">
<stop stop-color="#E4816F"/>
<stop offset="1" stop-color="#E25E52"/>
</linearGradient>
<linearGradient id="paint1_linear_1597_29430" x1="68.1484" y1="39.2698" x2="70.5103" y2="39.2698" gradientUnits="userSpaceOnUse">
<stop stop-color="#FFCBCA"/>
<stop offset="1" stop-color="#E994A8"/>
</linearGradient>
</defs>
</svg>
