<svg width="5" height="5" viewBox="0 0 5 5" fill="none" xmlns="http://www.w3.org/2000/svg">
<path d="M2.5 4.17445e-09C2.98984 -2.82968e-05 3.46889 0.143845 3.87766 0.41375C4.28643 0.683655 4.60691 1.0677 4.79928 1.51818C4.99165 1.96866 5.04745 2.46573 4.95974 2.94766C4.87203 3.42958 4.64467 3.87511 4.30591 4.22893C3.96716 4.58274 3.53192 4.82924 3.05427 4.93782C2.57661 5.04639 2.07758 5.01225 1.61917 4.83963C1.16075 4.66702 0.763143 4.36354 0.475729 3.96688C0.188315 3.57023 0.0237591 3.09788 0.00250006 2.6085L0 2.5L0.00250006 2.3915C0.0304597 1.74788 0.305804 1.13989 0.771111 0.69433C1.23642 0.248771 1.85577 3.72254e-05 2.5 4.17445e-09Z" fill="#040404"/>
</svg>
