<svg width="23" height="21" viewBox="0 0 23 21" fill="none" xmlns="http://www.w3.org/2000/svg">
<path fill-rule="evenodd" clip-rule="evenodd" d="M4 8C3.45 8 3 7.55 3 7V5H1C0.45 5 0 4.55 0 4C0 3.45 0.45 3 1 3H3V1C3 0.45 3.45 0 4 0C4.55 0 5 0.45 5 1V3H7C7.55 3 8 3.45 8 4C8 4.55 7.55 5 7 5H5V7C5 7.55 4.55 8 4 8ZM10.4019 11.5C10.9378 10.5718 11.9282 10 13 10C14.0718 10 15.0622 10.5718 15.5981 11.5C16.134 12.4282 16.134 13.5718 15.5981 14.5C15.0622 15.4282 14.0718 16 13 16C11.9282 16 10.9378 15.4282 10.4019 14.5C9.86602 13.5718 9.86602 12.4282 10.4019 11.5ZM21 5H17.83L16.59 3.65C16.22 3.24 15.68 3 15.12 3H8.72C8.89 3.3 9 3.63 9 4C9 5.1 8.1 6 7 6H6V7C6 8.1 5.1 9 4 9C3.63 9 3.3 8.89 3 8.72V19C3 20.1 3.9 21 5 21H21C22.1 21 23 20.1 23 19V7C23 5.9 22.1 5 21 5ZM8 13C8 15.76 10.24 18 13 18C15.76 18 18 15.76 18 13C18 10.24 15.76 8 13 8C10.24 8 8 10.24 8 13Z" fill="#040404"/>
</svg>
