<svg width="90" height="89" viewBox="0 0 90 89" fill="none" xmlns="http://www.w3.org/2000/svg">
<mask id="path-1-inside-1_749_12984" fill="white">
<path fill-rule="evenodd" clip-rule="evenodd" d="M16.0603 33.3878C14.2149 33.3878 12.705 31.8779 12.705 30.0325V23.3221H5.99455C4.14917 23.3221 2.63931 21.8122 2.63931 19.9668C2.63931 18.1215 4.14917 16.6116 5.99455 16.6116H12.705V9.90113C12.705 8.05575 14.2149 6.5459 16.0603 6.5459C17.9056 6.5459 19.4155 8.05575 19.4155 9.90113V16.6116H26.126C27.9713 16.6116 29.4812 18.1215 29.4812 19.9668C29.4812 21.8122 27.9713 23.3221 26.126 23.3221H19.4155V30.0325C19.4155 31.8779 17.9056 33.3878 16.0603 33.3878ZM37.5396 45.1316C39.3376 42.0172 42.6606 40.0987 46.2567 40.0987C49.8529 40.0987 53.1758 42.0172 54.9739 45.1316C56.772 48.2459 56.772 52.0829 54.9739 55.1973C53.1758 58.3116 49.8529 60.2301 46.2567 60.2301C42.6606 60.2301 39.3376 58.3116 37.5396 55.1973C35.7415 52.0829 35.7415 48.2459 37.5396 45.1316ZM73.0986 23.3226H62.4625L58.302 18.793C57.0606 17.4173 55.2488 16.6121 53.3698 16.6121H31.8963C32.4667 17.6187 32.8358 18.7259 32.8358 19.9673C32.8358 23.6581 29.8161 26.6778 26.1253 26.6778H22.7701V30.033C22.7701 33.7238 19.7504 36.7435 16.0596 36.7435C14.8182 36.7435 13.711 36.3744 12.7044 35.804V70.2958C12.7044 73.9866 15.7241 77.0063 19.4149 77.0063H73.0986C76.7894 77.0063 79.8091 73.9866 79.8091 70.2958V30.033C79.8091 26.3423 76.7894 23.3226 73.0986 23.3226ZM29.4824 50.1641C29.4824 59.4246 36.9981 66.9403 46.2586 66.9403C55.519 66.9403 63.0347 59.4246 63.0347 50.1641C63.0347 40.9037 55.519 33.388 46.2586 33.388C36.9981 33.388 29.4824 40.9037 29.4824 50.1641Z"/>
</mask>
<path d="M12.705 23.3221H15.205V20.8221H12.705V23.3221ZM12.705 16.6116V19.1116H15.205V16.6116H12.705ZM19.4155 16.6116H16.9155V19.1116H19.4155V16.6116ZM19.4155 23.3221V20.8221H16.9155V23.3221H19.4155ZM37.5396 45.1316L39.7046 46.3816L37.5396 45.1316ZM54.9739 45.1316L52.8088 46.3816L54.9739 45.1316ZM54.9739 55.1973L52.8088 53.9473L54.9739 55.1973ZM37.5396 55.1973L39.7046 53.9473L37.5396 55.1973ZM62.4625 23.3226L60.6213 25.0137L61.3643 25.8226H62.4625V23.3226ZM58.302 18.793L56.4461 20.4679L56.4534 20.4761L56.4609 20.4842L58.302 18.793ZM31.8963 16.6121V14.1121H27.6062L29.7213 17.8446L31.8963 16.6121ZM22.7701 26.6778V24.1778H20.2701V26.6778H22.7701ZM12.7044 35.804L13.9369 33.629L10.2044 31.5139V35.804H12.7044ZM10.205 30.0325C10.205 33.2586 12.8342 35.8878 16.0603 35.8878V30.8878C15.5956 30.8878 15.205 30.4972 15.205 30.0325H10.205ZM10.205 23.3221V30.0325H15.205V23.3221H10.205ZM5.99455 25.8221H12.705V20.8221H5.99455V25.8221ZM0.139313 19.9668C0.139313 23.1929 2.76846 25.8221 5.99455 25.8221V20.8221C5.52988 20.8221 5.13931 20.4315 5.13931 19.9668H0.139313ZM5.99455 14.1116C2.76846 14.1116 0.139313 16.7407 0.139313 19.9668H5.13931C5.13931 19.5022 5.52988 19.1116 5.99455 19.1116V14.1116ZM12.705 14.1116H5.99455V19.1116H12.705V14.1116ZM10.205 9.90113V16.6116H15.205V9.90113H10.205ZM16.0603 4.0459C12.8342 4.0459 10.205 6.67504 10.205 9.90113H15.205C15.205 9.43647 15.5956 9.0459 16.0603 9.0459V4.0459ZM21.9155 9.90113C21.9155 6.67504 19.2863 4.0459 16.0603 4.0459V9.0459C16.5249 9.0459 16.9155 9.43647 16.9155 9.90113H21.9155ZM21.9155 16.6116V9.90113H16.9155V16.6116H21.9155ZM26.126 14.1116H19.4155V19.1116H26.126V14.1116ZM31.9812 19.9668C31.9812 16.7407 29.352 14.1116 26.126 14.1116V19.1116C26.5906 19.1116 26.9812 19.5022 26.9812 19.9668H31.9812ZM26.126 25.8221C29.352 25.8221 31.9812 23.1929 31.9812 19.9668H26.9812C26.9812 20.4315 26.5906 20.8221 26.126 20.8221V25.8221ZM19.4155 25.8221H26.126V20.8221H19.4155V25.8221ZM21.9155 30.0325V23.3221H16.9155V30.0325H21.9155ZM16.0603 35.8878C19.2863 35.8878 21.9155 33.2586 21.9155 30.0325H16.9155C16.9155 30.4972 16.5249 30.8878 16.0603 30.8878V35.8878ZM46.2567 37.5987C41.7674 37.5987 37.6192 39.9937 35.3745 43.8816L39.7046 46.3816C41.0561 44.0407 43.5538 42.5987 46.2567 42.5987V37.5987ZM57.139 43.8816C54.8943 39.9937 50.746 37.5987 46.2567 37.5987V42.5987C48.9597 42.5987 51.4573 44.0407 52.8088 46.3816L57.139 43.8816ZM57.139 56.4473C59.3836 52.5594 59.3836 47.7694 57.139 43.8816L52.8088 46.3816C54.1603 48.7224 54.1603 51.6064 52.8088 53.9473L57.139 56.4473ZM46.2567 62.7301C50.746 62.7301 54.8943 60.3351 57.139 56.4473L52.8088 53.9473C51.4573 56.2881 48.9597 57.7301 46.2567 57.7301V62.7301ZM35.3745 56.4473C37.6192 60.3351 41.7674 62.7301 46.2567 62.7301V57.7301C43.5538 57.7301 41.0561 56.2881 39.7046 53.9473L35.3745 56.4473ZM35.3745 43.8816C33.1299 47.7694 33.1299 52.5594 35.3745 56.4473L39.7046 53.9473C38.3532 51.6064 38.3532 48.7224 39.7046 46.3816L35.3745 43.8816ZM62.4625 25.8226H73.0986V20.8226H62.4625V25.8226ZM56.4609 20.4842L60.6213 25.0137L64.3037 21.6314L60.1432 17.1018L56.4609 20.4842ZM53.3698 19.1121C54.5466 19.1121 55.6823 19.6215 56.4461 20.4679L60.158 17.1181C58.4389 15.2132 55.9509 14.1121 53.3698 14.1121V19.1121ZM31.8963 19.1121H53.3698V14.1121H31.8963V19.1121ZM35.3358 19.9673C35.3358 18.2041 34.8057 16.6754 34.0714 15.3796L29.7213 17.8446C30.1278 18.562 30.3358 19.2476 30.3358 19.9673H35.3358ZM26.1253 29.1778C31.1968 29.1778 35.3358 25.0388 35.3358 19.9673H30.3358C30.3358 22.2774 28.4354 24.1778 26.1253 24.1778V29.1778ZM22.7701 29.1778H26.1253V24.1778H22.7701V29.1778ZM25.2701 30.033V26.6778H20.2701V30.033H25.2701ZM16.0596 39.2435C21.1311 39.2435 25.2701 35.1045 25.2701 30.033H20.2701C20.2701 32.3431 18.3697 34.2435 16.0596 34.2435V39.2435ZM11.4719 37.9791C12.7677 38.7134 14.2965 39.2435 16.0596 39.2435V34.2435C15.34 34.2435 14.6543 34.0355 13.9369 33.629L11.4719 37.9791ZM15.2044 70.2958V35.804H10.2044V70.2958H15.2044ZM19.4149 74.5063C17.1048 74.5063 15.2044 72.6059 15.2044 70.2958H10.2044C10.2044 75.3673 14.3434 79.5063 19.4149 79.5063V74.5063ZM73.0986 74.5063H19.4149V79.5063H73.0986V74.5063ZM77.3091 70.2958C77.3091 72.6059 75.4087 74.5063 73.0986 74.5063V79.5063C78.1701 79.5063 82.3091 75.3673 82.3091 70.2958H77.3091ZM77.3091 30.033V70.2958H82.3091V30.033H77.3091ZM73.0986 25.8226C75.4087 25.8226 77.3091 27.723 77.3091 30.033H82.3091C82.3091 24.9616 78.1701 20.8226 73.0986 20.8226V25.8226ZM46.2586 64.4403C38.3788 64.4403 31.9824 58.0439 31.9824 50.1641H26.9824C26.9824 60.8053 35.6174 69.4403 46.2586 69.4403V64.4403ZM60.5347 50.1641C60.5347 58.0439 54.1383 64.4403 46.2586 64.4403V69.4403C56.8997 69.4403 65.5347 60.8053 65.5347 50.1641H60.5347ZM46.2586 35.888C54.1383 35.888 60.5347 42.2844 60.5347 50.1641H65.5347C65.5347 39.523 56.8997 30.888 46.2586 30.888V35.888ZM31.9824 50.1641C31.9824 42.2844 38.3788 35.888 46.2586 35.888V30.888C35.6174 30.888 26.9824 39.523 26.9824 50.1641H31.9824Z" fill="#F55E00" mask="url(#path-1-inside-1_749_12984)"/>
</svg>
