<svg width="90" height="89" viewBox="0 0 90 89" fill="none" xmlns="http://www.w3.org/2000/svg">
<path d="M60.0433 22.6983L59.1227 23.5439L59.4942 23.9483H60.0433V22.6983ZM56.1812 18.4937L55.2532 19.3312L55.2606 19.3393L56.1812 18.4937ZM33.7876 18.4937L32.8708 17.644L32.8636 17.6518L33.7876 18.4937ZM29.9567 22.6983V23.9483H30.5089L30.8807 23.5402L29.9567 22.6983ZM60.0433 23.9483H69.9164V21.4483H60.0433V23.9483ZM55.2606 19.3393L59.1227 23.5439L60.9639 21.8528L57.1018 17.6481L55.2606 19.3393ZM51.6028 17.7192C52.9959 17.7192 54.3397 18.3188 55.2533 19.3312L57.1092 17.6562C55.718 16.1146 53.6981 15.2192 51.6028 15.2192V17.7192ZM38.3972 17.7192H51.6028V15.2192H38.3972V17.7192ZM34.7044 19.3434C35.6555 18.3172 37.007 17.7192 38.3972 17.7192V15.2192C36.299 15.2192 34.2868 16.1163 32.8708 17.644L34.7044 19.3434ZM30.8807 23.5402L34.7116 19.3356L32.8636 17.6518L29.0327 21.8565L30.8807 23.5402ZM20.0836 23.9483H29.9567V21.4483H20.0836V23.9483ZM15.1045 28.9274C15.1045 26.1918 17.3479 23.9483 20.0836 23.9483V21.4483C15.9672 21.4483 12.6045 24.8111 12.6045 28.9274H15.1045ZM15.1045 66.3021V28.9274H12.6045V66.3021H15.1045ZM20.0836 71.2812C17.3479 71.2812 15.1045 69.0377 15.1045 66.3021H12.6045C12.6045 70.4184 15.9672 73.7812 20.0836 73.7812V71.2812ZM69.9164 71.2812H20.0836V73.7812H69.9164V71.2812ZM74.8955 66.3021C74.8955 69.0377 72.6521 71.2812 69.9164 71.2812V73.7812C74.0328 73.7812 77.3955 70.4184 77.3955 66.3021H74.8955ZM74.8955 28.9274V66.3021H77.3955V28.9274H74.8955ZM69.9164 23.9483C72.6521 23.9483 74.8955 26.1918 74.8955 28.9274H77.3955C77.3955 24.8111 74.0328 21.4483 69.9164 21.4483V23.9483ZM36.9071 47.6144C36.9071 43.1444 40.5307 39.5207 45.0007 39.5207V37.0207C39.15 37.0207 34.4071 41.7637 34.4071 47.6144H36.9071ZM45.0007 55.708C40.5307 55.708 36.9071 52.0844 36.9071 47.6144H34.4071C34.4071 53.4651 39.15 58.208 45.0007 58.208V55.708ZM53.0944 47.6144C53.0944 52.0844 49.4707 55.708 45.0007 55.708V58.208C50.8514 58.208 55.5944 53.4651 55.5944 47.6144H53.0944ZM45.0007 39.5207C49.4707 39.5207 53.0944 43.1444 53.0944 47.6144H55.5944C55.5944 41.7637 50.8514 37.0207 45.0007 37.0207V39.5207ZM44.9993 61.9379C37.0935 61.9379 30.6765 55.5209 30.6765 47.6151H28.1765C28.1765 56.9016 35.7128 64.4379 44.9993 64.4379V61.9379ZM59.322 47.6151C59.322 55.5209 52.9051 61.9379 44.9993 61.9379V64.4379C54.2858 64.4379 61.822 56.9016 61.822 47.6151H59.322ZM44.9993 33.2924C52.9051 33.2924 59.322 39.7093 59.322 47.6151H61.822C61.822 38.3286 54.2858 30.7924 44.9993 30.7924V33.2924ZM30.6765 47.6151C30.6765 39.7093 37.0935 33.2924 44.9993 33.2924V30.7924C35.7128 30.7924 28.1765 38.3286 28.1765 47.6151H30.6765Z" fill="#C4C4C4"/>
</svg>
