<svg width="45" height="44" viewBox="0 0 45 44" fill="none" xmlns="http://www.w3.org/2000/svg">
<path fill-rule="evenodd" clip-rule="evenodd" d="M22.731 12C17.211 12 12.731 16.48 12.731 22C12.731 27.52 17.211 32 22.731 32C28.251 32 32.731 27.52 32.731 22C32.731 16.48 28.251 12 22.731 12ZM22.731 17C22.181 17 21.731 17.45 21.731 18V21H18.731C18.181 21 17.731 21.45 17.731 22C17.731 22.55 18.181 23 18.731 23H21.731V26C21.731 26.55 22.181 27 22.731 27C23.281 27 23.731 26.55 23.731 26V23H26.731C27.281 23 27.731 22.55 27.731 22C27.731 21.45 27.281 21 26.731 21H23.731V18C23.731 17.45 23.281 17 22.731 17ZM14.731 22C14.731 26.41 18.321 30 22.731 30C27.141 30 30.731 26.41 30.731 22C30.731 17.59 27.141 14 22.731 14C18.321 14 14.731 17.59 14.731 22Z" fill="#040404"/>
</svg>
