<svg width="44" height="44" viewBox="0 0 44 44" fill="none" xmlns="http://www.w3.org/2000/svg">
<path fill-rule="evenodd" clip-rule="evenodd" d="M12.5 15C12.5 13.6239 13.6239 12.5 15 12.5H29C30.3761 12.5 31.5 13.6239 31.5 15V29C31.5 30.3761 30.3761 31.5 29 31.5H15C13.6239 31.5 12.5 30.3761 12.5 29V15ZM15 13.5C14.1761 13.5 13.5 14.1761 13.5 15V29C13.5 29.8239 14.1761 30.5 15 30.5H29C29.8239 30.5 30.5 29.8239 30.5 29V15C30.5 14.1761 29.8239 13.5 29 13.5H15ZM18.9 23.98L21 26.51L24.1 22.52C24.3 22.26 24.7 22.26 24.9 22.53L28.41 27.21C28.66 27.54 28.42 28.01 28.01 28.01H16.02C15.6 28.01 15.37 27.53 15.63 27.2L18.12 24C18.31 23.74 18.69 23.73 18.9 23.98ZM27.499 15.0498C28.329 15.0498 28.999 15.7198 28.999 16.5498C28.999 17.3798 28.329 18.0498 27.499 18.0498C26.669 18.0498 25.999 17.3798 25.999 16.5498C25.999 15.7198 26.669 15.0498 27.499 15.0498Z" fill="#040404"/>
</svg>
