<svg width="44" height="44" viewBox="0 0 44 44" fill="none" xmlns="http://www.w3.org/2000/svg">
<path fill-rule="evenodd" clip-rule="evenodd" d="M31 29V15C31 13.9 30.1 13 29 13H15C13.9 13 13 13.9 13 15V29C13 30.1 13.9 31 15 31H29C30.1 31 31 30.1 31 29ZM18.9 23.98L21 26.51L24.1 22.52C24.3 22.26 24.7 22.26 24.9 22.53L28.41 27.21C28.66 27.54 28.42 28.01 28.01 28.01H16.02C15.6 28.01 15.37 27.53 15.63 27.2L18.12 24C18.31 23.74 18.69 23.73 18.9 23.98ZM27.499 15.0498C28.329 15.0498 28.999 15.7198 28.999 16.5498C28.999 17.3798 28.329 18.0498 27.499 18.0498C26.669 18.0498 25.999 17.3798 25.999 16.5498C25.999 15.7198 26.669 15.0498 27.499 15.0498Z" fill="#040404"/>
</svg>
