<svg width="44" height="44" viewBox="0 0 44 44" fill="none" xmlns="http://www.w3.org/2000/svg">
<path d="M26 16.7477V27.3277C26 29.4177 24.47 31.2777 22.39 31.4777C20 31.7077 18 29.8377 18 27.4977V15.1377C18 13.8277 18.94 12.6377 20.24 12.5077C21.74 12.3577 23 13.5277 23 14.9977V25.4977C23 26.0477 22.55 26.4977 22 26.4977C21.45 26.4977 21 26.0477 21 25.4977V16.7477C21 16.3377 20.66 15.9977 20.25 15.9977C19.84 15.9977 19.5 16.3377 19.5 16.7477V25.3577C19.5 26.6677 20.44 27.8577 21.74 27.9877C23.24 28.1377 24.5 26.9677 24.5 25.4977V15.1677C24.5 13.0777 22.97 11.2177 20.89 11.0177C18.51 10.7877 16.5 12.6577 16.5 14.9977V27.2677C16.5 30.1377 18.6 32.7077 21.46 32.9777C24.75 33.2777 27.5 30.7177 27.5 27.4977V16.7477C27.5 16.3377 27.16 15.9977 26.75 15.9977C26.34 15.9977 26 16.3377 26 16.7477Z" fill="#040404"/>
</svg>
