<svg width="24" height="48" viewBox="0 0 24 48" fill="none" xmlns="http://www.w3.org/2000/svg">
<rect x="0.25" y="0.25" width="23.5" height="47.5" rx="2.75" fill="#FCFBF7"/>
<path d="M18 13H13V18C13 18.55 12.55 19 12 19C11.45 19 11 18.55 11 18V13H6C5.45 13 5 12.55 5 12C5 11.45 5.45 11 6 11H11V6C11 5.45 11.45 5 12 5C12.55 5 13 5.45 13 6V11H18C18.55 11 19 11.45 19 12C19 12.55 18.55 13 18 13Z" fill="#040404"/>
<path d="M24 23.5H0V24.5H24V23.5Z" fill="black" mask="url(#path-2-inside-1_794_10108)"/>
<path d="M18 37H6C5.45 37 5 36.55 5 36C5 35.45 5.45 35 6 35H18C18.55 35 19 35.45 19 36C19 36.55 18.55 37 18 37Z" fill="#040404"/>
<rect x="0.25" y="0.25" width="23.5" height="47.5" rx="2.75" stroke="black" stroke-width="0.5"/>
</svg>
