<svg width="6" height="7" viewBox="0 0 6 7" fill="none" xmlns="http://www.w3.org/2000/svg">
<path fill-rule="evenodd" clip-rule="evenodd" d="M0.134277 2.51669C0.134277 1.12532 1.2596 0 2.65097 0C4.04234 0 5.16766 1.12532 5.16766 2.51669C5.16766 4.01592 3.57855 6.0832 2.92781 6.87057C2.78399 7.04314 2.52154 7.04314 2.37773 6.87057C1.72339 6.0832 0.134277 4.01592 0.134277 2.51669ZM1.75215 2.51669C1.75215 3.01284 2.15482 3.41551 2.65097 3.41551C3.14712 3.41551 3.54979 3.01284 3.54979 2.51669C3.54979 2.02054 3.14712 1.61787 2.65097 1.61787C2.15482 1.61787 1.75215 2.02054 1.75215 2.51669Z" fill="#F55E00"/>
</svg>
