<svg width="12" height="17" viewBox="0 0 12 17" fill="none" xmlns="http://www.w3.org/2000/svg">
<path fill-rule="evenodd" clip-rule="evenodd" d="M0 5.93019C0 2.65164 2.65164 0 5.93019 0C9.20875 0 11.8604 2.65164 11.8604 5.93019C11.8604 9.4629 8.1159 14.3341 6.58252 16.1894C6.24365 16.5961 5.62521 16.5961 5.28635 16.1894C3.74449 14.3341 0 9.4629 0 5.93019ZM3.81227 5.93019C3.81227 7.09929 4.7611 8.04812 5.93019 8.04812C7.09929 8.04812 8.04812 7.09929 8.04812 5.93019C8.04812 4.7611 7.09929 3.81227 5.93019 3.81227C4.7611 3.81227 3.81227 4.7611 3.81227 5.93019Z" fill="#040404"/>
</svg>
