<svg width="6" height="7" viewBox="0 0 6 7" fill="none" xmlns="http://www.w3.org/2000/svg">
<path fill-rule="evenodd" clip-rule="evenodd" d="M0.413452 2.51669C0.413452 1.12532 1.53877 0 2.93014 0C4.32152 0 5.44684 1.12532 5.44684 2.51669C5.44684 4.01592 3.85772 6.0832 3.20698 6.87057C3.06317 7.04314 2.80071 7.04314 2.6569 6.87057C2.00256 6.0832 0.413452 4.01592 0.413452 2.51669ZM2.03133 2.51669C2.03133 3.01284 2.434 3.41551 2.93014 3.41551C3.42629 3.41551 3.82896 3.01284 3.82896 2.51669C3.82896 2.02054 3.42629 1.61787 2.93014 1.61787C2.434 1.61787 2.03133 2.02054 2.03133 2.51669Z" fill="#040404"/>
</svg>
