<svg width="13" height="17" viewBox="0 0 13 17" fill="none" xmlns="http://www.w3.org/2000/svg">
<path fill-rule="evenodd" clip-rule="evenodd" d="M0.860352 5.93019C0.860352 2.65164 3.512 0 6.79055 0C10.0691 0 12.7207 2.65164 12.7207 5.93019C12.7207 9.4629 8.97625 14.3341 7.44287 16.1894C7.104 16.5961 6.48556 16.5961 6.1467 16.1894C4.60485 14.3341 0.860352 9.4629 0.860352 5.93019ZM4.67262 5.93019C4.67262 7.09929 5.62145 8.04812 6.79055 8.04812C7.95964 8.04812 8.90847 7.09929 8.90847 5.93019C8.90847 4.7611 7.95964 3.81227 6.79055 3.81227C5.62145 3.81227 4.67262 4.7611 4.67262 5.93019Z" fill="#C4C4C4"/>
</svg>
