<svg width="6" height="7" viewBox="0 0 6 7" fill="none" xmlns="http://www.w3.org/2000/svg">
<path fill-rule="evenodd" clip-rule="evenodd" d="M0.273804 2.51669C0.273804 1.12532 1.39912 0 2.7905 0C4.18187 0 5.30719 1.12532 5.30719 2.51669C5.30719 4.01592 3.71808 6.0832 3.06733 6.87057C2.92352 7.04314 2.66107 7.04314 2.51725 6.87057C1.86291 6.0832 0.273804 4.01592 0.273804 2.51669ZM1.89168 2.51669C1.89168 3.01284 2.29435 3.41551 2.7905 3.41551C3.28664 3.41551 3.68931 3.01284 3.68931 2.51669C3.68931 2.02054 3.28664 1.61787 2.7905 1.61787C2.29435 1.61787 1.89168 2.02054 1.89168 2.51669Z" fill="#C4C4C4"/>
</svg>
