<svg width="13" height="17" viewBox="0 0 13 17" fill="none" xmlns="http://www.w3.org/2000/svg">
<path fill-rule="evenodd" clip-rule="evenodd" d="M0.720703 5.93019C0.720703 2.65164 3.37235 0 6.6509 0C9.92945 0 12.5811 2.65164 12.5811 5.93019C12.5811 9.4629 8.8366 14.3341 7.30322 16.1894C6.96435 16.5961 6.34592 16.5961 6.00705 16.1894C4.4652 14.3341 0.720703 9.4629 0.720703 5.93019ZM4.53297 5.93019C4.53297 7.09929 5.4818 8.04812 6.6509 8.04812C7.81999 8.04812 8.76883 7.09929 8.76883 5.93019C8.76883 4.7611 7.81999 3.81227 6.6509 3.81227C5.4818 3.81227 4.53297 4.7611 4.53297 5.93019Z" fill="#F55E00"/>
</svg>
