<svg width="14" height="13" viewBox="0 0 14 13" fill="none" xmlns="http://www.w3.org/2000/svg">
<path fill-rule="evenodd" clip-rule="evenodd" d="M9.9171 8.38358H10.5192L13.7505 11.6301C14.0629 11.9426 14.0629 12.4532 13.7505 12.7657C13.438 13.0781 12.9274 13.0781 12.6149 12.7657L9.37601 9.52673V8.92467L9.17024 8.71128C8.1033 9.6258 6.64769 10.0983 5.10063 9.83919C2.98199 9.481 1.29013 7.71293 1.03101 5.57905C0.634721 2.35537 3.3478 -0.35771 6.57148 0.0385818C8.70536 0.297696 10.4734 1.98956 10.8316 4.1082C11.0907 5.65526 10.6182 7.11087 9.70371 8.17781L9.9171 8.38358ZM2.51703 4.95405C2.51703 6.85168 4.04885 8.3835 5.94648 8.3835C7.84411 8.3835 9.37593 6.85168 9.37593 4.95405C9.37593 3.05642 7.84411 1.5246 5.94648 1.5246C4.04885 1.5246 2.51703 3.05642 2.51703 4.95405Z" fill="#040404"/>
</svg>
