<svg width="14" height="13" viewBox="0 0 14 13" fill="none" xmlns="http://www.w3.org/2000/svg">
<path fill-rule="evenodd" clip-rule="evenodd" d="M9.90953 8.38358H10.5116L13.7429 11.6301C14.0554 11.9426 14.0554 12.4532 13.7429 12.7657C13.4304 13.0781 12.9198 13.0781 12.6074 12.7657L9.36844 9.52673V8.92467L9.16267 8.71128C8.09573 9.6258 6.64012 10.0983 5.09306 9.83919C2.97442 9.481 1.28256 7.71293 1.02345 5.57905C0.627153 2.35537 3.34023 -0.35771 6.56391 0.0385818C8.69779 0.297696 10.4659 1.98956 10.8241 4.1082C11.0832 5.65526 10.6107 7.11087 9.69614 8.17781L9.90953 8.38358ZM2.50946 4.95405C2.50946 6.85168 4.04129 8.3835 5.93892 8.3835C7.83654 8.3835 9.36837 6.85168 9.36837 4.95405C9.36837 3.05642 7.83654 1.5246 5.93892 1.5246C4.04129 1.5246 2.50946 3.05642 2.50946 4.95405Z" fill="#F55E00"/>
</svg>
