<svg width="13" height="13" viewBox="0 0 13 13" fill="none" xmlns="http://www.w3.org/2000/svg">
<path fill-rule="evenodd" clip-rule="evenodd" d="M8.92467 8.38358H9.52673L12.758 11.6301C13.0705 11.9426 13.0705 12.4532 12.758 12.7657C12.4456 13.0781 11.935 13.0781 11.6225 12.7657L8.38358 9.52673V8.92467L8.17781 8.71128C7.11087 9.6258 5.65526 10.0983 4.1082 9.83919C1.98956 9.481 0.297696 7.71293 0.0385818 5.57905C-0.35771 2.35537 2.35537 -0.35771 5.57905 0.0385818C7.71293 0.297696 9.481 1.98956 9.83919 4.1082C10.0983 5.65526 9.6258 7.11087 8.71128 8.17781L8.92467 8.38358ZM1.5246 4.95405C1.5246 6.85168 3.05642 8.3835 4.95405 8.3835C6.85168 8.3835 8.3835 6.85168 8.3835 4.95405C8.3835 3.05642 6.85168 1.5246 4.95405 1.5246C3.05642 1.5246 1.5246 3.05642 1.5246 4.95405Z" fill="#C4C4C4"/>
</svg>
