<svg width="38" height="30" viewBox="0 0 38 30" fill="none" xmlns="http://www.w3.org/2000/svg">
<path d="M34 0H4C1.91875 0 0.26875 1.66875 0.26875 3.75L0.25 26.25C0.25 28.3312 1.91875 30 4 30H34C36.0812 30 37.75 28.3312 37.75 26.25V3.75C37.75 1.66875 36.0812 0 34 0Z" fill="#040404"/>
<path d="M19.6174 14.2976C19.2751 10.5959 16.63 8.13379 12.4461 8.13379C7.99885 8.13379 5.26805 10.8646 5.26805 14.9998C5.26805 19.291 8.15489 21.8658 12.4461 21.8658C16.6594 21.8658 19.3121 19.4471 19.6242 15.624H12.3681V14.2976H19.6174Z" fill="white"/>
<path d="M32.7319 11.4887C32.7319 11.0986 32.6539 10.7085 32.4979 10.3184C32.3418 9.9283 32.1078 9.6162 31.8737 9.38214C31.5616 9.07005 31.2495 8.83598 30.8594 8.75796C30.4693 8.60191 30.0012 8.60191 29.377 8.60191H20.7945V14.3756H29.2989C29.9231 14.3756 30.4693 14.2976 30.7814 14.2195C31.1715 14.0635 31.4836 13.9075 31.7957 13.5954C32.1078 13.2833 32.2638 12.9712 32.4199 12.6591C32.6539 12.269 32.7319 11.8789 32.7319 11.4887Z" fill="white"/>
<path d="M32.4979 17.4185C32.6539 17.8086 32.7319 18.1987 32.7319 18.5888C32.7319 18.9789 32.6539 19.369 32.4199 19.7591C32.2638 20.0712 32.1078 20.3833 31.7957 20.6954C31.4836 21.0075 31.1715 21.1635 30.7814 21.3196C30.4693 21.3976 29.9231 21.4756 29.2989 21.4756H20.7945V15.702H29.377C30.0012 15.702 30.4693 15.702 30.8594 15.858C31.2495 15.936 31.5616 16.1701 31.8737 16.4822C32.1078 16.7163 32.3418 17.0283 32.4979 17.4185Z" fill="white"/>
</svg>
