<svg width="38" height="30" viewBox="0 0 38 30" fill="none" xmlns="http://www.w3.org/2000/svg">
<path d="M34 0H4C1.91875 0 0.26875 1.66875 0.26875 3.75L0.25 26.25C0.25 28.3312 1.91875 30 4 30H34C36.0812 30 37.75 28.3312 37.75 26.25V3.75C37.75 1.66875 36.0812 0 34 0Z" fill="#040404"/>
<path fill-rule="evenodd" clip-rule="evenodd" d="M19.0002 20.3979C17.9874 21.194 16.7709 21.6891 15.49 21.8266C14.2091 21.964 12.9153 21.7384 11.7565 21.1753C10.5977 20.6122 9.62077 19.7345 8.93727 18.6425C8.25376 17.5504 7.8913 16.2881 7.8913 14.9998C7.8913 13.7115 8.25376 12.4491 8.93727 11.3571C9.62077 10.265 10.5977 9.38732 11.7565 8.82426C12.9153 8.2612 14.2091 8.03552 15.49 8.173C16.7709 8.31048 17.9873 8.80557 19.0002 9.60167C20.013 8.80557 21.2294 8.31048 22.5103 8.173C23.7912 8.03552 25.085 8.2612 26.2437 8.82427C27.4025 9.38733 28.3794 10.2651 29.0629 11.3571C29.7463 12.4492 30.1087 13.7115 30.1087 14.9998C30.1087 16.288 29.7463 17.5504 29.0629 18.6424C28.3794 19.7345 27.4025 20.6122 26.2437 21.1753C25.085 21.7383 23.7912 21.964 22.5103 21.8265C21.2294 21.689 20.013 21.194 19.0002 20.3979ZM16.3779 14.9998C16.3769 13.96 16.6125 12.9337 17.0669 11.9985C17.5212 11.0633 18.1823 10.2437 19.0002 9.60181C19.8173 10.2444 20.478 11.0641 20.9322 11.9991C21.3865 12.9342 21.6225 13.9602 21.6225 14.9998C21.6225 16.0393 21.3865 17.0653 20.9322 18.0004C20.4779 18.9355 19.8173 19.7552 19.0002 20.3977C18.1823 19.7558 17.5212 18.9362 17.0669 18.0011C16.6125 17.0659 16.3769 16.0395 16.3779 14.9998ZM20.1235 20.325C20.8744 20.7649 21.7128 21.0426 22.5844 21.1362C23.7358 21.2598 24.8987 21.0569 25.9403 20.5508C26.9818 20.0447 27.86 19.2557 28.4743 18.2741C29.0887 17.2925 29.4144 16.1578 29.4144 14.9998C29.4144 13.8418 29.0887 12.7071 28.4743 11.7254C27.86 10.7438 26.9818 9.95487 25.9403 9.44874C24.8987 8.94262 23.7358 8.73975 22.5844 8.86334C21.7128 8.95689 20.8744 9.23465 20.1235 9.67456C20.7076 10.2634 21.1924 10.9459 21.5567 11.6957C22.0569 12.7253 22.3168 13.8551 22.3168 14.9998C22.3168 16.1444 22.0569 17.2742 21.5567 18.3038C21.1924 19.0536 20.7076 19.7361 20.1235 20.325Z" fill="#FCFBF7"/>
<path d="M29.4539 19.0331V19.2541H29.4052V19.0331H29.316V18.988H29.543V19.0331H29.4539Z" fill="#FCFBF7"/>
<path d="M29.8946 18.9876V19.2541H29.8455V19.0526L29.7704 19.2264H29.7195L29.6444 19.0531V19.2541H29.5953V18.9876H29.6649L29.745 19.1709L29.825 18.9876H29.8946Z" fill="#FCFBF7"/>
</svg>
