<svg width="38" height="30" viewBox="0 0 38 30" fill="none" xmlns="http://www.w3.org/2000/svg">
<path d="M34 0H4C1.91875 0 0.26875 1.66875 0.26875 3.75L0.25 26.25C0.25 28.3312 1.91875 30 4 30H34C36.0812 30 37.75 28.3312 37.75 26.25V3.75C37.75 1.66875 36.0812 0 34 0Z" fill="#040404"/>
<path d="M18.872 10.9001L17.1136 19.1208H14.9867L16.7453 10.9001H18.872ZM27.8194 16.2083L28.9388 13.1213L29.583 16.2083H27.8194ZM30.1931 19.1208H32.1597L30.4416 10.9001H28.6276C28.2188 10.9001 27.8742 11.1372 27.7216 11.5027L24.5305 19.1208H26.764L27.2074 17.8931H29.9356L30.1931 19.1208ZM24.6413 16.437C24.6505 14.2675 21.6421 14.1473 21.6622 13.1779C21.6687 12.8833 21.9497 12.5696 22.564 12.4893C22.8685 12.4501 23.7088 12.4183 24.6614 12.8573L25.034 11.1133C24.5224 10.9282 23.864 10.75 23.0447 10.75C20.9422 10.75 19.4633 11.8668 19.4514 13.4672C19.4379 14.6507 20.5079 15.3106 21.3124 15.7048C22.1418 16.1077 22.4197 16.366 22.4157 16.726C22.4099 17.2776 21.7543 17.5218 21.1438 17.531C20.074 17.5477 19.4538 17.2419 18.9596 17.0115L18.5735 18.8137C19.0713 19.0415 19.9884 19.2397 20.938 19.2498C23.1732 19.2498 24.6346 18.1462 24.6413 16.437ZM15.833 10.9001L12.3871 19.1208H10.1393L8.44348 12.5601C8.34067 12.1567 8.251 12.0084 7.93834 11.8379C7.42692 11.5602 6.58269 11.3004 5.84033 11.1388L5.89062 10.9001H9.5094C9.97034 10.9001 10.3851 11.2069 10.4906 11.7379L11.3865 16.4953L13.5987 10.9001H15.833Z" fill="#FCFBF7"/>
</svg>
