<svg width="19" height="18" viewBox="0 0 19 18" fill="none" xmlns="http://www.w3.org/2000/svg">
<path d="M9.78696 14.0594L9.52837 13.9034L9.26991 14.0596L4.10991 17.1796L4.10972 17.1798C4.1091 17.1801 4.10854 17.1804 4.10805 17.1807C4.10748 17.1804 4.10684 17.18 4.10612 17.1795C4.10606 17.1794 4.10601 17.1794 4.10595 17.1794L5.47558 11.301L5.54404 11.0071L5.31599 10.8096L0.755991 6.85957L0.756 6.85956L0.753094 6.85708C0.752801 6.85683 0.752526 6.85659 0.752268 6.85637C0.752366 6.85609 0.752466 6.85583 0.752564 6.85559C0.752767 6.85556 0.752979 6.85554 0.753201 6.85551L6.7609 6.34571L7.06122 6.32022L7.17892 6.04275L9.52862 0.503461L11.8783 6.04275L11.996 6.32022L12.2963 6.34571L18.3043 6.85554C18.3045 6.85555 18.3047 6.85557 18.3049 6.85559C18.307 6.85579 18.3087 6.85605 18.3099 6.85629C18.31 6.85647 18.3101 6.85666 18.3101 6.85686C18.3105 6.85805 18.3107 6.85905 18.3108 6.8598C18.3104 6.86024 18.3098 6.86077 18.3092 6.86137C18.309 6.86155 18.3088 6.86173 18.3086 6.86192L13.7512 10.8096L13.5232 11.0071L13.5917 11.301L14.9613 17.1794C14.9612 17.1794 14.9612 17.1794 14.9611 17.1795C14.9604 17.18 14.9598 17.1804 14.9592 17.1807C14.9587 17.1804 14.9581 17.1801 14.9575 17.1797L14.957 17.1794L9.78696 14.0594Z" stroke="#040404"/>
<path d="M9.53125 6.72103e-06C9.34288 -0.000956165 9.15402 0.101542 9.06862 0.3075L6.71862 5.8475L0.70862 6.3575C0.26862 6.3975 0.0886203 6.9475 0.42862 7.2375L4.98862 11.1875L3.61862 17.0675C3.51862 17.4975 3.98862 17.8375 4.36862 17.6075L9.52862 14.4875L9.53125 14.4891V6.72103e-06Z" fill="#040404"/>
</svg>
