<svg width="20" height="18" viewBox="0 0 20 18" fill="none" xmlns="http://www.w3.org/2000/svg">
<path d="M10.0384 14.0594L9.77984 13.9034L9.52138 14.0596L4.36138 17.1796L4.36118 17.1798C4.36057 17.1801 4.36001 17.1804 4.35951 17.1807C4.35895 17.1804 4.3583 17.18 4.35759 17.1795C4.35753 17.1794 4.35747 17.1794 4.35741 17.1794L5.72704 11.301L5.79551 11.0071L5.56746 10.8096L1.00746 6.85957L1.00747 6.85956L1.00456 6.85708C1.00427 6.85683 1.00399 6.85659 1.00373 6.85637C1.00383 6.85609 1.00393 6.85583 1.00403 6.85559C1.00423 6.85556 1.00444 6.85554 1.00467 6.85551L7.01236 6.34571L7.31269 6.32022L7.43039 6.04275L9.78009 0.503461L12.1298 6.04275L12.2475 6.32022L12.5478 6.34571L18.5558 6.85554C18.556 6.85555 18.5562 6.85557 18.5564 6.85559C18.5585 6.85579 18.5601 6.85605 18.5614 6.85629C18.5615 6.85647 18.5615 6.85666 18.5616 6.85686C18.562 6.85805 18.5622 6.85905 18.5623 6.8598C18.5618 6.86024 18.5613 6.86077 18.5606 6.86137C18.5604 6.86155 18.5602 6.86173 18.56 6.86192L14.0027 10.8096L13.7747 11.0071L13.8431 11.301L15.2128 17.1794C15.2127 17.1794 15.2126 17.1794 15.2126 17.1795C15.2119 17.18 15.2112 17.1804 15.2107 17.1807C15.2102 17.1804 15.2096 17.1801 15.209 17.1797L15.2084 17.1794L10.0384 14.0594Z" stroke="#040404"/>
</svg>
