<svg width="31" height="30" viewBox="0 0 31 30" fill="none" xmlns="http://www.w3.org/2000/svg">
<circle cx="15.4893" cy="15" r="14.5" stroke="#C4C4C4"/>
<path fill-rule="evenodd" clip-rule="evenodd" d="M11.8493 7L19.122 7.00727C19.922 7.00727 20.5765 7.65455 20.5765 8.45455V21.5455C20.5765 22.3455 19.922 23 19.122 23H11.8493C11.0493 23 10.402 22.3455 10.402 21.5455V8.45455C10.402 7.65455 11.0493 7 11.8493 7ZM11.8492 20.0909H19.122V9.90909H11.8492V20.0909Z" fill="#C4C4C4"/>
<path fill-rule="evenodd" clip-rule="evenodd" d="M17.0229 14.9998L18.0854 13.9373C18.1895 13.8332 18.1895 13.665 18.0854 13.5609L16.9268 12.4023C16.8769 12.3523 16.8092 12.3242 16.7386 12.3242C16.668 12.3242 16.6003 12.3523 16.5504 12.4023L15.4879 13.4648L14.4254 12.4023C14.3721 12.3516 14.3053 12.3249 14.2359 12.3249C14.1692 12.3249 14.0998 12.3516 14.049 12.4023L12.8905 13.5609C12.7863 13.665 12.7863 13.8332 12.8905 13.9373L13.9529 14.9998L12.8905 16.0622C12.7863 16.1663 12.7863 16.3345 12.8905 16.4386L14.049 17.5972C14.1532 17.7013 14.3213 17.7013 14.4254 17.5972L15.4879 16.5347L16.5504 17.5972C16.6038 17.6506 16.6705 17.6746 16.7399 17.6746C16.8093 17.6746 16.8761 17.6479 16.9295 17.5972L18.088 16.4386C18.1922 16.3345 18.1922 16.1663 18.088 16.0622L17.0229 14.9998ZM15.4933 14.1935C15.6401 14.1935 15.7602 14.3137 15.7602 14.4605C15.7602 14.6073 15.6401 14.7274 15.4933 14.7274C15.3464 14.7274 15.2263 14.6073 15.2263 14.4605C15.2263 14.3137 15.3464 14.1935 15.4933 14.1935ZM13.2669 13.7504L14.2359 14.7168L15.2023 13.7477L14.2359 12.7814L13.2669 13.7504ZM14.9594 15.2614C14.8125 15.2614 14.6924 15.1412 14.6924 14.9944C14.6924 14.8476 14.8125 14.7274 14.9594 14.7274C15.1062 14.7274 15.2263 14.8476 15.2263 14.9944C15.2263 15.1412 15.1062 15.2614 14.9594 15.2614ZM15.2263 15.5283C15.2263 15.6751 15.3464 15.7953 15.4933 15.7953C15.6401 15.7953 15.7602 15.6751 15.7602 15.5283C15.7602 15.3815 15.6401 15.2614 15.4933 15.2614C15.3464 15.2614 15.2263 15.3815 15.2263 15.5283ZM16.0272 14.7274C16.174 14.7274 16.2941 14.8476 16.2941 14.9944C16.2941 15.1412 16.174 15.2614 16.0272 15.2614C15.8803 15.2614 15.7602 15.1412 15.7602 14.9944C15.7602 14.8476 15.8803 14.7274 16.0272 14.7274ZM15.7682 16.2544L16.7373 17.2208L17.7036 16.2517L16.7373 15.2853L15.7682 16.2544Z" fill="#C4C4C4"/>
</svg>
