<svg width="31" height="30" viewBox="0 0 31 30" fill="none" xmlns="http://www.w3.org/2000/svg">
<circle cx="15.4893" cy="15" r="14.5" stroke="#C4C4C4"/>
<path fill-rule="evenodd" clip-rule="evenodd" d="M15.4893 7C11.0715 7 7.48926 10.5822 7.48926 15C7.48926 19.4178 11.0715 23 15.4893 23C16.227 23 16.8226 22.4044 16.8226 21.6667C16.8226 21.32 16.6893 21.0089 16.4759 20.7689C16.2715 20.5378 16.1381 20.2267 16.1381 19.8889C16.1381 19.1511 16.7337 18.5556 17.4715 18.5556H19.0448C21.4981 18.5556 23.4893 16.5644 23.4893 14.1111C23.4893 10.1822 19.907 7 15.4893 7ZM10.6004 15C9.86259 15 9.26704 14.4044 9.26704 13.6667C9.26704 12.9289 9.86259 12.3333 10.6004 12.3333C11.3381 12.3333 11.9337 12.9289 11.9337 13.6667C11.9337 14.4044 11.3381 15 10.6004 15ZM11.9337 10.1111C11.9337 10.8489 12.5293 11.4444 13.267 11.4444C14.0048 11.4444 14.6004 10.8489 14.6004 10.1111C14.6004 9.37333 14.0048 8.77778 13.267 8.77778C12.5293 8.77778 11.9337 9.37333 11.9337 10.1111ZM17.7115 11.4444C16.9737 11.4444 16.3781 10.8489 16.3781 10.1111C16.3781 9.37333 16.9737 8.77778 17.7115 8.77778C18.4493 8.77778 19.0448 9.37333 19.0448 10.1111C19.0448 10.8489 18.4493 11.4444 17.7115 11.4444ZM19.0448 13.6667C19.0448 14.4044 19.6404 15 20.3781 15C21.1159 15 21.7115 14.4044 21.7115 13.6667C21.7115 12.9289 21.1159 12.3333 20.3781 12.3333C19.6404 12.3333 19.0448 12.9289 19.0448 13.6667Z" fill="#C4C4C4"/>
</svg>
