<svg width="31" height="30" viewBox="0 0 31 30" fill="none" xmlns="http://www.w3.org/2000/svg">
<circle cx="15.4893" cy="15" r="14.5" stroke="#C4C4C4"/>
<path fill-rule="evenodd" clip-rule="evenodd" d="M11.8493 7L19.122 7.00727C19.922 7.00727 20.5765 7.65455 20.5765 8.45455V21.5455C20.5765 22.3455 19.922 23 19.122 23H11.8493C11.0493 23 10.402 22.3455 10.402 21.5455V8.45455C10.402 7.65455 11.0493 7 11.8493 7ZM11.8492 20.0909H19.122V9.90909H11.8492V20.0909Z" fill="#C4C4C4"/>
<path d="M15.7304 17.004H14.8424V16.82C14.8424 16.092 15.2904 15.716 15.7144 15.388C16.0744 15.1 16.4024 14.828 16.4024 14.364C16.4024 13.82 16.0664 13.46 15.5064 13.46C14.9384 13.46 14.5464 13.884 14.5464 14.5H13.5304C13.5304 13.356 14.3704 12.548 15.5304 12.548C16.7224 12.548 17.4424 13.236 17.4424 14.3C17.4424 15.156 16.8904 15.564 16.4264 15.892C16.0344 16.172 15.7304 16.412 15.7304 16.82V17.004ZM15.3224 18.604C14.9624 18.604 14.6744 18.316 14.6744 17.972C14.6744 17.62 14.9624 17.332 15.3224 17.332C15.6744 17.332 15.9704 17.62 15.9704 17.972C15.9704 18.308 15.6744 18.604 15.3224 18.604Z" fill="#C4C4C4"/>
</svg>
