<svg width="31" height="30" viewBox="0 0 31 30" fill="none" xmlns="http://www.w3.org/2000/svg">
<circle cx="15.4893" cy="15" r="14.5" stroke="#C4C4C4"/>
<path fill-rule="evenodd" clip-rule="evenodd" d="M14.5534 7H20.2894C21.1694 7 21.8894 7.72 21.8894 8.6V21.4C21.8894 22.28 21.1694 23 20.2894 23H10.6894C9.80936 23 9.08936 22.28 9.08936 21.4V12.456C9.08936 12.04 9.27336 11.632 9.56936 11.336L13.4174 7.472C13.7214 7.168 14.1294 7 14.5534 7ZM13.8893 10.9998C13.8893 11.4398 14.2494 11.7998 14.6894 11.7998C15.1293 11.7998 15.4893 11.4398 15.4893 10.9998V9.39983C15.4893 8.95983 15.1293 8.59983 14.6894 8.59983C14.2494 8.59983 13.8893 8.95983 13.8893 9.39983V10.9998ZM17.0894 11.7998C16.6494 11.7998 16.2894 11.4398 16.2894 10.9998V9.39983C16.2894 8.95983 16.6494 8.59983 17.0894 8.59983C17.5294 8.59983 17.8894 8.95983 17.8894 9.39983V10.9998C17.8894 11.4398 17.5294 11.7998 17.0894 11.7998ZM18.6893 10.9998C18.6893 11.4398 19.0493 11.7998 19.4893 11.7998C19.9293 11.7998 20.2893 11.4398 20.2893 10.9998V9.39983C20.2893 8.95983 19.9293 8.59983 19.4893 8.59983C19.0493 8.59983 18.6893 8.95983 18.6893 9.39983V10.9998Z" fill="#C4C4C4"/>
</svg>
