<svg xmlns="http://www.w3.org/2000/svg" xmlns:xlink="http://www.w3.org/1999/xlink" id="Calque_1" data-name="Calque 1" viewBox="0 0 514.55 113.39"><defs><style>.cls-1{fill:#fff;}.cls-2{fill:url(#linear-gradient);}.cls-3{fill:#f39000;}.cls-4{fill:#3e2d87;}</style><linearGradient id="linear-gradient" x1="1.81" y1="21.28" x2="93.98" y2="98.62" gradientUnits="userSpaceOnUse"><stop offset="0" stop-color="#e41f13"></stop><stop offset="0.25" stop-color="#eb530c"></stop><stop offset="0.48" stop-color="#f17b07"></stop><stop offset="0.69" stop-color="#f69903"></stop><stop offset="0.87" stop-color="#f8ab01"></stop><stop offset="1" stop-color="#f9b100"></stop></linearGradient></defs><rect class="cls-1" x="1.1" y="12.26" width="88.64" height="91.22"></rect><path id="carre_orange" data-name="carre orange" class="cls-2" d="M1.1,12.26V45A8.36,8.36,0,0,1,7,47.48a8.42,8.42,0,0,1,2,3.34,2.77,2.77,0,0,0,5.18-2h0a5.71,5.71,0,1,1,1.33,2.1l-.13-.15a3.94,3.94,0,0,1-3.9,2.93,3.9,3.9,0,0,1-2.08-.65,8.43,8.43,0,0,1-1.12,4.55h0a2.78,2.78,0,0,0,4.8,2.81h0A12.57,12.57,0,0,1,15,57.94a12.17,12.17,0,0,1,17.24,0,12,12,0,0,1,2.79,4.35h0a2.78,2.78,0,0,0,5.21-1.92,17.89,17.89,0,1,1,4,6.17,18.27,18.27,0,0,1-2.94-3.86A3.92,3.92,0,0,1,39.09,65a4.06,4.06,0,0,1-1.4.25,3.94,3.94,0,0,1-2-.55,12.19,12.19,0,1,1-23.61-2,4,4,0,0,1-3.36-.29,4,4,0,0,1-1.91-2.92,8.41,8.41,0,0,1-5.72,2.3v41.65H89.73V12.26Z"></path><path class="cls-3" d="M111.71,76.1a12.94,12.94,0,0,1-2.56-8.33v-41a2,2,0,0,1,.6-1.54,2.08,2.08,0,0,1,3.6,1.54v41a9.42,9.42,0,0,0,1.37,5.29,4.09,4.09,0,0,0,3.53,2.06H120a1.62,1.62,0,0,1,1.26.56,2.26,2.26,0,0,1,.49,1.54,2.14,2.14,0,0,1-.56,1.51,2,2,0,0,1-1.54.59h-1.4A8,8,0,0,1,111.71,76.1Z"></path><path class="cls-3" d="M154.58,43.17a18.57,18.57,0,0,1,7,7,19.9,19.9,0,0,1,2.55,10v17a2.14,2.14,0,0,1-.56,1.51A2.12,2.12,0,0,1,160,77.22V71.76a16.32,16.32,0,0,1-6.33,5.85,19,19,0,0,1-9,2.13,19.88,19.88,0,0,1-10-2.55,18.5,18.5,0,0,1-7-7,20.71,20.71,0,0,1,0-20,18.47,18.47,0,0,1,7-7,20.71,20.71,0,0,1,20,0Zm-2.1,30.62a14.58,14.58,0,0,0,5.5-5.6,17,17,0,0,0,0-16,14.8,14.8,0,0,0-5.5-5.63,15.38,15.38,0,0,0-21.21,5.63,16.7,16.7,0,0,0,0,16,14.8,14.8,0,0,0,5.53,5.6,16.15,16.15,0,0,0,15.68,0Z"></path><path class="cls-4" d="M202.6,43.17a18.47,18.47,0,0,1,7,7,20.71,20.71,0,0,1,0,20,18.5,18.5,0,0,1-7,7,19.88,19.88,0,0,1-10,2.55,19,19,0,0,1-9-2.13,16.32,16.32,0,0,1-6.33-5.85V93.6a2.09,2.09,0,0,1-.56,1.54,2.07,2.07,0,0,1-1.54.56,2.09,2.09,0,0,1-1.51-.56,2,2,0,0,1-.59-1.54V59.79a19.42,19.42,0,0,1,2.66-9.8,18.46,18.46,0,0,1,7-6.89,20.77,20.77,0,0,1,19.85.07Zm-2.17,30.62a14.87,14.87,0,0,0,5.53-5.6,16.7,16.7,0,0,0,0-16,15.59,15.59,0,0,0-21.21-5.63,14.73,14.73,0,0,0-5.5,5.63,17,17,0,0,0,0,16,14.51,14.51,0,0,0,5.5,5.6,16.15,16.15,0,0,0,15.68,0Z"></path><path class="cls-4" d="M248.52,43.17a18.57,18.57,0,0,1,7,7,19.9,19.9,0,0,1,2.55,10v17a2.14,2.14,0,0,1-.56,1.51,2,2,0,0,1-1.54.59,2,2,0,0,1-2.1-2.1V71.76a16.28,16.28,0,0,1-6.34,5.85,18.91,18.91,0,0,1-9,2.13,19.88,19.88,0,0,1-10-2.55,18.59,18.59,0,0,1-7-7,20.78,20.78,0,0,1,0-20,18.57,18.57,0,0,1,7-7,20.71,20.71,0,0,1,20,0Zm-2.1,30.62a14.55,14.55,0,0,0,5.49-5.6,16.92,16.92,0,0,0,0-16,14.77,14.77,0,0,0-5.49-5.63,15.38,15.38,0,0,0-21.21,5.63,16.7,16.7,0,0,0,0,16,14.8,14.8,0,0,0,5.53,5.6,16.15,16.15,0,0,0,15.68,0Z"></path><path class="cls-4" d="M272.11,78.31a15.24,15.24,0,0,1-6.37-4.38,1.84,1.84,0,0,1-.49-1.26,1.89,1.89,0,0,1,.91-1.61,1.82,1.82,0,0,1,1.19-.35,2,2,0,0,1,1.61.77q3.5,4.27,11.27,4.27,5.52,0,8.15-2a6,6,0,0,0,2.63-5q0-5.52-10.71-7.07-6.8-1-10.26-3.71a8.13,8.13,0,0,1-3.46-6.58,9.4,9.4,0,0,1,3.74-7.94,15.76,15.76,0,0,1,9.77-2.84q8.82,0,13.37,6.3a1.78,1.78,0,0,1,.42,1.19,1.85,1.85,0,0,1-1.12,1.61,3.14,3.14,0,0,1-1.05.28,2.11,2.11,0,0,1-1.75-.91,12,12,0,0,0-10-4.55,11.18,11.18,0,0,0-6.79,1.86A5.51,5.51,0,0,0,270.64,51a5.2,5.2,0,0,0,2.41,4.48q2.42,1.68,8.09,2.52,7.41,1.05,10.67,4a9.08,9.08,0,0,1,3.26,7A8.51,8.51,0,0,1,293,74.63a13.17,13.17,0,0,1-5.49,3.78A20.51,20.51,0,0,1,280,79.74,22.58,22.58,0,0,1,272.11,78.31Z"></path><path class="cls-4" d="M308,78.31a15.24,15.24,0,0,1-6.37-4.38,1.84,1.84,0,0,1-.49-1.26,1.89,1.89,0,0,1,.91-1.61,1.82,1.82,0,0,1,1.19-.35,2,2,0,0,1,1.61.77q3.5,4.27,11.27,4.27,5.52,0,8.15-2a6,6,0,0,0,2.63-5q0-5.52-10.71-7.07-6.79-1-10.26-3.71a8.13,8.13,0,0,1-3.46-6.58,9.4,9.4,0,0,1,3.74-7.94A15.76,15.76,0,0,1,316,40.61q8.82,0,13.37,6.3a1.78,1.78,0,0,1,.42,1.19,1.85,1.85,0,0,1-1.12,1.61,3.14,3.14,0,0,1-1.05.28,2.11,2.11,0,0,1-1.75-.91,12,12,0,0,0-10-4.55,11.18,11.18,0,0,0-6.79,1.86A5.51,5.51,0,0,0,306.55,51,5.2,5.2,0,0,0,309,55.45q2.42,1.68,8.09,2.52,7.41,1.05,10.67,4A9.08,9.08,0,0,1,331,69a8.51,8.51,0,0,1-2.07,5.67,13.17,13.17,0,0,1-5.49,3.78,20.51,20.51,0,0,1-7.49,1.33A22.58,22.58,0,0,1,308,78.31Z"></path><path class="cls-4" d="M363.84,43.1a16.69,16.69,0,0,1,6.27,6.68,20.68,20.68,0,0,1,2.24,9.73,1.89,1.89,0,0,1-.56,1.44,2.08,2.08,0,0,1-1.47.52H341a15.58,15.58,0,0,0,2.17,7.39,13.74,13.74,0,0,0,5.25,5.07,14.84,14.84,0,0,0,7.35,1.82,16.86,16.86,0,0,0,5.49-.94,11.7,11.7,0,0,0,4.38-2.49,2.31,2.31,0,0,1,1.47-.56A1.84,1.84,0,0,1,368.5,75a17.55,17.55,0,0,1-5.85,3.36,19.8,19.8,0,0,1-6.89,1.33,19.39,19.39,0,0,1-9.84-2.48,17.71,17.71,0,0,1-6.75-6.93,20.41,20.41,0,0,1-2.45-10.05A21.94,21.94,0,0,1,339,50.1a16.89,16.89,0,0,1,6.37-6.93,17.64,17.64,0,0,1,9.35-2.49A17.4,17.4,0,0,1,363.84,43.1ZM345.5,48.24a15.43,15.43,0,0,0-4.44,9.59h27.23a14.66,14.66,0,0,0-4.2-9.59,12.88,12.88,0,0,0-9.38-3.64A12.74,12.74,0,0,0,345.5,48.24Z"></path><path class="cls-4" d="M401.4,42.92a2,2,0,0,1-.07.56,1.82,1.82,0,0,1-.67,1.09,2.1,2.1,0,0,1-1.22.31,11.61,11.61,0,0,1-1.65-.14,13.41,13.41,0,0,0-1.71-.14,12.91,12.91,0,0,0-6.23,1.47,10.84,10.84,0,0,0-4.27,4.06A11.14,11.14,0,0,0,384,55.94V77.22a2.14,2.14,0,0,1-.56,1.51,2,2,0,0,1-1.54.59,2,2,0,0,1-2.1-2.1V43.13a2,2,0,0,1,.59-1.54,2.14,2.14,0,0,1,1.51-.56,1.94,1.94,0,0,1,2.1,2.1v4.34a15,15,0,0,1,5.18-5,13.49,13.49,0,0,1,6.86-1.82C399.62,40.61,401.4,41.38,401.4,42.92Z"></path><path class="cls-4" d="M429.71,43.1A16.76,16.76,0,0,1,436,49.78a20.68,20.68,0,0,1,2.24,9.73,1.89,1.89,0,0,1-.56,1.44,2.08,2.08,0,0,1-1.47.52H406.86A15.58,15.58,0,0,0,409,68.86a13.74,13.74,0,0,0,5.25,5.07,14.84,14.84,0,0,0,7.35,1.82,16.86,16.86,0,0,0,5.49-.94,11.7,11.7,0,0,0,4.38-2.49,2.31,2.31,0,0,1,1.47-.56,1.84,1.84,0,0,1,1.4,3.22,17.55,17.55,0,0,1-5.85,3.36,19.8,19.8,0,0,1-6.89,1.33,19.39,19.39,0,0,1-9.84-2.48A17.71,17.71,0,0,1,405,70.26a20.41,20.41,0,0,1-2.45-10.05,21.81,21.81,0,0,1,2.27-10.11,16.89,16.89,0,0,1,6.37-6.93,17.64,17.64,0,0,1,9.35-2.49A17.4,17.4,0,0,1,429.71,43.1Zm-18.34,5.14a15.43,15.43,0,0,0-4.44,9.59h27.23a14.66,14.66,0,0,0-4.2-9.59,12.88,12.88,0,0,0-9.38-3.64A12.74,12.74,0,0,0,411.37,48.24Z"></path><path class="cls-4" d="M446.86,76.1a13,13,0,0,1-2.55-8.33v-41a2,2,0,0,1,.59-1.54,2.14,2.14,0,0,1,1.51-.56,1.94,1.94,0,0,1,2.1,2.1v41a9.42,9.42,0,0,0,1.36,5.29,4.11,4.11,0,0,0,3.54,2.06h1.75a1.62,1.62,0,0,1,1.26.56,2.31,2.31,0,0,1,.49,1.54,2.14,2.14,0,0,1-.56,1.51,2,2,0,0,1-1.54.59h-1.4A8,8,0,0,1,446.86,76.1Z"></path><path class="cls-4" d="M464.15,76.1a13,13,0,0,1-2.55-8.33v-41a2,2,0,0,1,.59-1.54,2.14,2.14,0,0,1,1.51-.56,1.94,1.94,0,0,1,2.1,2.1v41a9.42,9.42,0,0,0,1.36,5.29,4.11,4.11,0,0,0,3.54,2.06h1.75a1.62,1.62,0,0,1,1.26.56,2.31,2.31,0,0,1,.49,1.54,2.14,2.14,0,0,1-.56,1.51,2,2,0,0,1-1.54.59h-1.4A8,8,0,0,1,464.15,76.1Z"></path><path class="cls-4" d="M504.61,43.1a16.76,16.76,0,0,1,6.27,6.68,20.68,20.68,0,0,1,2.24,9.73,1.89,1.89,0,0,1-.56,1.44,2.08,2.08,0,0,1-1.47.52H481.76a15.58,15.58,0,0,0,2.17,7.39,13.74,13.74,0,0,0,5.25,5.07,14.84,14.84,0,0,0,7.35,1.82,16.86,16.86,0,0,0,5.49-.94,11.78,11.78,0,0,0,4.38-2.49,2.31,2.31,0,0,1,1.47-.56,1.84,1.84,0,0,1,1.4,3.22,17.65,17.65,0,0,1-5.85,3.36,19.8,19.8,0,0,1-6.89,1.33,19.39,19.39,0,0,1-9.84-2.48,17.71,17.71,0,0,1-6.75-6.93,20.41,20.41,0,0,1-2.45-10.05,21.81,21.81,0,0,1,2.27-10.11,16.89,16.89,0,0,1,6.37-6.93,17.64,17.64,0,0,1,9.35-2.49A17.4,17.4,0,0,1,504.61,43.1Zm-18.34,5.14a15.37,15.37,0,0,0-4.44,9.59h27.23a14.66,14.66,0,0,0-4.2-9.59,12.88,12.88,0,0,0-9.38-3.64A12.74,12.74,0,0,0,486.27,48.24Z"></path></svg>