<svg width="139" height="28" viewBox="0 0 139 28" fill="none" xmlns="http://www.w3.org/2000/svg">
<g clip-path="url(#clip0_596_8886)">
<path d="M92.1392 27.8574C92.1591 27.8568 92.1746 27.8525 92.1738 27.8478C92.1731 27.8432 92.1565 27.8399 92.1366 27.8406C92.1168 27.8413 92.1013 27.8456 92.102 27.8502C92.1027 27.8549 92.1194 27.8581 92.1392 27.8574Z" fill="#F55E00"/>
<path d="M92.1346 25.4219C92.1544 25.4212 92.1699 25.4169 92.1692 25.4123C92.1685 25.4076 92.1518 25.4044 92.132 25.4051C92.1122 25.4057 92.0966 25.41 92.0974 25.4147C92.0981 25.4193 92.1147 25.4226 92.1346 25.4219Z" fill="#F55E00"/>
<path fill-rule="evenodd" clip-rule="evenodd" d="M34.7616 23.0254C36.9216 23.0254 38.2596 21.2704 38.2596 18.6624C38.2596 16.0545 36.9276 14.3056 34.7676 14.3056C32.6076 14.3056 31.2816 16.0483 31.2816 18.6624C31.2816 21.2765 32.6076 23.0192 34.7616 23.0254ZM36.3816 10.0776C40.5036 10.0776 43.2216 13.7104 43.2816 18.6011C43.2816 23.5715 40.4376 27.2533 36.2676 27.2533C34.1676 27.3024 32.1996 26.2224 31.0716 24.4122H31.0056V26.6274C31.0056 26.7992 30.8736 26.9342 30.7056 26.9342H26.7816C26.6136 26.9342 26.4816 26.7992 26.4816 26.6274V4.79424C26.4816 3.10674 27.5796 2.05128 28.8816 2.05128C30.1836 2.05128 31.2816 3.10674 31.2816 4.79424V12.6856H31.3476C32.5116 11.0288 34.3896 10.0592 36.3816 10.0776ZM53.0376 23.0254C55.2036 23.0254 56.5236 21.2704 56.5236 18.6624C56.5236 16.0545 55.2036 14.3056 53.0376 14.3056C50.8716 14.3056 49.5516 16.0483 49.5516 18.6624C49.5516 21.2765 50.8716 23.0254 53.0376 23.0254ZM53.0376 10.0776C58.1376 10.0776 61.4376 13.6429 61.4376 18.6686C61.4376 23.6942 58.1436 27.2595 53.0376 27.2595C47.9316 27.2595 44.6376 23.6942 44.6376 18.6686C44.6376 13.6429 47.9316 10.0776 53.0376 10.0776ZM117.148 10.0776C118.468 10.0776 119.566 11.1331 119.59 12.8206V26.6274C119.59 26.7992 119.458 26.9342 119.29 26.9342H115.048C114.88 26.9342 114.748 26.7992 114.748 26.6274V12.8206C114.748 11.1331 115.822 10.0776 117.148 10.0776ZM117.148 1.45605C119.26 1.45605 120.85 3.73265 119.704 6.02151C119.242 6.93583 118.282 7.46969 117.274 7.46969C115.852 7.46969 114.538 6.49401 114.262 5.07037C113.896 3.14355 115.324 1.45605 117.142 1.45605L117.148 1.45605ZM132.292 10.0776C135.652 10.0776 137.458 12.5199 137.458 16.2201V26.6274C137.458 26.7992 137.326 26.9342 137.158 26.9342H132.916C132.748 26.9342 132.616 26.7992 132.616 26.6274V17.607C132.616 15.4286 131.614 14.7045 130.354 14.7045C128.482 14.7045 127.06 16.3183 127.06 19.7547V26.6274C127.06 26.7992 126.928 26.9342 126.76 26.9342H122.518C122.35 26.9342 122.218 26.7992 122.218 26.6274V12.6672C122.218 11.0472 123.256 10.0899 124.48 10.0899C125.704 10.0899 126.736 11.0472 126.736 12.6672V13.2808H126.802C127.948 11.2988 130.036 10.0776 132.292 10.0776ZM104.29 23.0254C106.456 23.0254 107.782 21.2704 107.782 18.6624C107.782 16.0545 106.45 14.3056 104.29 14.3056C102.13 14.3056 100.804 16.0483 100.804 18.6624C100.804 21.2765 102.13 23.0254 104.29 23.0254ZM104.29 10.0776C109.396 10.0776 112.69 13.6429 112.69 18.6686C112.69 23.6942 109.396 27.2595 104.29 27.2595C99.1835 27.2595 95.8895 23.6942 95.8895 18.6686C95.8895 13.6429 99.1895 10.0776 104.29 10.0776ZM91.3716 15.5881C91.2876 15.4654 91.1796 15.3611 91.0715 15.2629C90.4475 14.6676 89.6015 14.3363 88.7255 14.3731C86.6255 14.3731 85.3355 15.9563 85.3355 18.6686C85.3355 21.3808 86.6255 22.964 88.7255 22.964C89.7815 23.007 90.7896 22.5222 91.4255 21.6815C91.4255 21.6815 91.7375 21.3563 92.2355 21.6508L95.0075 23.4733C95.1395 23.5592 95.1876 23.7433 95.1096 23.8845C93.8376 26.1549 91.3596 27.2595 88.5636 27.2595C83.5236 27.2595 80.4215 23.6942 80.4215 18.6686C80.4215 13.6429 83.5236 10.0776 88.5636 10.0776C91.3656 10.0776 93.8676 11.1761 95.1156 13.4526C95.1936 13.5938 95.1456 13.7779 95.0135 13.8638L92.1636 15.7354C92.1636 15.7354 91.7375 16.0913 91.3716 15.582V15.5881ZM73.4496 10.0776C76.8096 10.0776 78.6156 12.5199 78.6276 16.2201V26.6274C78.6276 26.7992 78.4956 26.9342 78.3276 26.9342H74.0856C73.9176 26.9342 73.7856 26.7992 73.7856 26.6274V17.607C73.7856 15.4286 72.7836 14.7045 71.5236 14.7045C69.6516 14.7045 68.2296 16.3183 68.2296 19.7547V26.6274C68.2296 26.7992 68.0976 26.9342 67.9296 26.9342H63.6816C63.5136 26.9342 63.3816 26.7992 63.3816 26.6274V12.6549C63.3816 11.0349 64.4016 10.0899 65.6316 10.0899C66.8616 10.0899 67.8936 11.0472 67.8936 12.6672V13.2808H67.9596C69.1056 11.2926 71.1936 10.0776 73.4496 10.0776ZM13.3116 17.6867C13.3236 18.1715 13.3896 18.6563 13.5156 19.1288C13.5696 19.3313 13.8096 19.4049 13.9716 19.2822L18.8256 15.6065C19.1796 15.3365 19.1196 14.7781 18.7236 14.594C17.9976 14.2565 17.3016 13.9804 16.5696 14.0111C15.0396 14.0111 13.3176 15.1892 13.3176 17.6929L13.3116 17.6867ZM18.0036 23.2095C19.6416 23.1113 21.1236 22.197 21.9756 20.7795C22.0656 20.6261 22.2636 20.577 22.4076 20.6813L24.9396 22.5529C25.2336 22.7738 25.2756 22.9395 25.2036 23.0745C23.9436 25.4861 21.4896 27.2472 17.4216 27.2472C15.5256 27.2472 13.6896 26.5661 12.2316 25.3388C12.1056 25.2345 11.9316 25.2222 11.7936 25.3142C9.78356 26.6397 8.04956 27.2104 6.31556 27.2104C2.68556 27.2104 0.12356 24.7251 0.12356 20.9942V4.75128C0.11756 3.06992 1.20956 2.01446 2.51756 2.01446C3.82556 2.01446 4.91756 3.06992 4.91756 4.75128V20.5892C4.91756 22.1847 5.60156 23.0438 7.03556 23.0438C7.74956 23.0438 8.52356 22.6572 9.49556 22.1172C9.64556 22.0313 9.71156 21.8472 9.65156 21.6815C9.20156 20.4849 8.97356 19.2147 8.98556 17.9383C8.98556 14.4345 11.4276 10.0776 16.5576 10.0776C20.9076 10.0776 23.2836 12.6058 24.3216 15.8274C24.3636 15.9563 24.3216 16.0974 24.2076 16.1772L16.1436 22.0926C15.9756 22.2154 15.9816 22.4731 16.1436 22.602C16.6836 23.0008 17.3316 23.2156 18.0036 23.2095Z" fill="#F55E00"/>
</g>
<defs>
<clipPath id="clip0_596_8886">
<rect width="138" height="27" fill="white" transform="translate(0.123535 0.857422)"/>
</clipPath>
</defs>
</svg>
