<svg width="45" height="45" viewBox="0 0 45 45" fill="none" xmlns="http://www.w3.org/2000/svg">
<path d="M28.9826 21.466H17.8126L22.6926 16.586C23.0826 16.196 23.0826 15.556 22.6926 15.166C22.5058 14.9788 22.2522 14.8735 21.9876 14.8735C21.7231 14.8735 21.4695 14.9788 21.2826 15.166L14.6926 21.756C14.3026 22.146 14.3026 22.776 14.6926 23.166L21.2826 29.756C21.6726 30.146 22.3026 30.146 22.6926 29.756C23.0826 29.366 23.0826 28.736 22.6926 28.346L17.8126 23.466H28.9826C29.5326 23.466 29.9826 23.016 29.9826 22.466C29.9826 21.916 29.5326 21.466 28.9826 21.466Z" fill="#040404"/>
</svg>
