<svg width="45" height="45" viewBox="0 0 45 45" fill="none" xmlns="http://www.w3.org/2000/svg">
<path d="M16.1003 23.4611H27.2703L22.3903 28.3411C22.0003 28.7311 22.0003 29.3711 22.3903 29.7611C22.7803 30.1511 23.4103 30.1511 23.8003 29.7611L30.3903 23.1711C30.7803 22.7811 30.7803 22.1511 30.3903 21.7611L23.8103 15.1611C23.6235 14.9739 23.3699 14.8687 23.1053 14.8687C22.8408 14.8687 22.5872 14.9739 22.4003 15.1611C22.0103 15.5511 22.0103 16.1811 22.4003 16.5711L27.2703 21.4611H16.1003C15.5503 21.4611 15.1003 21.9111 15.1003 22.4611C15.1003 23.0111 15.5503 23.4611 16.1003 23.4611Z" fill="#040404"/>
</svg>
