<svg width="16" height="20" viewBox="0 0 16 20" fill="none" xmlns="http://www.w3.org/2000/svg">
<path d="M3.99723 2.15272H4.18917L4.3318 2.02429L5.46923 1.00011L10.5981 1L11.7357 2.02429L11.8783 2.15272H12.0702H14.2761C14.5961 2.15272 14.8462 2.4079 14.8462 2.71121C14.8462 3.01452 14.5961 3.2697 14.2761 3.2697H1.79132C1.47128 3.2697 1.22119 3.01452 1.22119 2.71121C1.22119 2.4079 1.47128 2.15272 1.79132 2.15272H3.99723ZM2.06833 7.15196C2.06833 6.14995 2.89105 5.32837 3.91746 5.32837H12.1498C13.1762 5.32837 13.999 6.14995 13.999 7.15196V17.6764C13.999 18.6784 13.1762 19.5 12.1498 19.5H3.91746C2.89105 19.5 2.06833 18.6784 2.06833 17.6764V7.15196Z" stroke="#F55E00" stroke-linecap="round"/>
</svg>
