<svg width="16" height="20" viewBox="0 0 16 20" fill="none" xmlns="http://www.w3.org/2000/svg">
<path d="M10.7901 0.5L5.27729 0.500113L3.99723 1.65272H1.79132C1.2003 1.65272 0.721191 2.12662 0.721191 2.71121C0.721191 3.2958 1.2003 3.7697 1.79132 3.7697H14.2761C14.8671 3.7697 15.3462 3.2958 15.3462 2.71121C15.3462 2.12662 14.8671 1.65272 14.2761 1.65272H12.0702L10.7901 0.5Z" fill="#F55E00"/>
<path fill-rule="evenodd" clip-rule="evenodd" d="M3.91746 4.82837C2.62007 4.82837 1.56833 5.86867 1.56833 7.15196V17.6764C1.56833 18.9597 2.62007 20 3.91746 20H12.1498C13.4472 20 14.499 18.9597 14.499 17.6764V7.15196C14.499 5.86867 13.4472 4.82837 12.1498 4.82837H3.91746Z" fill="#F55E00"/>
</svg>
