<svg width="16" height="15" viewBox="0 0 16 15" fill="none" xmlns="http://www.w3.org/2000/svg">
<path d="M14.8445 0.344125C14.6319 0.131096 14.3434 0.0113766 14.0425 0.0113766C13.7415 0.0113766 13.453 0.131096 13.2404 0.344125L7.67726 5.89589L2.11411 0.332748C1.90156 0.119719 1.61299 0 1.31206 0C1.01113 0 0.722561 0.119719 0.510011 0.332748C0.0663245 0.776435 0.0663245 1.49316 0.510011 1.93685L6.07316 7.49999L0.510011 13.0631C0.0663245 13.5068 0.0663245 14.2235 0.510011 14.6672C0.953698 15.1109 1.67042 15.1109 2.11411 14.6672L7.67726 9.10409L13.2404 14.6672C13.6841 15.1109 14.4008 15.1109 14.8445 14.6672C15.2882 14.2235 15.2882 13.5068 14.8445 13.0631L9.28135 7.49999L14.8445 1.93685C15.2768 1.50454 15.2768 0.776435 14.8445 0.344125Z" fill="#F55E00"/>
</svg>
