<svg width="21" height="24" viewBox="0 0 21 24" fill="none" xmlns="http://www.w3.org/2000/svg">
<path d="M14.1854 10.735H13.8819L13.3512 10.4283C13.3311 10.4287 13.311 10.4249 13.2923 10.4173C13.2736 10.4097 13.2567 10.3984 13.2425 10.3841C13.2283 10.3698 13.2172 10.3527 13.2098 10.3339C13.2024 10.3152 13.1989 10.2951 13.1995 10.2749V9.43104C13.1995 9.27769 13.1995 9.27769 13.3512 9.12433L19.7234 5.13704L10.4682 0H9.86125L0.530647 5.13791L10.9989 11.2722C11.1506 11.2722 11.1506 11.4256 11.1506 11.5789V20.4737C11.1506 20.627 11.1506 20.627 10.9989 20.7804L10.4682 21.0871H10.1647L9.63408 20.7804C9.48235 20.7804 9.48235 20.627 9.48235 20.4737V12.5753C9.48282 12.5552 9.47923 12.5352 9.47179 12.5165C9.46436 12.4978 9.45323 12.4808 9.43906 12.4664C9.4249 12.4521 9.408 12.4408 9.38937 12.4332C9.37073 12.4255 9.35075 12.4217 9.33061 12.422L0 6.9782V17.5599C0.0353014 17.8137 0.140353 18.0527 0.303477 18.2504L9.70951 23.8466C9.86125 23.8466 9.86125 24 10.013 24C10.1647 24 10.3165 24 10.3165 23.8466L19.7225 18.2495C19.8231 18.1657 19.9029 18.0598 19.9556 17.9399C20.0082 17.8201 20.0323 17.6897 20.026 17.559V6.9782L14.1854 10.735Z" fill="url(#paint0_linear_745_8212)"/>
<defs>
<linearGradient id="paint0_linear_745_8212" x1="-0.0801079" y1="12.024" x2="20.3074" y2="12.024" gradientUnits="userSpaceOnUse">
<stop stop-color="#006CAF"/>
<stop offset="0.332" stop-color="#0081C5"/>
<stop offset="0.733" stop-color="#0095DA"/>
<stop offset="1" stop-color="#009CE1"/>
</linearGradient>
</defs>
</svg>
