<svg width="139" height="41" viewBox="0 0 139 41" fill="none" xmlns="http://www.w3.org/2000/svg">
<g clip-path="url(#clip0_657_7233)">
<path d="M133.25 0.82C134.392 0.82 135.487 1.27356 136.294 2.0809C137.101 2.88825 137.555 3.98324 137.555 5.125V35.875C137.555 37.0168 137.101 38.1117 136.294 38.9191C135.487 39.7264 134.392 40.18 133.25 40.18H5.125C3.98324 40.18 2.88825 39.7264 2.0809 38.9191C1.27356 38.1117 0.82 37.0168 0.82 35.875V5.125C0.82 3.98324 1.27356 2.88825 2.0809 2.0809C2.88825 1.27356 3.98324 0.82 5.125 0.82H133.25ZM133.25 0H5.125C3.76576 0 2.4622 0.539954 1.50108 1.50108C0.539954 2.4622 0 3.76576 0 5.125V35.875C0 37.2342 0.539954 38.5378 1.50108 39.4989C2.4622 40.46 3.76576 41 5.125 41H133.25C134.609 41 135.913 40.46 136.874 39.4989C137.835 38.5378 138.375 37.2342 138.375 35.875V5.125C138.375 3.76576 137.835 2.4622 136.874 1.50108C135.913 0.539954 134.609 0 133.25 0Z" fill="black"/>
<path d="M48.6053 10.4956C48.6221 10.8715 48.5627 11.2469 48.4306 11.5992C48.2985 11.9515 48.0964 12.2735 47.8366 12.5456C47.5454 12.8462 47.194 13.082 46.8054 13.2374C46.4168 13.3929 45.9998 13.4645 45.5816 13.4476C45.161 13.457 44.7429 13.3799 44.3533 13.2213C43.9636 13.0626 43.6107 12.8257 43.3163 12.5251C42.7191 11.9142 42.3846 11.0937 42.3846 10.2394C42.3846 9.38498 42.7191 8.56454 43.3163 7.9536C43.773 7.5074 44.3513 7.20611 44.9786 7.08757C45.606 6.96903 46.2544 7.03854 46.8423 7.28735C47.2119 7.43929 47.5416 7.67427 47.8058 7.9741L47.2626 8.51735C47.059 8.27214 46.8011 8.07777 46.5093 7.94966C46.2175 7.82155 45.8998 7.76324 45.5816 7.77935C45.1798 7.78213 44.7848 7.88328 44.4311 8.07395C44.0775 8.26463 43.7759 8.53902 43.5528 8.87316C43.3297 9.20729 43.1918 9.591 43.1512 9.99073C43.1106 10.3905 43.1685 10.794 43.3199 11.1662C43.4713 11.5384 43.7115 11.8678 44.0196 12.1257C44.3277 12.3836 44.6943 12.5621 45.0873 12.6456C45.4803 12.7291 45.8878 12.715 46.2742 12.6047C46.6605 12.4944 47.0139 12.2911 47.3036 12.0126C47.6167 11.6693 47.7982 11.2264 47.8161 10.7621H45.5816V10.0241H48.5643C48.5877 10.1803 48.6013 10.3377 48.6053 10.4956Z" fill="black" stroke="black" stroke-width="0.411304" stroke-miterlimit="10"/>
<path d="M53.3 7.93428H50.5325V9.88178H53.054V10.6198H50.5325V12.5673H53.3V13.3258H49.733V7.17578H53.3V7.93428Z" fill="black" stroke="black" stroke-width="0.411304" stroke-miterlimit="10"/>
<path d="M56.6616 13.3258H55.8724V7.93428H54.1504V7.17578H58.4246V7.93428H56.6616V13.3258Z" fill="black" stroke="black" stroke-width="0.411304" stroke-miterlimit="10"/>
<path d="M61.4386 13.3258V7.17578H62.2278V13.3258H61.4386Z" fill="black" stroke="black" stroke-width="0.411304" stroke-miterlimit="10"/>
<path d="M65.7332 13.3258H64.9439V7.93428H63.2219V7.17578H67.4449V7.93428H65.7332V13.3258Z" fill="black" stroke="black" stroke-width="0.411304" stroke-miterlimit="10"/>
<path d="M75.4503 12.5258C75.1542 12.8221 74.8027 13.0571 74.4158 13.2175C74.0289 13.3778 73.6141 13.4604 73.1953 13.4604C72.7765 13.4604 72.3617 13.3778 71.9748 13.2175C71.5879 13.0571 71.2363 12.8221 70.9403 12.5258C70.3608 11.9098 70.0382 11.096 70.0382 10.2503C70.0382 9.4046 70.3608 8.59077 70.9403 7.97479C71.23 7.67016 71.5803 7.42973 71.9688 7.26906C72.3572 7.10838 72.7751 7.03104 73.1953 7.04204C73.6149 7.03541 74.0315 7.11474 74.4193 7.27515C74.8071 7.43556 75.158 7.67367 75.4503 7.97479C75.745 8.2746 75.9767 8.63042 76.1316 9.02124C76.2865 9.41207 76.3616 9.82998 76.3523 10.2503C76.3657 10.6711 76.2926 11.0902 76.1375 11.4817C75.9823 11.8731 75.7484 12.2285 75.4503 12.5258ZM71.5245 12.0133C71.7429 12.2346 72.003 12.4103 72.2898 12.5302C72.5766 12.6501 72.8844 12.7119 73.1953 12.7119C73.5062 12.7119 73.8139 12.6501 74.1007 12.5302C74.3876 12.4103 74.6477 12.2346 74.866 12.0133C75.3083 11.5327 75.5538 10.9034 75.5538 10.2503C75.5538 9.59716 75.3083 8.96789 74.866 8.48729C74.6477 8.26602 74.3876 8.09032 74.1007 7.9704C73.8139 7.85048 73.5062 7.78873 73.1953 7.78873C72.8844 7.78873 72.5766 7.85048 72.2898 7.9704C72.003 8.09032 71.7429 8.26602 71.5245 8.48729C71.0823 8.96789 70.8368 9.59716 70.8368 10.2503C70.8368 10.9034 71.0823 11.5327 71.5245 12.0133Z" fill="black" stroke="black" stroke-width="0.411304" stroke-miterlimit="10"/>
<path d="M77.469 13.3258V7.17578H78.4222L81.4152 11.9625V10.7735V7.17578H82.2045V13.3258H81.3845L78.2582 8.31353V9.49228V13.3258H77.469Z" fill="black" stroke="black" stroke-width="0.411304" stroke-miterlimit="10"/>
<path d="M69.8434 22.2928C68.9798 22.2949 68.1362 22.5529 67.4192 23.0344C66.7023 23.5159 66.1442 24.1992 65.8156 24.9978C65.487 25.7965 65.4026 26.6746 65.5731 27.5212C65.7435 28.3679 66.1612 29.1449 66.7733 29.7542C67.3854 30.3634 68.1644 30.7774 69.0118 30.9439C69.8592 31.1104 70.737 31.0219 71.5341 30.6895C72.3312 30.3572 73.0118 29.7959 73.4899 29.0767C73.968 28.3575 74.2222 27.5127 74.2201 26.6491C74.2285 26.073 74.1208 25.5011 73.9036 24.9674C73.6863 24.4338 73.3639 23.9493 72.9555 23.5428C72.5472 23.1364 72.0612 22.8162 71.5265 22.6015C70.9919 22.3867 70.4194 22.2818 69.8434 22.2928ZM69.8434 29.2936C69.314 29.3306 68.7858 29.2075 68.3274 28.9404C67.8689 28.6732 67.5014 28.2743 67.2727 27.7955C67.044 27.3167 66.9646 26.7802 67.0448 26.2556C67.125 25.7311 67.3612 25.2429 67.7226 24.8544C68.084 24.4658 68.554 24.195 69.0713 24.0771C69.5887 23.9592 70.1295 23.9997 70.6236 24.1933C71.1176 24.3868 71.5421 24.7246 71.8416 25.1625C72.1412 25.6005 72.3021 26.1185 72.3034 26.6491C72.3199 26.9853 72.2689 27.3214 72.1535 27.6376C72.038 27.9538 71.8604 28.2437 71.6311 28.4902C71.4018 28.7366 71.1255 28.9347 70.8185 29.0727C70.5115 29.2107 70.1799 29.2858 69.8434 29.2936ZM60.2904 22.2928C59.4268 22.2949 58.5832 22.5529 57.8662 23.0344C57.1493 23.5159 56.5912 24.1992 56.2626 24.9978C55.934 25.7965 55.8496 26.6746 56.0201 27.5212C56.1905 28.3679 56.6082 29.1449 57.2203 29.7542C57.8324 30.3634 58.6114 30.7774 59.4588 30.9439C60.3062 31.1104 61.184 31.0219 61.9811 30.6895C62.7782 30.3572 63.4588 29.7959 63.9369 29.0767C64.415 28.3575 64.6691 27.5127 64.6671 26.6491C64.6755 26.073 64.5678 25.5011 64.3506 24.9674C64.1333 24.4338 63.8109 23.9493 63.4025 23.5428C62.9942 23.1364 62.5082 22.8162 61.9735 22.6015C61.4389 22.3867 60.8664 22.2818 60.2904 22.2928ZM60.2904 29.2936C59.761 29.3306 59.2328 29.2075 58.7744 28.9404C58.3159 28.6732 57.9484 28.2743 57.7197 27.7955C57.491 27.3167 57.4116 26.7802 57.4918 26.2556C57.572 25.7311 57.8082 25.2429 58.1696 24.8544C58.531 24.4658 59.001 24.195 59.5183 24.0771C60.0357 23.9592 60.5765 23.9997 61.0706 24.1933C61.5646 24.3868 61.9891 24.7246 62.2886 25.1625C62.5882 25.6005 62.7491 26.1185 62.7504 26.6491C62.7669 26.9853 62.7159 27.3214 62.6005 27.6376C62.485 27.9538 62.3074 28.2437 62.0781 28.4902C61.8489 28.7366 61.5725 28.9347 61.2655 29.0727C60.9585 29.2107 60.6269 29.2858 60.2904 29.2936ZM48.9334 23.6356V25.4806H53.3614C53.292 26.3496 52.9307 27.1696 52.3364 27.8073C51.8922 28.2599 51.358 28.6142 50.7682 28.8472C50.1785 29.0803 49.5464 29.187 48.9129 29.1603C47.608 29.1603 46.3566 28.642 45.4339 27.7193C44.5112 26.7966 43.9929 25.5452 43.9929 24.2403C43.9929 22.9355 44.5112 21.6841 45.4339 20.7614C46.3566 19.8387 47.608 19.3203 48.9129 19.3203C50.1638 19.3017 51.3717 19.7768 52.2749 20.6426L53.5766 19.3408C52.9657 18.7366 52.2404 18.2604 51.443 17.94C50.6457 17.6197 49.7925 17.4617 48.9334 17.4753C48.0222 17.4399 47.1131 17.5887 46.2608 17.913C45.4085 18.2372 44.6304 18.7302 43.9732 19.3624C43.3159 19.9945 42.7931 20.7529 42.4359 21.5919C42.0787 22.431 41.8947 23.3335 41.8947 24.2455C41.8947 25.1574 42.0787 26.0599 42.4359 26.899C42.7931 27.7381 43.3159 28.4964 43.9732 29.1286C44.6304 29.7607 45.4085 30.2537 46.2608 30.5779C47.1131 30.9022 48.0222 31.0511 48.9334 31.0156C49.8102 31.0506 50.6845 30.8998 51.4989 30.573C52.3132 30.2461 53.0493 29.7508 53.6586 29.1193C54.735 27.9369 55.3085 26.3818 55.2576 24.7836C55.2613 24.3989 55.2304 24.0147 55.1654 23.6356H48.9334ZM95.3761 25.0706C95.1088 24.2841 94.6089 23.5974 93.9427 23.1014C93.2764 22.6054 92.4752 22.3234 91.6451 22.2928C91.0844 22.2917 90.5295 22.4057 90.0146 22.6275C89.4997 22.8494 89.0358 23.1746 88.6515 23.5828C88.2672 23.9911 87.9708 24.4739 87.7805 25.0013C87.5902 25.5287 87.5101 26.0895 87.5451 26.6491C87.5364 27.5848 87.8305 28.4982 88.3837 29.2529C88.9369 30.0076 89.7193 30.563 90.6142 30.8364C91.5091 31.1097 92.4685 31.0861 93.3489 30.7693C94.2293 30.4524 94.9836 29.8592 95.4991 29.0783L94.0129 28.0533C93.7913 28.4226 93.4771 28.7276 93.1013 28.9379C92.7255 29.1483 92.3013 29.2568 91.8706 29.2526C91.4264 29.2709 90.9869 29.1545 90.6101 28.9185C90.2332 28.6825 89.9366 28.338 89.7591 27.9303L95.5914 25.5216L95.3761 25.0706ZM89.4311 26.5261C89.4104 26.2077 89.4533 25.8884 89.5575 25.5868C89.6617 25.2852 89.825 25.0075 90.0378 24.7698C90.2507 24.5321 90.5088 24.3393 90.7971 24.2026C91.0854 24.0659 91.3981 23.9882 91.7169 23.9738C92.0471 23.9537 92.376 24.0314 92.6623 24.1974C92.9485 24.3633 93.1795 24.61 93.3261 24.9066L89.4311 26.5261ZM84.6956 30.7491H86.6124V17.9366H84.6956V30.7491ZM81.5591 23.2666H81.4874C81.201 22.9405 80.8477 22.6801 80.4514 22.5032C80.0551 22.3263 79.6253 22.237 79.1914 22.2416C78.0712 22.2959 77.0149 22.7791 76.2414 23.5911C75.4679 24.4031 75.0364 25.4815 75.0364 26.603C75.0364 27.7244 75.4679 28.8029 76.2414 29.6148C77.0149 30.4268 78.0712 30.91 79.1914 30.9643C79.6259 30.9731 80.0571 30.8857 80.454 30.7085C80.8509 30.5313 81.2037 30.2687 81.4874 29.9393H81.5591V30.5646C81.5591 32.2353 80.6674 33.1271 79.2324 33.1271C78.753 33.1166 78.2876 32.9638 77.8952 32.6882C77.5028 32.4127 77.2012 32.0267 77.0286 31.5793L75.3681 32.2661C75.6751 33.0371 76.2089 33.6969 76.8989 34.1581C77.5888 34.6193 78.4025 34.8602 79.2324 34.8491C81.4771 34.8491 83.3324 33.5268 83.3324 30.3083V22.5491H81.5591V23.2666ZM79.3554 29.2936C78.6838 29.2517 78.0534 28.9554 77.5927 28.465C77.1319 27.9747 76.8754 27.3271 76.8754 26.6542C76.8754 25.9813 77.1319 25.3338 77.5927 24.8434C78.0534 24.353 78.6838 24.0567 79.3554 24.0148C79.6836 24.029 80.0057 24.1091 80.3023 24.2502C80.599 24.3914 80.8643 24.5908 81.0823 24.8366C81.3003 25.0823 81.4667 25.3695 81.5715 25.6808C81.6763 25.9922 81.7174 26.3215 81.6924 26.6491C81.7203 26.9778 81.6813 27.3088 81.5777 27.622C81.4741 27.9352 81.3081 28.2241 81.0896 28.4713C80.8712 28.7185 80.6049 28.9188 80.3068 29.0602C80.0087 29.2015 79.685 29.2809 79.3554 29.2936ZM104.355 17.9366H99.7631V30.7491H101.68V25.8906H104.355C104.901 25.9298 105.45 25.8561 105.966 25.674C106.483 25.492 106.956 25.2054 107.357 24.8323C107.758 24.4591 108.078 24.0074 108.297 23.5052C108.515 23.0031 108.628 22.4613 108.628 21.9136C108.628 21.3659 108.515 20.8241 108.297 20.3219C108.078 19.8198 107.758 19.368 107.357 18.9949C106.956 18.6218 106.483 18.3352 105.966 18.1531C105.45 17.9711 104.901 17.8973 104.355 17.9366ZM104.355 24.0866H101.68V19.7201H104.396C104.684 19.7201 104.969 19.7768 105.236 19.8871C105.502 19.9973 105.743 20.1589 105.947 20.3626C106.151 20.5662 106.312 20.808 106.423 21.0742C106.533 21.3403 106.59 21.6255 106.59 21.9136C106.59 22.2016 106.533 22.4869 106.423 22.753C106.312 23.0191 106.151 23.2609 105.947 23.4646C105.743 23.6683 105.502 23.8299 105.236 23.9401C104.969 24.0504 104.684 24.1071 104.396 24.1071L104.355 24.0866ZM116.184 22.2518C115.486 22.2088 114.79 22.3713 114.184 22.7193C113.577 23.0672 113.086 23.5853 112.77 24.2096L114.462 24.9168C114.633 24.6087 114.889 24.3567 115.2 24.1912C115.511 24.0256 115.863 23.9537 116.214 23.9841C116.458 23.9557 116.704 23.976 116.94 24.0439C117.175 24.1118 117.395 24.2258 117.585 24.3794C117.776 24.5331 117.934 24.7231 118.051 24.9386C118.168 25.154 118.24 25.3906 118.264 25.6343V25.7573C117.648 25.4334 116.962 25.2645 116.266 25.2653C114.441 25.2653 112.576 26.2903 112.576 28.1558C112.594 28.5524 112.691 28.9412 112.862 29.2993C113.034 29.6574 113.275 29.9774 113.573 30.2403C113.87 30.5032 114.217 30.7037 114.593 30.8299C114.97 30.956 115.368 31.0052 115.763 30.9746C116.244 31.0012 116.724 30.8994 117.152 30.6797C117.581 30.4599 117.944 30.1301 118.203 29.7241H118.264V30.7491H120.109V25.8188C120.109 23.5741 118.408 22.2723 116.225 22.2723L116.184 22.2518ZM115.948 29.2731C115.323 29.2731 114.451 28.9553 114.451 28.1866C114.451 27.1616 115.538 26.8131 116.501 26.8131C117.11 26.7981 117.712 26.9467 118.244 27.2436C118.18 27.8002 117.916 28.3147 117.501 28.6916C117.086 29.0686 116.549 29.2824 115.989 29.2936L115.948 29.2731ZM126.833 22.5491L124.64 28.1046H124.578L122.303 22.5491H120.253L123.666 30.3186L121.719 34.6338H123.717L128.965 22.5491H126.833ZM109.613 30.7491H111.52V17.9366H109.613V30.7491Z" fill="black"/>
<path d="M10.7015 7.72947C10.3637 8.12883 10.1914 8.64219 10.2197 9.16447V31.8375C10.1849 32.3606 10.358 32.8763 10.7015 33.2725L10.7732 33.3545L23.473 20.6547V20.3472L10.7732 7.65771L10.7015 7.72947Z" fill="url(#paint0_linear_657_7233)"/>
<path d="M27.6748 24.8868L23.4723 20.6535V20.346L27.6748 16.1128L27.767 16.1743L32.7998 19.0238C34.2348 19.8335 34.2348 21.166 32.7998 21.986L27.7875 24.8355L27.6748 24.8868Z" fill="url(#paint1_linear_657_7233)"/>
<path d="M27.7983 24.8265L23.4728 20.501L10.7013 33.2725C10.9909 33.5303 11.3617 33.6786 11.7492 33.6917C12.1367 33.7048 12.5166 33.5819 12.823 33.3442L27.7983 24.8265Z" fill="url(#paint2_linear_657_7233)"/>
<path d="M27.7983 16.1739L12.823 7.66639C12.5186 7.42543 12.139 7.2995 11.751 7.31075C11.3629 7.322 10.9912 7.46971 10.7013 7.7279L23.4728 20.4994L27.7983 16.1739Z" fill="url(#paint3_linear_657_7233)"/>
<path opacity="0.2" d="M27.6753 24.7324L12.823 33.1887C12.5278 33.4115 12.168 33.5321 11.798 33.5321C11.4281 33.5321 11.0683 33.4115 10.773 33.1887L10.7013 33.2604L10.773 33.3424C11.0683 33.5653 11.4281 33.6858 11.798 33.6858C12.168 33.6858 12.5278 33.5653 12.823 33.3424L27.7983 24.8247L27.6753 24.7324Z" fill="black"/>
<path opacity="0.12" d="M10.7014 33.1284C10.3722 32.7218 10.2108 32.2048 10.2504 31.6831V31.8369C10.2155 32.36 10.3887 32.8757 10.7321 33.2719L10.8039 33.2001L10.7014 33.1284Z" fill="black"/>
<path opacity="0.12" d="M32.7997 21.8335L27.6747 24.7342L27.7669 24.8265L32.7997 21.977C33.0968 21.8514 33.3545 21.648 33.5457 21.3882C33.7369 21.1285 33.8545 20.822 33.8862 20.501C33.8221 20.7927 33.6904 21.0652 33.5017 21.2967C33.3129 21.5281 33.0725 21.712 32.7997 21.8335Z" fill="black"/>
<path opacity="0.25" d="M12.8229 7.8107L32.8001 19.1677C33.0729 19.2892 33.3134 19.4731 33.5021 19.7045C33.6908 19.936 33.8225 20.2085 33.8866 20.5002C33.8549 20.1792 33.7373 19.8727 33.5461 19.613C33.3549 19.3532 33.0972 19.1498 32.8001 19.0242L12.8229 7.6672C11.3981 6.8472 10.2194 7.5237 10.2194 9.1637V9.31745C10.2501 7.67745 11.3981 7.00095 12.8229 7.8107Z" fill="white"/>
</g>
<defs>
<linearGradient id="paint0_linear_657_7233" x1="22.3455" y1="8.92871" x2="5.14599" y2="26.1282" gradientUnits="userSpaceOnUse">
<stop stop-color="#00A0FF"/>
<stop offset="0.01" stop-color="#00A1FF"/>
<stop offset="0.26" stop-color="#00BEFF"/>
<stop offset="0.51" stop-color="#00D2FF"/>
<stop offset="0.76" stop-color="#00DFFF"/>
<stop offset="1" stop-color="#00E3FF"/>
</linearGradient>
<linearGradient id="paint1_linear_657_7233" x1="34.6755" y1="20.4998" x2="9.88079" y2="20.4998" gradientUnits="userSpaceOnUse">
<stop stop-color="#FFE000"/>
<stop offset="0.41" stop-color="#FFBD00"/>
<stop offset="0.78" stop-color="#FFA500"/>
<stop offset="1" stop-color="#FF9C00"/>
</linearGradient>
<linearGradient id="paint2_linear_657_7233" x1="25.451" y1="22.8585" x2="2.12204" y2="46.1772" gradientUnits="userSpaceOnUse">
<stop stop-color="#FF3A44"/>
<stop offset="1" stop-color="#C31162"/>
</linearGradient>
<linearGradient id="paint3_linear_657_7233" x1="7.48279" y1="0.183895" x2="17.8968" y2="10.5979" gradientUnits="userSpaceOnUse">
<stop stop-color="#32A071"/>
<stop offset="0.07" stop-color="#2DA771"/>
<stop offset="0.48" stop-color="#15CF74"/>
<stop offset="0.8" stop-color="#06E775"/>
<stop offset="1" stop-color="#00F076"/>
</linearGradient>
<clipPath id="clip0_657_7233">
<rect width="138.375" height="41" rx="5" fill="white"/>
</clipPath>
</defs>
</svg>
