<svg width="25" height="24" viewBox="0 0 25 24" fill="none" xmlns="http://www.w3.org/2000/svg">
<path d="M0.762207 19.9494C0.788998 20.7035 1.06108 21.4286 1.5376 22.0158C2.01412 22.6031 2.66936 23.0208 3.40494 23.2061C4.39161 23.4484 9.47853 24 12.4877 24C15.4968 24 20.5858 23.4484 21.5724 23.2061C22.308 23.0208 22.9633 22.6031 23.4398 22.0158C23.9163 21.4286 24.1884 20.7035 24.2151 19.9494V4.04851C24.1881 3.29453 23.9158 2.56959 23.4394 1.98243C22.9629 1.39526 22.3078 0.977508 21.5724 0.791793C20.5858 0.549574 15.4989 0 12.4877 0C9.47647 0 4.39161 0.549574 3.40494 0.791793C2.66952 0.977508 2.01446 1.39526 1.538 1.98243C1.06153 2.56959 0.789327 3.29453 0.762207 4.04851V19.9494Z" fill="#96154A"/>
<path d="M14.2931 11.5899C12.2788 11.2337 10.9359 12.3063 10.9359 14.0467V18.028L7.76917 20.0451V14.0467C7.76917 10.566 10.1929 8.14387 14.2931 8.6344V11.5899Z" fill="white"/>
<path d="M13.2247 5.57504C13.2247 5.93253 13.1181 6.28199 12.9183 6.57924C12.7186 6.87648 12.4347 7.10817 12.1025 7.24495C11.7703 7.38176 11.4049 7.41753 11.0523 7.34781C10.6996 7.27805 10.3757 7.10591 10.1215 6.85315C9.86732 6.60034 9.69419 6.27831 9.62403 5.92767C9.55392 5.57707 9.58988 5.21367 9.72749 4.88336C9.86506 4.5531 10.0981 4.27081 10.397 4.07221C10.6959 3.87359 11.0473 3.76758 11.4069 3.76758C11.889 3.76758 12.3513 3.95802 12.6922 4.29698C13.0332 4.63595 13.2247 5.09569 13.2247 5.57504Z" fill="white"/>
<path d="M15.0505 11.3498C15.0553 11.4599 15.0954 11.5656 15.1651 11.6513C15.2347 11.7371 15.3302 11.7983 15.4374 11.8261C15.8763 11.8955 16.3196 11.9343 16.7639 11.9421C17.2089 11.9344 17.6529 11.8956 18.0924 11.8261C18.1997 11.7983 18.2951 11.7371 18.3648 11.6513C18.4344 11.5656 18.4746 11.4599 18.4793 11.3498V9.02533C18.4748 8.91538 18.4347 8.80988 18.365 8.7244C18.2953 8.63896 18.1997 8.57819 18.0924 8.55109C17.6529 8.48161 17.2089 8.44284 16.7639 8.43506C16.3196 8.44292 15.8763 8.48169 15.4374 8.55109C15.3302 8.57819 15.2346 8.63896 15.1649 8.7244C15.0951 8.80988 15.0551 8.91538 15.0505 9.02533V11.3498Z" fill="#F6ABB6"/>
</svg>
