<svg width="25" height="24" viewBox="0 0 25 24" fill="none" xmlns="http://www.w3.org/2000/svg">
<path d="M12.3499 2C6.8213 2 2.354 6.47552 2.354 11.9959C2.354 16.2328 4.98666 19.8527 8.7053 21.3089C8.6148 20.5191 8.54076 19.3015 8.7382 18.4377C8.9192 17.6561 9.90644 13.4685 9.90644 13.4685C9.90644 13.4685 9.61028 12.868 9.61028 11.9877C9.61028 10.5973 10.4165 9.56068 11.4202 9.56068C12.2758 9.56068 12.6872 10.2024 12.6872 10.9675C12.6872 11.8231 12.1442 13.1065 11.8563 14.2995C11.6177 15.2949 12.3581 16.1094 13.3371 16.1094C15.1142 16.1094 16.4799 14.2336 16.4799 11.5352C16.4799 9.1411 14.7604 7.471 12.3005 7.471C9.45396 7.471 7.78386 9.6018 7.78386 11.8067C7.78386 12.6623 8.11294 13.5837 8.5243 14.0856C8.60658 14.1843 8.6148 14.2748 8.59012 14.3735C8.51608 14.6861 8.3433 15.369 8.3104 15.5088C8.26926 15.6898 8.1623 15.731 7.97308 15.6405C6.73902 15.0481 5.96568 13.2217 5.96568 11.7573C5.96568 8.60634 8.2528 5.7104 12.572 5.7104C16.0356 5.7104 18.7341 8.17852 18.7341 11.4858C18.7341 14.9329 16.5621 17.7055 13.551 17.7055C12.5391 17.7055 11.5848 17.1789 11.2639 16.5537C11.2639 16.5537 10.7621 18.4624 10.6387 18.9313C10.4165 19.8034 9.80772 20.8893 9.39636 21.5557C10.3343 21.8437 11.3215 22 12.3581 22C17.8785 22 22.354 17.5245 22.354 12.0041C22.3458 6.47552 17.8702 2 12.3499 2Z" fill="#040404"/>
</svg>
