<svg width="102" height="25" viewBox="0 0 102 25" fill="none" xmlns="http://www.w3.org/2000/svg">
<path d="M26.6854 8.85938H36.9564V10.7772H32.9125V21.5885H30.6957V10.7772H26.6685L26.6854 8.85938ZM36.5167 12.3726H38.412V14.1547H38.4457C38.5136 13.9001 38.6322 13.6625 38.801 13.4249C38.9704 13.1872 39.1735 12.9666 39.4273 12.7799C39.664 12.5762 39.9349 12.4235 40.2395 12.3047C40.527 12.1859 40.8316 12.118 41.1361 12.118C41.3734 12.118 41.5422 12.135 41.6272 12.135C41.7116 12.1519 41.8132 12.1689 41.8976 12.1689V14.1207C41.7624 14.0868 41.6101 14.0698 41.4578 14.0528C41.3055 14.0359 41.1704 14.0189 41.0181 14.0189C40.6793 14.0189 40.3581 14.0868 40.0536 14.2225C39.749 14.3583 39.4946 14.562 39.2579 14.8166C39.0377 15.0881 38.8518 15.4106 38.7166 15.801C38.5809 16.1913 38.5136 16.6496 38.5136 17.1587V21.5376H36.4829L36.5167 12.3726ZM51.2215 21.5885H49.208V20.2985H49.1738C48.92 20.7738 48.5481 21.1302 48.057 21.4187C47.5665 21.7072 47.0589 21.843 46.5513 21.843C45.3495 21.843 44.47 21.5545 43.9281 20.9435C43.3868 20.3495 43.1159 19.433 43.1159 18.2279V12.3726H45.1464V18.0243C45.1464 18.839 45.2987 19.416 45.6204 19.7385C45.925 20.0779 46.3653 20.2476 46.9231 20.2476C47.3464 20.2476 47.7017 20.1798 47.9897 20.044C48.2772 19.9082 48.5139 19.7385 48.6833 19.5178C48.8692 19.2972 48.9879 19.0257 49.0723 18.7202C49.1573 18.4147 49.1909 18.0752 49.1909 17.7188V12.3726H51.2215V21.5885ZM54.6568 18.6353C54.7241 19.2293 54.9443 19.6366 55.3333 19.8912C55.7223 20.1289 56.1963 20.2476 56.7381 20.2476C56.9241 20.2476 57.1442 20.2307 57.3809 20.1967C57.6176 20.1628 57.8549 20.1119 58.058 20.027C58.2775 19.9421 58.447 19.8234 58.5821 19.6536C58.7179 19.4839 58.7852 19.2802 58.7686 19.0257C58.7515 18.7711 58.6671 18.5504 58.4806 18.3807C58.2947 18.211 58.0745 18.0922 57.8041 17.9734C57.5332 17.8715 57.2115 17.7867 56.8562 17.7188C56.5008 17.6509 56.1455 17.5661 55.7736 17.4812C55.4012 17.3963 55.0287 17.2945 54.6734 17.1757C54.318 17.0569 54.0134 16.9042 53.726 16.6835C53.455 16.4798 53.2183 16.2253 53.066 15.9028C52.8966 15.5803 52.8122 15.2069 52.8122 14.7317C52.8122 14.2225 52.9303 13.8152 53.1841 13.4758C53.4214 13.1363 53.7425 12.8647 54.115 12.6611C54.4874 12.4574 54.9101 12.3047 55.3669 12.2198C55.8238 12.135 56.2641 12.101 56.6702 12.101C57.1442 12.101 57.6011 12.1519 58.0237 12.2538C58.4469 12.3556 58.8531 12.5083 59.1913 12.746C59.5466 12.9666 59.8347 13.2721 60.0543 13.6285C60.2915 13.9849 60.4267 14.4262 60.4946 14.9354H58.3791C58.2775 14.4432 58.058 14.1207 57.7192 13.951C57.3638 13.7813 56.9748 13.6964 56.5179 13.6964C56.3828 13.6964 56.1963 13.7134 56.0103 13.7304C55.8073 13.7643 55.6379 13.7983 55.4519 13.8661C55.2825 13.934 55.1302 14.0359 55.0116 14.1547C54.8935 14.2734 54.8256 14.4432 54.8256 14.6468C54.8256 14.9014 54.9101 15.0881 55.0795 15.2409C55.2489 15.3936 55.469 15.5124 55.7565 15.6312C56.0274 15.733 56.3485 15.8179 56.7039 15.8858C57.0592 15.9537 57.4317 16.0385 57.8041 16.1234C58.176 16.2083 58.5314 16.3101 58.8867 16.4289C59.242 16.5477 59.5637 16.7005 59.8347 16.9211C60.105 17.1248 60.3423 17.3794 60.5111 17.6849C60.6805 17.9904 60.7649 18.3807 60.7649 18.822C60.7649 19.3651 60.6469 19.8234 60.3931 20.2137C60.1392 20.5871 59.8176 20.9096 59.4286 21.1472C59.039 21.3848 58.5821 21.5545 58.1087 21.6733C57.6176 21.7751 57.1442 21.843 56.6702 21.843C56.0947 21.843 55.5534 21.7751 55.0629 21.6394C54.5718 21.5036 54.1321 21.2999 53.7767 21.0453C53.4214 20.7738 53.1334 20.4513 52.9303 20.044C52.7272 19.6536 52.6092 19.1784 52.5921 18.6183H54.6397V18.6353H54.6568ZM61.3405 12.3726H62.8805V9.58918H64.911V12.3556H66.7385V13.8661H64.911V18.7881C64.911 19.0087 64.9281 19.1784 64.9446 19.3481C64.9617 19.5009 65.0125 19.6366 65.0633 19.7385C65.1311 19.8403 65.2327 19.9252 65.3507 19.9761C65.4865 20.027 65.6553 20.061 65.8926 20.061C66.0278 20.061 66.1801 20.061 66.3152 20.044C66.451 20.027 66.6033 20.01 66.7385 19.9761V21.5545C66.5183 21.5885 66.2987 21.6054 66.0785 21.6224C65.8584 21.6563 65.6553 21.6563 65.4186 21.6563C64.8773 21.6563 64.4541 21.6054 64.1324 21.5036C63.8113 21.4017 63.5575 21.249 63.371 21.0623C63.185 20.8587 63.0664 20.621 62.9991 20.3325C62.9312 20.044 62.897 19.6876 62.8805 19.3142V13.8831H61.3405V12.3387V12.3726ZM68.1598 12.3726H70.0717V13.6285H70.1059C70.3934 13.0854 70.783 12.712 71.2906 12.4744C71.7982 12.2368 72.3395 12.118 72.9487 12.118C73.6765 12.118 74.3022 12.2368 74.844 12.5083C75.3853 12.7629 75.8251 13.1024 76.1804 13.5606C76.5357 14.0019 76.8067 14.528 76.9761 15.1221C77.1449 15.7161 77.2464 16.361 77.2464 17.0229C77.2464 17.6509 77.162 18.2449 77.0097 18.822C76.8403 19.3991 76.6036 19.9252 76.2819 20.3664C75.9608 20.8077 75.5547 21.1642 75.0471 21.4357C74.5394 21.7072 73.9639 21.843 73.2869 21.843C72.9994 21.843 72.6949 21.8091 72.4068 21.7581C72.1193 21.7072 71.8319 21.6224 71.561 21.5036C71.2906 21.3848 71.0362 21.232 70.8166 21.0453C70.5793 20.8587 70.3934 20.638 70.2411 20.4004H70.2075V24.9998H68.1769V12.3726H68.1598ZM75.2501 16.989C75.2501 16.5817 75.1994 16.1743 75.0807 15.784C74.9792 15.3936 74.8098 15.0542 74.5902 14.7487C74.37 14.4432 74.0991 14.2056 73.7945 14.0189C73.4734 13.8322 73.101 13.7473 72.6949 13.7473C71.8484 13.7473 71.2056 14.0359 70.7659 14.6299C70.3426 15.2239 70.1225 16.0216 70.1225 17.006C70.1225 17.4812 70.1732 17.9055 70.2919 18.2959C70.4105 18.6862 70.5628 19.0257 70.7995 19.3142C71.0197 19.6027 71.2906 19.8234 71.6117 19.993C71.9334 20.1628 72.2888 20.2476 72.712 20.2476C73.1854 20.2476 73.5578 20.1458 73.8795 19.9591C74.2006 19.7725 74.4545 19.5178 74.6746 19.2293C74.8777 18.9238 75.03 18.5844 75.1144 18.194C75.1994 17.7867 75.2501 17.3963 75.2501 16.989ZM78.8201 8.85938H80.8512V10.7772H78.8201V8.85938ZM78.8201 12.3726H80.8512V21.5885H78.8201V12.3726ZM82.6616 8.85938H84.6921V21.5885H82.6616V8.85938ZM90.8852 21.843C90.158 21.843 89.498 21.7242 88.9225 21.4696C88.347 21.2151 87.8736 20.8926 87.4675 20.4683C87.0779 20.044 86.7734 19.5178 86.5703 18.9238C86.3673 18.3298 86.2486 17.6679 86.2486 16.972C86.2486 16.2762 86.3502 15.6312 86.5703 15.0372C86.7734 14.4432 87.0779 13.934 87.4675 13.4927C87.8565 13.0685 88.347 12.729 88.9225 12.4914C89.498 12.2538 90.158 12.118 90.8852 12.118C91.613 12.118 92.2729 12.2368 92.8484 12.4914C93.4233 12.729 93.8973 13.0685 94.3034 13.4927C94.6924 13.917 94.997 14.4432 95.2001 15.0372C95.4031 15.6312 95.5217 16.2762 95.5217 16.972C95.5217 17.6849 95.4202 18.3298 95.2001 18.9238C94.9805 19.5178 94.6924 20.027 94.3034 20.4683C93.9144 20.8926 93.4233 21.232 92.8484 21.4696C92.2729 21.7072 91.6301 21.843 90.8852 21.843ZM90.8852 20.2307C91.3255 20.2307 91.7316 20.1289 92.0527 19.9421C92.3915 19.7555 92.6454 19.5009 92.8649 19.1954C93.0851 18.8899 93.2374 18.5334 93.3389 18.1601C93.4405 17.7697 93.4912 17.3794 93.4912 16.972C93.4912 16.5817 93.4405 16.1913 93.3389 15.801C93.2374 15.4106 93.0851 15.0711 92.8649 14.7657C92.6454 14.4602 92.3744 14.2225 92.0527 14.0359C91.7145 13.8492 91.3255 13.7473 90.8852 13.7473C90.4454 13.7473 90.0393 13.8492 89.7176 14.0359C89.3794 14.2225 89.1256 14.4771 88.9054 14.7657C88.6858 15.0711 88.533 15.4106 88.4314 15.801C88.3305 16.1913 88.2797 16.5817 88.2797 16.972C88.2797 17.3794 88.3305 17.7697 88.4314 18.1601C88.533 18.5504 88.6858 18.8899 88.9054 19.1954C89.1256 19.5009 89.3965 19.7555 89.7176 19.9421C90.0564 20.1458 90.4454 20.2307 90.8852 20.2307ZM96.1309 12.3726H97.6709V9.58918H99.7014V12.3556H101.529V13.8661H99.7014V18.7881C99.7014 19.0087 99.7186 19.1784 99.7351 19.3481C99.7522 19.5009 99.803 19.6366 99.8537 19.7385C99.9216 19.8403 100.023 19.9252 100.141 19.9761C100.277 20.027 100.446 20.061 100.683 20.061C100.818 20.061 100.971 20.061 101.106 20.044C101.241 20.027 101.394 20.01 101.529 19.9761V21.5545C101.309 21.5885 101.089 21.6054 100.869 21.6224C100.649 21.6563 100.446 21.6563 100.209 21.6563C99.6678 21.6563 99.2446 21.6054 98.9229 21.5036C98.6018 21.4017 98.3479 21.249 98.1614 21.0623C97.9755 20.8587 97.8568 20.621 97.7895 20.3325C97.7217 20.044 97.688 19.6876 97.6709 19.3142V13.8831H96.1309V12.3387V12.3726Z" fill="black"/>
<path d="M24.3161 8.85949H15.0262L12.1665 0L9.28983 8.85949L0 8.8425L7.51312 14.3245L4.63644 23.184L12.1496 17.7019L19.6627 23.184L16.8029 14.3245L24.3161 8.85949Z" fill="#00B67A"/>
<path d="M17.446 16.3275L16.8029 14.3247L12.1665 17.7022L17.446 16.3275Z" fill="#005128"/>
</svg>
