<svg width="25" height="24" viewBox="0 0 25 24" fill="none" xmlns="http://www.w3.org/2000/svg">
<path d="M20.9036 7.92023C20.9158 8.09654 20.9158 8.27286 20.9158 8.4508C20.9158 13.8727 16.7883 20.1258 9.24083 20.1258V20.1225C7.0113 20.1258 4.82808 19.4872 2.95117 18.283C3.27536 18.322 3.60118 18.3415 3.92781 18.3423C5.77547 18.3439 7.57031 17.724 9.02389 16.5824C7.26805 16.5491 5.72834 15.4043 5.19046 13.7329C5.80553 13.8516 6.43929 13.8272 7.04299 13.6623C5.12871 13.2755 3.7515 11.5936 3.7515 9.64031C3.7515 9.62244 3.7515 9.60538 3.7515 9.58831C4.32188 9.90601 4.96052 10.0823 5.61378 10.1018C3.81081 8.89687 3.25505 6.49833 4.34382 4.62305C6.4271 7.18653 9.50084 8.74493 12.8005 8.90987C12.4698 7.48472 12.9215 5.99132 13.9875 4.98949C15.6402 3.43597 18.2394 3.51559 19.7929 5.16743C20.7119 4.98624 21.5927 4.64905 22.3987 4.17129C22.0923 5.12112 21.4513 5.92794 20.5949 6.44064C21.4082 6.34476 22.2028 6.12701 22.9512 5.79469C22.4003 6.62021 21.7064 7.33928 20.9036 7.92023Z" fill="#040404"/>
</svg>
