<svg width="76" height="65" viewBox="0 0 76 65" fill="none" xmlns="http://www.w3.org/2000/svg">
<g filter="url(#filter0_d_885_13862)">
<path fill-rule="evenodd" clip-rule="evenodd" d="M54.88 32.5C54.88 33.265 54.8125 33.985 54.7225 34.705L59.47 38.4175C59.8975 38.755 60.01 39.3625 59.74 39.8575L55.24 47.6425C54.97 48.1375 54.385 48.34 53.8675 48.1375L48.265 45.8875C47.095 46.765 45.835 47.53 44.4625 48.0925L43.6075 54.055C43.54 54.595 43.0675 55 42.505 55H33.505C32.9425 55 32.47 54.595 32.4025 54.055L31.5475 48.0925C30.175 47.53 28.915 46.7875 27.745 45.8875L22.1425 48.1375C21.6475 48.3175 21.04 48.1375 20.77 47.6425L16.27 39.8575C16 39.3625 16.1125 38.755 16.54 38.4175L21.2875 34.705C21.1975 33.985 21.13 33.2425 21.13 32.5C21.13 31.7575 21.1975 31.015 21.2875 30.295L16.54 26.5825C16.1125 26.245 15.9775 25.6375 16.27 25.1425L20.77 17.3575C21.04 16.8625 21.625 16.66 22.1425 16.8625L27.745 19.1125C28.915 18.235 30.175 17.47 31.5475 16.9075L32.4025 10.945C32.47 10.405 32.9425 10 33.505 10H42.505C43.0675 10 43.54 10.405 43.6075 10.945L44.4625 16.9075C45.835 17.47 47.095 18.2125 48.265 19.1125L53.8675 16.8625C54.3625 16.6825 54.97 16.8625 55.24 17.3575L59.74 25.1425C60.01 25.6375 59.8975 26.245 59.47 26.5825L54.7225 30.295C54.8125 31.015 54.88 31.735 54.88 32.5ZM30.1326 32.5C30.1326 36.8425 33.6651 40.375 38.0076 40.375C42.3501 40.375 45.8826 36.8425 45.8826 32.5C45.8826 28.1575 42.3501 24.625 38.0076 24.625C33.6651 24.625 30.1326 28.1575 30.1326 32.5Z" fill="#FFE5D7"/>
</g>
<defs>
<filter id="filter0_d_885_13862" x="15.114" y="10" width="51.7721" height="55" filterUnits="userSpaceOnUse" color-interpolation-filters="sRGB">
<feFlood flood-opacity="0" result="BackgroundImageFix"/>
<feColorMatrix in="SourceAlpha" type="matrix" values="0 0 0 0 0 0 0 0 0 0 0 0 0 0 0 0 0 0 127 0" result="hardAlpha"/>
<feOffset dx="3" dy="6"/>
<feGaussianBlur stdDeviation="2"/>
<feComposite in2="hardAlpha" operator="out"/>
<feColorMatrix type="matrix" values="0 0 0 0 1 0 0 0 0 0.898039 0 0 0 0 0.843137 0 0 0 0.4 0"/>
<feBlend mode="normal" in2="BackgroundImageFix" result="effect1_dropShadow_885_13862"/>
<feBlend mode="normal" in="SourceGraphic" in2="effect1_dropShadow_885_13862" result="shape"/>
</filter>
</defs>
</svg>
