<svg width="76" height="65" viewBox="0 0 76 65" fill="none" xmlns="http://www.w3.org/2000/svg">
<g filter="url(#filter0_d_885_13859)">
<path fill-rule="evenodd" clip-rule="evenodd" d="M60.5 10H15.5C12.3781 10 9.90312 12.5031 9.90312 15.625L9.875 49.375C9.875 52.4969 12.3781 55 15.5 55H60.5C63.6219 55 66.125 52.4969 66.125 49.375V15.625C66.125 12.5031 63.6219 10 60.5 10ZM57.6875 49.375H18.3125C16.7656 49.375 15.5 48.1094 15.5 46.5625V32.5H60.5V46.5625C60.5 48.1094 59.2344 49.375 57.6875 49.375ZM15.5 21.25H60.5V18.4375C60.5 16.8906 59.2344 15.625 57.6875 15.625H18.3125C16.7656 15.625 15.5 16.8906 15.5 18.4375V21.25Z" fill="#FFE5D7"/>
</g>
<defs>
<filter id="filter0_d_885_13859" x="8.875" y="10" width="64.25" height="55" filterUnits="userSpaceOnUse" color-interpolation-filters="sRGB">
<feFlood flood-opacity="0" result="BackgroundImageFix"/>
<feColorMatrix in="SourceAlpha" type="matrix" values="0 0 0 0 0 0 0 0 0 0 0 0 0 0 0 0 0 0 127 0" result="hardAlpha"/>
<feOffset dx="3" dy="6"/>
<feGaussianBlur stdDeviation="2"/>
<feComposite in2="hardAlpha" operator="out"/>
<feColorMatrix type="matrix" values="0 0 0 0 1 0 0 0 0 0.898039 0 0 0 0 0.843137 0 0 0 0.4 0"/>
<feBlend mode="normal" in2="BackgroundImageFix" result="effect1_dropShadow_885_13859"/>
<feBlend mode="normal" in="SourceGraphic" in2="effect1_dropShadow_885_13859" result="shape"/>
</filter>
</defs>
</svg>
