<svg width="77" height="65" viewBox="0 0 77 65" fill="none" xmlns="http://www.w3.org/2000/svg">
<g filter="url(#filter0_d_885_14068)">
<path fill-rule="evenodd" clip-rule="evenodd" d="M38.5 10C26.08 10 16 20.08 16 32.5C16 44.92 26.08 55 38.5 55C50.92 55 61 44.92 61 32.5C61 20.08 50.92 10 38.5 10ZM28.9375 34.75C28.9375 33.1975 30.1975 31.9375 31.75 31.9375C33.3025 31.9375 34.5625 33.1975 34.5625 34.75C34.5625 36.3025 33.3025 37.5625 31.75 37.5625C30.1975 37.5625 28.9375 36.3025 28.9375 34.75ZM42.4375 34.75C42.4375 33.1975 43.6975 31.9375 45.25 31.9375C46.8025 31.9375 48.0625 33.1975 48.0625 34.75C48.0625 36.3025 46.8025 37.5625 45.25 37.5625C43.6975 37.5625 42.4375 36.3025 42.4375 34.75ZM20.5 32.5C20.5 42.4225 28.5775 50.5 38.5 50.5C48.4225 50.5 56.5 42.4225 56.5 32.5C56.5 30.7225 56.23 29.0125 55.7575 27.415C54.1375 27.7975 52.45 28 50.695 28C43.1125 28 36.4075 24.2425 32.335 18.4825C30.13 23.86 25.9225 28.2025 20.6125 30.565C20.545 31.195 20.5 31.8475 20.5 32.5Z" fill="#FFE5D7"/>
</g>
<defs>
<filter id="filter0_d_885_14068" x="15" y="10" width="53" height="55" filterUnits="userSpaceOnUse" color-interpolation-filters="sRGB">
<feFlood flood-opacity="0" result="BackgroundImageFix"/>
<feColorMatrix in="SourceAlpha" type="matrix" values="0 0 0 0 0 0 0 0 0 0 0 0 0 0 0 0 0 0 127 0" result="hardAlpha"/>
<feOffset dx="3" dy="6"/>
<feGaussianBlur stdDeviation="2"/>
<feComposite in2="hardAlpha" operator="out"/>
<feColorMatrix type="matrix" values="0 0 0 0 1 0 0 0 0 0.898039 0 0 0 0 0.843137 0 0 0 0.4 0"/>
<feBlend mode="normal" in2="BackgroundImageFix" result="effect1_dropShadow_885_14068"/>
<feBlend mode="normal" in="SourceGraphic" in2="effect1_dropShadow_885_14068" result="shape"/>
</filter>
</defs>
</svg>
