<svg width="76" height="65" viewBox="0 0 76 65" fill="none" xmlns="http://www.w3.org/2000/svg">
<g filter="url(#filter0_d_885_14067)">
<path fill-rule="evenodd" clip-rule="evenodd" d="M21.8876 16.7719L36.3289 10.3559C37.381 9.88138 38.6189 9.88138 39.671 10.3559L54.1123 16.7719C55.5977 17.4321 56.5673 18.9175 56.5673 20.5473V30.2436C56.5673 41.6934 48.6452 52.4006 38 55C27.3547 52.4006 19.4326 41.6934 19.4326 30.2436V20.5473C19.4326 18.9175 20.4022 17.4321 21.8876 16.7719ZM27.0632 35.8139L32.4065 41.1571C33.2111 41.9617 34.5314 41.9617 35.3154 41.1571L48.9108 27.5617C49.7154 26.7571 49.7154 25.4574 48.9108 24.6528C48.1062 23.8483 46.8065 23.8483 46.0019 24.6528L33.8713 36.7835L29.9721 32.905C29.1675 32.1004 27.8678 32.1004 27.0632 32.905C26.6769 33.2904 26.4598 33.8137 26.4598 34.3594C26.4598 34.9051 26.6769 35.4284 27.0632 35.8139Z" fill="#FFE5D7"/>
</g>
<defs>
<filter id="filter0_d_885_14067" x="18.4326" y="10" width="45.1346" height="55" filterUnits="userSpaceOnUse" color-interpolation-filters="sRGB">
<feFlood flood-opacity="0" result="BackgroundImageFix"/>
<feColorMatrix in="SourceAlpha" type="matrix" values="0 0 0 0 0 0 0 0 0 0 0 0 0 0 0 0 0 0 127 0" result="hardAlpha"/>
<feOffset dx="3" dy="6"/>
<feGaussianBlur stdDeviation="2"/>
<feComposite in2="hardAlpha" operator="out"/>
<feColorMatrix type="matrix" values="0 0 0 0 1 0 0 0 0 0.898039 0 0 0 0 0.843137 0 0 0 0.4 0"/>
<feBlend mode="normal" in2="BackgroundImageFix" result="effect1_dropShadow_885_14067"/>
<feBlend mode="normal" in="SourceGraphic" in2="effect1_dropShadow_885_14067" result="shape"/>
</filter>
</defs>
</svg>
