<svg width="77" height="65" viewBox="0 0 77 65" fill="none" xmlns="http://www.w3.org/2000/svg">
<g filter="url(#filter0_d_885_14065)">
<path fill-rule="evenodd" clip-rule="evenodd" d="M38.5 10C27.9475 10 19.375 18.5725 19.375 29.125C19.375 39.6775 27.9475 48.25 38.5 48.25H39.625V55C50.56 49.735 57.625 39.25 57.625 29.125C57.625 18.5725 49.0525 10 38.5 10ZM36.25 42.625V38.125H40.75V42.625H36.25ZM41.5818 31.9825C41.6043 31.9375 41.6268 31.8925 41.6493 31.87C42.2616 30.972 43.1146 30.2241 43.9795 29.4658C45.9746 27.7166 48.0324 25.9124 47.3418 22.0825C46.6893 18.28 43.6518 15.1525 39.8493 14.59C35.2143 13.915 31.1193 16.7725 29.8818 20.8675C29.4993 22.1725 30.4893 23.5 31.8393 23.5H32.2893C33.2118 23.5 33.9543 22.8475 34.2693 22.0375C34.9893 20.035 37.1043 18.6625 39.4443 19.1575C41.6043 19.6075 43.1793 21.745 42.9768 23.95C42.8244 25.668 41.597 26.6182 40.2351 27.6726C39.3852 28.3305 38.483 29.0291 37.7568 29.98L37.7343 29.9575C37.6953 29.9965 37.6638 30.0506 37.6311 30.1066C37.6072 30.1475 37.5828 30.1895 37.5543 30.2275C37.5205 30.2838 37.4811 30.34 37.4418 30.3963C37.4024 30.4525 37.363 30.5088 37.3293 30.565C37.1268 30.88 36.9693 31.195 36.8343 31.555C36.823 31.6 36.8005 31.6338 36.778 31.6675C36.7555 31.7013 36.733 31.735 36.7218 31.78C36.6993 31.8025 36.6993 31.825 36.6993 31.8475C36.4293 32.6575 36.2493 33.625 36.2493 34.7725H40.7718C40.7718 34.21 40.8393 33.715 40.9968 33.2425C41.0417 33.0851 41.1092 32.9276 41.1767 32.7701L41.1768 32.77C41.1993 32.68 41.2218 32.59 41.2668 32.5225C41.3568 32.3425 41.4693 32.1625 41.5818 31.9825Z" fill="#FFE5D7"/>
</g>
<defs>
<filter id="filter0_d_885_14065" x="18.375" y="10" width="46.25" height="55" filterUnits="userSpaceOnUse" color-interpolation-filters="sRGB">
<feFlood flood-opacity="0" result="BackgroundImageFix"/>
<feColorMatrix in="SourceAlpha" type="matrix" values="0 0 0 0 0 0 0 0 0 0 0 0 0 0 0 0 0 0 127 0" result="hardAlpha"/>
<feOffset dx="3" dy="6"/>
<feGaussianBlur stdDeviation="2"/>
<feComposite in2="hardAlpha" operator="out"/>
<feColorMatrix type="matrix" values="0 0 0 0 1 0 0 0 0 0.898039 0 0 0 0 0.843137 0 0 0 0.4 0"/>
<feBlend mode="normal" in2="BackgroundImageFix" result="effect1_dropShadow_885_14065"/>
<feBlend mode="normal" in="SourceGraphic" in2="effect1_dropShadow_885_14065" result="shape"/>
</filter>
</defs>
</svg>
