<svg width="77" height="65" viewBox="0 0 77 65" fill="none" xmlns="http://www.w3.org/2000/svg">
<g filter="url(#filter0_d_885_14066)">
<path fill-rule="evenodd" clip-rule="evenodd" d="M41.1325 10C42.325 10 43.4725 10.4725 44.3275 11.3275L55.1725 22.195C56.0275 23.0275 56.5 24.175 56.5 25.3675V50.5C56.5 52.975 54.475 55 52 55H24.9775C22.5025 55 20.5 52.975 20.5 50.5V14.5C20.5 12.025 22.525 10 25 10H41.1325ZM31.75 46H45.25C46.4875 46 47.5 44.9875 47.5 43.75C47.5 42.5125 46.4875 41.5 45.25 41.5H31.75C30.5125 41.5 29.5 42.5125 29.5 43.75C29.5 44.9875 30.5125 46 31.75 46ZM45.25 37H31.75C30.5125 37 29.5 35.9875 29.5 34.75C29.5 33.5125 30.5125 32.5 31.75 32.5H45.25C46.4875 32.5 47.5 33.5125 47.5 34.75C47.5 35.9875 46.4875 37 45.25 37ZM40.748 13.375V23.5C40.748 24.7375 41.7605 25.75 42.998 25.75H53.123L40.748 13.375Z" fill="#FFE5D7"/>
</g>
<defs>
<filter id="filter0_d_885_14066" x="19.5" y="10" width="44" height="55" filterUnits="userSpaceOnUse" color-interpolation-filters="sRGB">
<feFlood flood-opacity="0" result="BackgroundImageFix"/>
<feColorMatrix in="SourceAlpha" type="matrix" values="0 0 0 0 0 0 0 0 0 0 0 0 0 0 0 0 0 0 127 0" result="hardAlpha"/>
<feOffset dx="3" dy="6"/>
<feGaussianBlur stdDeviation="2"/>
<feComposite in2="hardAlpha" operator="out"/>
<feColorMatrix type="matrix" values="0 0 0 0 1 0 0 0 0 0.898039 0 0 0 0 0.843137 0 0 0 0.4 0"/>
<feBlend mode="normal" in2="BackgroundImageFix" result="effect1_dropShadow_885_14066"/>
<feBlend mode="normal" in="SourceGraphic" in2="effect1_dropShadow_885_14066" result="shape"/>
</filter>
</defs>
</svg>
