<svg width="45" height="55" viewBox="0 0 45 55" fill="none" xmlns="http://www.w3.org/2000/svg">
<g filter="url(#filter0_d_1111_25853)">
<path fill-rule="evenodd" clip-rule="evenodd" d="M33.349 19.6149V31.1534L36.3259 34.1303C37.7798 35.5841 36.7413 38.0764 34.6875 38.0764H4.29517C2.24132 38.0764 1.22594 35.5841 2.67978 34.1303L5.65671 31.1534V19.6149C5.65671 12.5072 9.41825 6.59951 16.0413 5.03028V3.46105C16.0413 1.54567 17.5875 -0.000488281 19.5029 -0.000488281C21.4182 -0.000488281 22.9644 1.54567 22.9644 3.46105V5.03028C29.5644 6.59951 33.349 12.5303 33.349 19.6149ZM24.1181 40.3847C24.1181 42.9232 22.0412 45.0001 19.5027 45.0001C16.9412 45.0001 14.8874 42.9232 14.8874 40.3847H24.1181Z" fill="#FFE5D7"/>
</g>
<defs>
<filter id="filter0_d_1111_25853" x="0.995605" y="-0.000488281" width="43.0088" height="55.0005" filterUnits="userSpaceOnUse" color-interpolation-filters="sRGB">
<feFlood flood-opacity="0" result="BackgroundImageFix"/>
<feColorMatrix in="SourceAlpha" type="matrix" values="0 0 0 0 0 0 0 0 0 0 0 0 0 0 0 0 0 0 127 0" result="hardAlpha"/>
<feOffset dx="3" dy="6"/>
<feGaussianBlur stdDeviation="2"/>
<feComposite in2="hardAlpha" operator="out"/>
<feColorMatrix type="matrix" values="0 0 0 0 1 0 0 0 0 0.898039 0 0 0 0 0.843137 0 0 0 0.4 0"/>
<feBlend mode="normal" in2="BackgroundImageFix" result="effect1_dropShadow_1111_25853"/>
<feBlend mode="normal" in="SourceGraphic" in2="effect1_dropShadow_1111_25853" result="shape"/>
</filter>
</defs>
</svg>
