<svg width="45" height="45" viewBox="0 0 45 45" fill="none" xmlns="http://www.w3.org/2000/svg">
<path fill-rule="evenodd" clip-rule="evenodd" d="M20.1231 12.106H24.1231C24.6731 12.106 25.1231 12.556 25.1231 13.106C25.1231 13.656 24.6731 14.106 24.1231 14.106H20.1231C19.5731 14.106 19.1231 13.656 19.1231 13.106C19.1231 12.556 19.5731 12.106 20.1231 12.106ZM23.1231 24.106C23.1231 24.656 22.6731 25.106 22.1231 25.106C21.5731 25.106 21.1231 24.656 21.1231 24.106V20.106C21.1231 19.556 21.5731 19.106 22.1231 19.106C22.6731 19.106 23.1231 19.556 23.1231 20.106V24.106ZM29.1531 18.496L29.9031 17.746C30.2831 17.366 30.2931 16.736 29.9031 16.346L29.8931 16.336C29.5031 15.946 28.8831 15.956 28.4931 16.336L27.7431 17.086C26.1931 15.846 24.2431 15.106 22.1231 15.106C17.3231 15.106 13.2431 19.066 13.1231 23.866C12.9931 28.946 17.0631 33.106 22.1231 33.106C27.1031 33.106 31.1231 29.076 31.1231 24.106C31.1231 21.986 30.3831 20.036 29.1531 18.496ZM15.1231 24.106C15.1231 27.976 18.2531 31.106 22.1231 31.106C25.9931 31.106 29.1231 27.976 29.1231 24.106C29.1231 20.236 25.9931 17.106 22.1231 17.106C18.2531 17.106 15.1231 20.236 15.1231 24.106Z" fill="#040404"/>
</svg>
