<svg width="45" height="45" viewBox="0 0 45 45" fill="none" xmlns="http://www.w3.org/2000/svg">
<path fill-rule="evenodd" clip-rule="evenodd" d="M21.3606 13.7324H25.3606C25.9106 13.7324 26.3606 13.2824 26.3606 12.7324C26.3606 12.1824 25.9106 11.7324 25.3606 11.7324H21.3606C20.8106 11.7324 20.3606 12.1824 20.3606 12.7324C20.3606 13.2824 20.8106 13.7324 21.3606 13.7324ZM23.3606 18.7324C22.8506 18.7324 22.4406 19.1224 22.3806 19.6224L24.3606 21.5924V19.7324C24.3606 19.1824 23.9106 18.7324 23.3606 18.7324ZM30.3606 23.7324C30.3606 19.8624 27.2306 16.7324 23.3606 16.7324C22.2406 16.7324 21.1806 17.0024 20.2406 17.4724L18.7906 16.0224C20.1406 15.2124 21.7006 14.7324 23.3606 14.7324C25.4806 14.7324 27.4306 15.4724 28.9806 16.7124L29.7306 15.9624C30.1206 15.5824 30.7406 15.5724 31.1306 15.9624L31.1406 15.9724C31.5306 16.3624 31.5206 16.9924 31.1406 17.3724L30.3906 18.1224C31.6206 19.6624 32.3606 21.6124 32.3606 23.7324C32.3606 25.4124 31.8906 26.9824 31.0906 28.3224L29.6206 26.8524C30.0906 25.9124 30.3606 24.8524 30.3606 23.7324ZM31.5506 31.6124L15.2306 15.2924C15.0437 15.1052 14.7901 14.9999 14.5256 14.9999C14.2611 14.9999 14.0074 15.1052 13.8206 15.2924C13.4306 15.6824 13.4306 16.3124 13.8206 16.7024L15.8906 18.7724C14.9706 20.1524 14.4106 21.7624 14.3606 23.4924C14.2306 28.5724 18.3006 32.7324 23.3606 32.7324C25.2006 32.7324 26.9106 32.1824 28.3406 31.2324L30.1306 33.0224C30.5206 33.4124 31.1506 33.4124 31.5406 33.0224C31.9406 32.6324 31.9406 32.0024 31.5506 31.6124ZM16.3606 23.7324C16.3606 27.6024 19.4906 30.7324 23.3606 30.7324C24.6506 30.7324 25.8506 30.3824 26.8906 29.7824L17.3206 20.2124C16.7106 21.2424 16.3606 22.4424 16.3606 23.7324Z" fill="#040404"/>
</svg>
