<svg width="15" height="16" viewBox="0 0 15 16" fill="none" xmlns="http://www.w3.org/2000/svg">
<path fill-rule="evenodd" clip-rule="evenodd" d="M7.53056 0.802734C3.44494 0.802734 0.136475 4.1186 0.136475 8.20422C0.136475 12.2898 3.44494 15.6057 7.53056 15.6057C11.6236 15.6057 14.9395 12.2898 14.9395 8.20422C14.9395 4.1186 11.6236 0.802734 7.53056 0.802734ZM7.53796 14.1254C4.26651 14.1254 1.61677 11.4757 1.61677 8.20422C1.61677 4.93277 4.26651 2.28303 7.53796 2.28303C10.8094 2.28303 13.4592 4.93277 13.4592 8.20422C13.4592 11.4757 10.8094 14.1254 7.53796 14.1254ZM7.33072 4.50348H7.37513C7.67119 4.50348 7.90804 4.74033 7.90804 5.03639V8.39666L10.7724 10.099C11.0315 10.247 11.1129 10.5801 10.9575 10.8318C10.8094 11.0834 10.4838 11.1574 10.2321 11.0094L7.16049 9.16642C6.93104 9.03319 6.79781 8.78894 6.79781 8.52989V5.03639C6.79781 4.74033 7.03466 4.50348 7.33072 4.50348Z" fill="#040404"/>
</svg>
