<svg width="45" height="45" viewBox="0 0 45 45" fill="none" xmlns="http://www.w3.org/2000/svg">
<path d="M16.2378 14.1694V17.3394C16.2378 17.8694 16.4478 18.3794 16.8278 18.7594L20.2378 22.1694L16.8178 25.5894C16.4478 25.9694 16.2378 26.4794 16.2378 27.0094V30.1694C16.2378 31.2694 17.1378 32.1694 18.2378 32.1694H26.2378C27.3378 32.1694 28.2378 31.2694 28.2378 30.1694V27.0094C28.2378 26.4794 28.0278 25.9694 27.6578 25.5994L24.2378 22.1694L27.6478 18.7694C28.0278 18.3894 28.2378 17.8794 28.2378 17.3494V14.1694C28.2378 13.0694 27.3378 12.1694 26.2378 12.1694H18.2378C17.1378 12.1694 16.2378 13.0694 16.2378 14.1694Z" fill="#040404"/>
</svg>
