<svg width="45" height="45" viewBox="0 0 45 45" fill="none" xmlns="http://www.w3.org/2000/svg">
<path d="M16.5142 14.1694V17.3394C16.5142 17.8694 16.7242 18.3794 17.1042 18.7594L20.5142 22.1694L17.0942 25.5894C16.7242 25.9694 16.5142 26.4794 16.5142 27.0094V30.1694C16.5142 31.2694 17.4142 32.1694 18.5142 32.1694H26.5142C27.6142 32.1694 28.5142 31.2694 28.5142 30.1694V27.0094C28.5142 26.4794 28.3042 25.9694 27.9342 25.5994L24.5142 22.1694L27.9242 18.7694C28.3042 18.3894 28.5142 17.8794 28.5142 17.3494V14.1694C28.5142 13.0694 27.6142 12.1694 26.5142 12.1694H18.5142C17.4142 12.1694 16.5142 13.0694 16.5142 14.1694Z" stroke="#040404"/>
</svg>
