<svg width="45" height="45" viewBox="0 0 45 45" fill="none" xmlns="http://www.w3.org/2000/svg">
<path d="M13.1584 14.1111V14.1108C13.1584 13.2837 13.8278 12.6108 14.6484 12.6108H30.6484C31.4723 12.6108 32.1484 13.287 32.1484 14.1108V26.1108C32.1484 26.9347 31.4723 27.6108 30.6484 27.6108H16.6484H16.4413L16.2949 27.7573L13.1491 30.9031L13.1584 14.1111Z" stroke="#040404"/>
<path d="M17.6484 19.1108H27.6484C28.1984 19.1108 28.6484 19.5608 28.6484 20.1108C28.6484 20.6608 28.1984 21.1108 27.6484 21.1108H17.6484C17.0984 21.1108 16.6484 20.6608 16.6484 20.1108C16.6484 19.5608 17.0984 19.1108 17.6484 19.1108Z" fill="#040404"/>
<path d="M23.6484 24.1108H17.6484C17.0984 24.1108 16.6484 23.6608 16.6484 23.1108C16.6484 22.5608 17.0984 22.1108 17.6484 22.1108H23.6484C24.1984 22.1108 24.6484 22.5608 24.6484 23.1108C24.6484 23.6608 24.1984 24.1108 23.6484 24.1108Z" fill="#040404"/>
<path d="M27.6484 18.1108H17.6484C17.0984 18.1108 16.6484 17.6608 16.6484 17.1108C16.6484 16.5608 17.0984 16.1108 17.6484 16.1108H27.6484C28.1984 16.1108 28.6484 16.5608 28.6484 17.1108C28.6484 17.6608 28.1984 18.1108 27.6484 18.1108Z" fill="#040404"/>
</svg>
