<svg width="21" height="21" viewBox="0 0 21 21" fill="none" xmlns="http://www.w3.org/2000/svg">
<path fill-rule="evenodd" clip-rule="evenodd" d="M1.76177 4.38232H14.4379C15.3094 4.38232 16.0225 5.09536 16.0225 5.96685V15.474C16.0225 16.3455 15.3094 17.0585 14.4379 17.0585H3.34629L0.177246 20.2275L0.185169 5.96685C0.185169 5.09536 0.890281 4.38232 1.76177 4.38232ZM12.0612 9.92815H4.13855C3.70281 9.92815 3.34629 10.2847 3.34629 10.7204C3.34629 11.1562 3.70281 11.5127 4.13855 11.5127H12.0612C12.4969 11.5127 12.8534 11.1562 12.8534 10.7204C12.8534 10.2847 12.4969 9.92815 12.0612 9.92815ZM8.89211 13.8895H4.13855C3.70281 13.8895 3.34629 13.5329 3.34629 13.0972C3.34629 12.6614 3.70281 12.3049 4.13855 12.3049H8.89211C9.32786 12.3049 9.68438 12.6614 9.68438 13.0972C9.68438 13.5329 9.32786 13.8895 8.89211 13.8895ZM4.13855 9.13589H12.0612C12.4969 9.13589 12.8534 8.77937 12.8534 8.34363C12.8534 7.90788 12.4969 7.55137 12.0612 7.55137H4.13855C3.70281 7.55137 3.34629 7.90788 3.34629 8.34363C3.34629 8.77937 3.70281 9.13589 4.13855 9.13589Z" fill="#040404"/>
<circle cx="16.395" cy="4.7312" r="4.21021" fill="#F55E00"/>
</svg>
