<svg width="17" height="17" viewBox="0 0 17 17" fill="none" xmlns="http://www.w3.org/2000/svg">
<path fill-rule="evenodd" clip-rule="evenodd" d="M1.76177 0.691895H14.4379C15.3094 0.691895 16.0225 1.40493 16.0225 2.27642V11.7835C16.0225 12.655 15.3094 13.3681 14.4379 13.3681H3.34629L0.177246 16.5371L0.185169 2.27642C0.185169 1.40493 0.890281 0.691895 1.76177 0.691895ZM12.0612 6.23772H4.13855C3.70281 6.23772 3.34629 6.59424 3.34629 7.02998C3.34629 7.46572 3.70281 7.82224 4.13855 7.82224H12.0612C12.4969 7.82224 12.8534 7.46572 12.8534 7.02998C12.8534 6.59424 12.4969 6.23772 12.0612 6.23772ZM8.89211 10.199H4.13855C3.70281 10.199 3.34629 9.84251 3.34629 9.40676C3.34629 8.97102 3.70281 8.6145 4.13855 8.6145H8.89211C9.32786 8.6145 9.68438 8.97102 9.68438 9.40676C9.68438 9.84251 9.32786 10.199 8.89211 10.199ZM4.13855 5.44546H12.0612C12.4969 5.44546 12.8534 5.08894 12.8534 4.6532C12.8534 4.21745 12.4969 3.86094 12.0612 3.86094H4.13855C3.70281 3.86094 3.34629 4.21745 3.34629 4.6532C3.34629 5.08894 3.70281 5.44546 4.13855 5.44546Z" fill="#040404"/>
</svg>
