<svg width="17" height="18" viewBox="0 0 17 18" fill="none" xmlns="http://www.w3.org/2000/svg">
<path fill-rule="evenodd" clip-rule="evenodd" d="M12.2413 7.88255V12.3875L13.4036 13.5498C13.9712 14.1174 13.5658 15.0905 12.7639 15.0905H0.897818C0.0959351 15.0905 -0.300501 14.1174 0.267123 13.5498L1.4294 12.3875V7.88255C1.4294 5.1075 2.89802 2.80096 5.48386 2.18828V1.57561C5.48386 0.827785 6.08753 0.224121 6.83535 0.224121C7.58318 0.224121 8.18684 0.827785 8.18684 1.57561V2.18828C10.7637 2.80096 12.2413 5.11651 12.2413 7.88255ZM8.63729 15.9915C8.63729 16.9826 7.8264 17.7935 6.83531 17.7935C5.83521 17.7935 5.03332 16.9826 5.03332 15.9915H8.63729Z" fill="#040404"/>
<circle cx="12.3838" cy="4.79858" r="4.21021" fill="#F55E00"/>
</svg>
