<svg width="45" height="45" viewBox="0 0 45 45" fill="none" xmlns="http://www.w3.org/2000/svg">
<path fill-rule="evenodd" clip-rule="evenodd" d="M22.2102 12.5C21.104 12.5 20.2102 13.3939 20.2102 14.5V14.7969C17.3067 15.6729 15.7102 18.3808 15.7102 21.5V26.2929L14.5666 27.4364C13.6276 28.3755 14.2764 30 15.6202 30H28.7902C30.1233 30 30.8003 28.3831 29.8537 27.4364L28.7102 26.2929V21.5C28.7102 18.3902 27.1045 15.6744 24.2102 14.7973V14.5C24.2102 13.3939 23.3163 12.5 22.2102 12.5ZM21.2102 14.5C21.2102 13.9461 21.6563 13.5 22.2102 13.5C22.764 13.5 23.2102 13.9461 23.2102 14.5V15.18V15.5751L23.5945 15.6664C26.1783 16.2808 27.7102 18.6048 27.7102 21.5V26.5V26.7071L27.8566 26.8536L29.1466 28.1436C29.46 28.4569 29.237 29 28.7902 29H15.6202C15.184 29 14.9528 28.4645 15.2737 28.1436L16.5637 26.8536L16.7102 26.7071V26.5V21.5C16.7102 18.5944 18.2324 16.2809 20.8254 15.6665L21.2102 15.5754V15.18V14.5ZM24.2102 30.5C24.2102 31.6 23.3102 32.5 22.2102 32.5C21.1002 32.5 20.2102 31.6 20.2102 30.5H24.2102Z" fill="#040404"/>
</svg>
