<svg width="45" height="45" viewBox="0 0 45 45" fill="none" xmlns="http://www.w3.org/2000/svg">
<path fill-rule="evenodd" clip-rule="evenodd" d="M28.1811 21.25V26.25L29.4611 27.54C30.0911 28.17 29.6411 29.25 28.7511 29.25H15.5811C14.6911 29.25 14.2511 28.17 14.8811 27.54L16.1811 26.25V21.25C16.1811 18.17 17.8111 15.61 20.6811 14.93V14.25C20.6811 13.42 21.3411 12.75 22.1711 12.75C23.0011 12.75 23.6811 13.42 23.6811 14.25V14.93C26.5411 15.61 28.1811 18.18 28.1811 21.25ZM24.1711 30.25C24.1711 31.35 23.2711 32.25 22.1711 32.25C21.0611 32.25 20.1711 31.35 20.1711 30.25H24.1711ZM16.9511 14.98C17.3711 14.6 17.3811 13.95 16.9811 13.55C16.6011 13.17 15.9811 13.16 15.5911 13.53C13.8811 15.09 12.7011 17.21 12.3211 19.59C12.2311 20.2 12.7011 20.75 13.3211 20.75C13.8011 20.75 14.2211 20.4 14.3011 19.92C14.6011 17.98 15.5611 16.25 16.9511 14.98ZM27.3811 13.55C27.7611 13.17 28.3811 13.16 28.7811 13.53C30.4811 15.1 31.6511 17.21 32.0311 19.58C32.1311 20.19 31.6511 20.74 31.0411 20.74C30.5511 20.74 30.1311 20.39 30.0611 19.91C29.7611 17.97 28.7911 16.24 27.4111 14.97C27.0011 14.59 26.9811 13.95 27.3811 13.55Z" fill="#040404"/>
</svg>
