<svg width="14" height="18" viewBox="0 0 14 18" fill="none" xmlns="http://www.w3.org/2000/svg">
<path fill-rule="evenodd" clip-rule="evenodd" d="M12.2413 7.74388V12.2488L13.4036 13.4111C13.9712 13.9787 13.5658 14.9518 12.7639 14.9518H0.897818C0.0959351 14.9518 -0.300501 13.9787 0.267123 13.4111L1.4294 12.2488V7.74388C1.4294 4.96882 2.89802 2.66229 5.48386 2.04961V1.43694C5.48386 0.689114 6.08753 0.0854492 6.83535 0.0854492C7.58318 0.0854492 8.18684 0.689114 8.18684 1.43694V2.04961C10.7637 2.66229 12.2413 4.97783 12.2413 7.74388ZM8.63729 15.8528C8.63729 16.8439 7.8264 17.6548 6.83531 17.6548C5.83521 17.6548 5.03332 16.8439 5.03332 15.8528H8.63729Z" fill="#040404"/>
</svg>
