<svg width="30" height="26" viewBox="0 0 30 26" fill="none" xmlns="http://www.w3.org/2000/svg">
<path d="M15.8316 24.1533L15.8284 24.1562C15.1058 24.8122 13.991 24.8119 13.2686 24.1465L13.2686 24.1465L13.2638 24.1421L13.1039 23.9968L13.1021 23.9952C9.26619 20.5246 6.18057 17.7267 4.0644 15.1036C1.96282 12.4986 0.921751 10.1899 1.0046 7.70897C1.08122 5.54587 2.192 3.47608 3.96879 2.26635L3.96934 2.26598C7.3222 -0.0200643 11.5005 1.02198 13.7783 3.688L14.5386 4.57789L15.2989 3.688C17.5787 1.01956 21.7559 -0.0320983 25.1057 2.26453L25.1083 2.26635C26.8854 3.47624 27.9962 5.54643 28.0726 7.70984L28.0726 7.71063C28.162 10.1901 27.1221 12.4979 25.018 15.1074C22.9054 17.7275 19.8273 20.5242 16.0053 23.9967L15.9769 24.0225L15.9734 24.0257L15.8316 24.1533Z" stroke="#F55E00" stroke-width="2"/>
</svg>
